<?xml version="1.0" encoding="UTF-8"?>
<svg width="70px" height="20px" viewBox="0 0 70 20" version="1.1" xmlns="http://www.w3.org/2000/svg" xmlns:xlink="http://www.w3.org/1999/xlink">
    <!-- Generator: Sketch 41.2 (35397) - http://www.bohemiancoding.com/sketch -->
    <title>book</title>
    <desc>Created with Sketch.</desc>
    <defs></defs>
    <g id="letters" stroke="none" stroke-width="1" fill="none" fill-rule="evenodd">
        <g id="book" fill="#000000">
            <path d="M69,12.3696167 C69,12.7851125 68.9346421,13.0908941 68.8039243,13.2869708 C68.7712449,13.3383242 68.5144817,13.3640005 68.033627,13.3640005 L62.1233456,13.3640005 L62.1233456,12.0194815 L66.6260837,12.0194815 C67.2796726,12.0194815 67.6064621,11.9751315 67.6064621,11.8864302 C67.6064621,11.7323699 67.0205751,11.1184724 65.8487836,10.0447193 C64.6863291,8.9662976 64.0164106,8.42709486 63.8390079,8.42709486 C63.8016599,8.47377978 63.7549757,8.63017191 63.6989538,8.89627596 C63.6009155,8.8122431 63.4807036,8.70370229 63.3383146,8.57065027 C63.1959256,8.43759824 63.0313637,8.28237321 62.844624,8.10497052 C62.4991556,7.7641706 62.326424,7.43504685 62.326424,7.11758939 C62.326424,6.79079494 62.4874846,6.36130012 62.8096105,5.82909203 C62.9916817,5.53964552 65.0434532,4.59662428 68.9649865,3 L68.2857243,4.67364603 L63.411843,6.65541099 C63.4912073,6.73010686 63.5974139,6.82114109 63.730466,6.9285164 C63.863518,7.03589172 64.0280799,7.1596049 64.2241565,7.29965967 C65.3259206,8.13998823 66.2607722,8.93478708 67.0287391,9.68408005 C67.796706,10.433373 68.404768,11.1418061 68.8529432,11.8094004 C68.9509816,11.9541237 69,12.1408606 69,12.3696167 Z M63.5774569,13.3640005 L57.7231972,13.3640005 L57.7231972,12.0194815 L61.3085811,12.0194815 C61.383277,12.0194815 61.4206244,11.9564578 61.4206244,11.8304085 C61.4206244,11.7370387 61.3914467,11.6028216 61.3330906,11.4277531 C61.2747344,11.2526847 61.203541,11.0787859 61.1195081,10.9060517 C61.0354753,10.7333175 60.9479424,10.5815938 60.8569068,10.450876 C60.7658712,10.3201583 60.6876751,10.2548003 60.6223162,10.2548003 L61.2595622,8.77723001 C61.5676827,9.12736691 61.8314485,9.63855912 62.0508676,10.310822 C62.2702868,10.9504054 62.3799947,11.5199529 62.3799947,12.0194815 L63.5774569,12.0194815 L63.5774569,13.3640005 Z M61.6167,6.57137855 L60.1461324,5.63301634 L60.7623703,4.63863251 L62.2399406,5.52097309 L61.6167,6.57137855 Z M58.0873377,5.73105419 L58.6825675,4.69465414 L60.1461324,5.63301634 L59.5438999,6.60639207 L58.0873377,5.73105419 Z M59.1773084,13.3640005 L57.5736894,13.3640005 C57.1208457,13.3640005 56.7485391,13.3114808 56.4567583,13.2064397 C56.1649776,13.1013986 55.9502301,12.9356696 55.8125096,12.7092478 C55.6747891,12.4828259 55.6059299,12.0825087 55.6059299,11.5082842 L55.6059299,4.31650817 L56.6563353,3 L56.6563353,11.5082842 C56.6563353,11.8490841 56.8150617,12.0194815 57.1325191,12.0194815 L59.1773084,12.0194815 L59.1773084,13.3640005 Z M53.6147113,11.5082842 C53.6147113,12.3672867 53.4489823,12.9274974 53.1175194,13.1889329 C52.9914701,13.2869713 52.7720542,13.3780055 52.4592653,13.4620383 C52.1464763,13.5460712 51.7379894,13.632437 51.2337922,13.7211384 C50.7436006,13.8005027 50.2732571,13.8600251 49.8227476,13.8997073 C49.3722381,13.9393895 48.9345735,13.9592303 48.5097408,13.9592303 C45.5032319,13.9592303 44,13.1726011 44,11.5993193 C44,11.216503 44.0980369,10.8430292 44.2941135,10.4788868 C44.3594724,10.3575061 44.5812225,10.0400534 44.9593703,9.52651923 C44.7586252,10.1707711 44.6582541,10.6236081 44.6582541,10.8850436 C44.6582541,11.6553448 45.18812,12.1642028 46.2478677,12.4116329 C46.5093032,12.4723233 46.8465967,12.5178404 47.2597583,12.5481856 C47.6729198,12.5785308 48.1666054,12.5937032 48.74083,12.5937032 C49.0676244,12.5937032 49.4212574,12.5831992 49.8017395,12.562191 C50.1822216,12.5411828 50.5988782,12.5073367 51.051722,12.4606518 C52.2935408,12.339271 52.914441,12.1595368 52.914441,11.9214437 C52.914441,11.6460026 52.6833541,11.2165078 52.2211734,10.6329463 L52.865422,9.225403 C53.3649507,10.0377206 53.6147113,10.7986734 53.6147113,11.5082842 Z M49.77723,15.9199871 L49.1329813,17.0194115 L47.5573731,16.1020574 L48.1666083,15.002633 L49.77723,15.9199871 Z"></path>
        </g>
    </g>
</svg>