<?xml version="1.0" encoding="UTF-8"?>
<svg width="70px" height="20px" viewBox="0 0 70 20" version="1.1" xmlns="http://www.w3.org/2000/svg" xmlns:xlink="http://www.w3.org/1999/xlink">
    <!-- Generator: Sketch 41.2 (35397) - http://www.bohemiancoding.com/sketch -->
    <title>engineer</title>
    <desc>Created with Sketch.</desc>
    <defs></defs>
    <g id="letters" stroke="none" stroke-width="1" fill="none" fill-rule="evenodd">
        <g id="engineer" fill="#000000">
            <path d="M68.9987781,11.7836107 C68.9987781,12.5969023 68.5896436,13.003542 67.7713625,13.003542 C67.3522429,13.003542 66.8358355,12.9037531 66.2221246,12.7041724 C65.5585186,12.4896231 65.1119633,12.2501297 64.8824455,11.9856852 C64.6978333,12.5844275 64.2637516,12.8837942 63.5801875,12.8837942 L61.7240957,12.8837942 L61.7240957,11.4468199 C63.4804064,11.4468199 64.4408744,11.3869465 64.6055286,11.2671981 C64.6953399,11.1923553 64.8450232,10.8929887 65.054583,10.3690892 C65.2042686,9.99487523 65.3477151,9.68178761 65.4849269,9.4298169 C65.6221386,9.17784619 65.7593484,8.97452634 65.8965601,8.81985125 C66.0337719,8.66517616 66.1772184,8.55416103 66.326904,8.48680253 C66.4765896,8.41944402 66.6387465,8.38576527 66.8133797,8.38576527 C67.3722058,8.38576527 67.8886133,8.82234163 68.3626176,9.69550746 C68.5721774,10.0846899 68.7330869,10.4526614 68.8453511,10.799433 C68.9576153,11.1462046 69.0087571,11.4742605 68.9987781,11.7836107 Z M68.0632479,11.2671981 C68.0632479,11.1075335 68.0195903,10.9353977 67.9322737,10.7507855 C67.8449571,10.5661732 67.7389314,10.3940374 67.6141935,10.2343728 C67.4894555,10.0747082 67.3497511,9.94248794 67.195076,9.83770804 C67.0404009,9.73292814 66.8907175,9.68053898 66.7460215,9.68053898 C66.6512206,9.68053898 66.5364634,9.72170189 66.4017464,9.80402896 C66.2670294,9.88635602 66.1373038,9.98489754 66.0125659,10.0996565 C65.8878279,10.2144154 65.7805548,10.3341621 65.6907435,10.4589 C65.6009322,10.583638 65.5560272,10.6934058 65.5560272,10.7882067 C65.5560272,10.8331123 65.593448,10.8855015 65.6682908,10.9453757 C65.7431336,11.0052499 65.8404277,11.0663706 65.9601762,11.1287396 C66.0799246,11.1911086 66.2121449,11.2522293 66.356841,11.3121035 C66.501537,11.3719778 66.6437362,11.4243669 66.7834427,11.4692726 C66.9231492,11.5141783 67.0528748,11.5515991 67.1726232,11.5815362 C67.2923717,11.6114733 67.3896659,11.6264417 67.4645086,11.6264417 C67.8636702,11.6264417 68.0632479,11.506695 68.0632479,11.2671981 Z M63.2707141,12.8837942 L59.7531208,12.8837942 C59.803016,12.9386789 59.9352363,13.0384678 60.1497856,13.1831638 C60.1697437,13.2530171 60.1797226,13.3577954 60.1797226,13.4975019 C60.1797226,14.0313805 60.1198492,14.6475768 60.0001008,15.3461095 C59.8354467,16.2891286 59.6034375,16.760631 59.3040664,16.760631 C58.5805861,16.760631 57.9818528,16.3889174 57.5078485,15.6454791 C57.1885193,15.1465272 56.9340576,14.2259748 56.7444559,12.8837942 L54.9108169,12.8837942 L54.9108169,11.4468199 L57.058794,11.4468199 C57.048815,11.4368408 57.0425782,11.4256146 57.0400834,11.4131408 C57.0375887,11.400667 57.0338466,11.3894407 57.0288571,11.3794617 C57.0288571,10.9803002 57.3806129,10.1794944 58.0841351,8.97702032 C58.8175944,7.72964057 59.3514649,7.10596005 59.6857627,7.10596005 C60.0300395,7.10596005 60.2021753,7.87433445 60.2021753,9.4111063 C60.2021753,10.2942512 60.1772281,10.7757325 60.1273329,10.8555648 C60.0624691,10.9204286 59.9863801,11.0002597 59.8990635,11.0950605 C59.811747,11.1898614 59.708216,11.2971345 59.5884675,11.4168829 C59.6084256,11.436841 60.8358289,11.4468199 63.2707141,11.4468199 L63.2707141,12.8837942 Z M59.5884675,14.6500751 C59.5884675,14.4105781 59.5423152,14.1823111 59.4500091,13.965267 C59.357703,13.7482229 59.2292248,13.5573767 59.0645707,13.3927226 C58.8999165,13.2280684 58.7103177,13.0958482 58.4957683,12.9960578 C58.281219,12.8962674 58.0541993,12.846373 57.8147024,12.846373 L57.6275964,12.846373 C57.5727117,12.846373 57.5327961,12.8713202 57.5078485,12.9212154 C57.5078485,13.2654922 57.709921,13.7369946 58.114072,14.3357369 C58.5481602,14.9694058 58.9273579,15.2862355 59.2516767,15.2862355 C59.476205,15.2862355 59.5884675,15.0741842 59.5884675,14.6500751 Z M59.5136251,10.518774 C59.5136251,9.4210798 59.3938785,8.87224094 59.1543815,8.87224094 C58.9897274,8.87224094 58.6978449,9.23148092 58.2787253,9.94997166 C57.8895429,10.6335358 57.6774915,11.1025435 57.6425649,11.357009 C57.672502,11.3969251 57.7149122,11.4168829 57.7697969,11.4168829 C57.8196921,11.4168829 57.9007706,11.406904 58.0130348,11.3869459 C58.125299,11.3669879 58.2575192,11.3358038 58.4096996,11.2933929 C58.5618799,11.250982 58.7277789,11.192356 58.9074016,11.1175133 C59.0870243,11.0426705 59.2741284,10.9503658 59.4687197,10.8405963 C59.4986568,10.7956907 59.5136251,10.6884176 59.5136251,10.518774 Z M56.4649195,12.8837942 L50.208094,12.8837942 L50.208094,11.4468199 L54.0400254,11.4468199 C54.1198577,11.4468199 54.1597733,11.3794624 54.1597733,11.2447454 C54.1597733,11.144955 54.1285892,11.0015085 54.0662202,10.8144015 C54.0038513,10.6272945 53.9277622,10.4414377 53.8379509,10.2568255 C53.7481395,10.0722133 53.6545875,9.9100564 53.5572918,9.77034987 C53.4599962,9.63064334 53.376423,9.56079112 53.3065698,9.56079112 L53.9876357,7.98161625 C54.316944,8.35583018 54.5988476,8.90217431 54.833355,9.62066505 C55.0678623,10.3042292 55.1851143,10.9129413 55.1851143,11.4468199 L56.4649195,11.4468199 L56.4649195,12.8837942 Z M54.2870054,4.98043558 L53.5984552,6.15546143 L51.9145009,5.17502585 L52.5656299,4 L54.2870054,4.98043558 Z M51.7547124,12.8837942 L50.0408212,12.8837942 C49.9809469,13.0185112 49.4695289,13.1507314 48.5065517,13.2804589 C47.7082287,13.3852388 47.0995165,13.437628 46.6803969,13.437628 C46.1215708,13.437628 45.7348889,13.3802494 45.5203396,13.2654905 C45.2259579,13.0908573 45.0787693,12.7490804 45.0787693,12.2401494 C45.0787693,12.140359 45.094985,11.9931704 45.1274169,11.7985792 C45.1598488,11.603988 45.1997643,11.410647 45.2471648,11.2185505 C45.2945652,11.026454 45.3469543,10.8580603 45.4043338,10.7133642 C45.4617133,10.5686682 45.5203393,10.4963213 45.5802135,10.4963213 L45.6101504,10.5038055 L45.6101504,11.0576393 C45.6101504,11.4368428 45.6475713,11.6513889 45.7224141,11.7012841 C45.961911,11.8360011 46.3760348,11.9033586 46.9647981,11.9033586 C47.1693684,11.9033586 47.3913986,11.8946271 47.6308955,11.8771637 C47.8703924,11.8597004 48.1323383,11.8310111 48.4167409,11.791095 C49.1801373,11.6863151 49.5618297,11.5416212 49.5618297,11.357009 C49.5618297,11.107533 49.3921886,10.506305 49.0529013,9.55330688 C48.703635,8.5603926 48.4591522,8.04398513 48.3194457,8.00406898 L49.1576807,6.26772505 C49.6865697,7.56001047 50.1006936,9.28635815 50.4000647,11.4468199 L51.7547124,11.4468199 L51.7547124,12.8837942 Z M43.6765968,11.0875763 C43.6765968,12.2501342 43.6067445,12.8388886 43.467038,12.8538572 C43.332321,12.8688258 43.1651746,12.8825467 42.9655939,12.8950205 C42.7660131,12.9074943 42.5265198,12.9137311 42.2471067,12.9137311 C41.6932701,12.9137311 41.1980678,12.8763103 40.7614849,12.8014675 C40.3249019,12.7266247 39.9170149,12.6043833 39.5378114,12.4347397 C39.2733669,12.6542785 38.9665161,12.7864988 38.6172498,12.8314045 C38.4875223,12.846373 38.1407559,12.8538572 37.5769403,12.8538572 C37.5769403,13.9615304 37.0330909,14.8920617 35.9453757,15.6454791 C34.842692,16.3539908 33.7175724,16.7082413 32.569983,16.7082413 C31.9562722,16.7082413 31.4248964,16.6633364 30.9758396,16.573525 C30.5267829,16.4837137 30.1563167,16.3427619 29.8644298,16.1506654 C29.572543,15.9585689 29.3555022,15.7153335 29.2133009,15.4209519 C29.0710996,15.1265703 29,14.7748144 29,14.3656739 C29,13.7769107 29.1871042,13.0659149 29.5613181,12.2326652 C30.0353224,11.2098138 30.4269938,10.5736597 30.7363439,10.3241837 C30.6265745,10.4738693 30.5193015,10.669705 30.4145216,10.9116966 C30.3097417,11.1536883 30.2161896,11.40815 30.1338625,11.6750892 C30.0515355,11.9420285 29.9854253,12.2039743 29.9355301,12.4609345 C29.8856349,12.7178948 29.8606877,12.9411724 29.8606877,13.1307741 C29.8606877,14.5827241 30.7987032,15.3086883 32.6747624,15.3086883 C33.0090601,15.3036987 33.333374,15.2712674 33.6477137,15.2113931 C33.9620534,15.1515189 34.257678,15.0779246 34.5345963,14.990608 C34.8115146,14.9032914 35.0647289,14.8059973 35.2942467,14.6987226 C35.5237646,14.591448 35.7233424,14.4904117 35.892986,14.3956109 C36.0626297,14.30081 36.1973447,14.2172368 36.2971351,14.1448888 C36.3969254,14.0725408 36.4567988,14.0238937 36.4767568,13.9989461 C36.5815367,13.8642291 36.6339259,13.6197463 36.6339259,13.2654905 C36.6239469,13.021004 36.5965049,12.7752739 36.5515992,12.5282927 C36.5066936,12.2813115 36.4418308,12.0393235 36.357009,11.8023213 C36.2721872,11.5653192 36.1661615,11.3395468 36.0389287,11.1249975 C35.911696,10.9104482 35.7607653,10.7158599 35.5861321,10.5412267 L36.7536738,9.17161058 C37.1228982,9.8851118 37.3823493,10.583634 37.5320348,11.2671981 C37.58193,11.4518103 37.8887808,11.544115 38.4525965,11.544115 C38.9216113,11.544115 39.2184832,11.4742628 39.3432212,11.3345563 C39.4529906,11.2148078 39.5078745,10.9054623 39.5078745,10.4065104 C39.5078745,10.2169086 39.485422,10.0821936 39.4405163,10.0023613 L40.4733416,8.96205183 C40.4833206,9.06184221 40.4895574,9.19281512 40.4920522,9.35497449 C40.4945469,9.51713386 40.4957943,9.7079801 40.4957943,9.92751893 C40.4957943,10.4314604 40.4209526,10.8580578 40.2712671,11.2073242 C40.2562985,11.2322718 40.2488143,11.257219 40.2488143,11.2821666 C40.2488143,11.4567997 40.5831071,11.544115 41.2517026,11.544115 C41.5161472,11.544115 41.733188,11.5366308 41.9028316,11.5216623 C42.0724753,11.5066937 42.2071903,11.4817465 42.3069806,11.4468199 C42.406771,11.4118932 42.4753759,11.3619988 42.5127973,11.2971351 C42.5502187,11.2322713 42.5689291,11.1524402 42.5689291,11.0576393 C42.5689291,10.5187713 42.4292246,10.1420683 42.1498116,9.92751893 L43.3921956,8.82733549 C43.5817973,8.97702106 43.6765968,9.73042713 43.6765968,11.0875763 Z"></path>
        </g>
    </g>
</svg>