<?xml version="1.0" encoding="UTF-8"?>
<svg width="70px" height="20px" viewBox="0 0 70 20" version="1.1" xmlns="http://www.w3.org/2000/svg" xmlns:xlink="http://www.w3.org/1999/xlink">
    <!-- Generator: Sketch 41.2 (35397) - http://www.bohemiancoding.com/sketch -->
    <title>student_girl</title>
    <desc>Created with Sketch.</desc>
    <defs></defs>
    <g id="letters" stroke="none" stroke-width="1" fill="none" fill-rule="evenodd">
        <g id="student_girl" fill="#000000">
            <path d="M68.5879747,12.6889157 C68.5879747,12.9765955 68.4126725,13.1204332 68.0620628,13.1204332 L59.5463352,13.1204332 L59.5463352,11.8258808 L60.7195233,11.8258808 C60.8723532,11.8258808 61.0420367,11.8157672 61.2285791,11.7955397 C61.4151214,11.7753122 61.5915474,11.7483427 61.7578622,11.7146302 C61.9241771,11.6809177 62.0646436,11.6393396 62.179266,11.5898947 C62.2938884,11.5404497 62.3511988,11.493253 62.3511988,11.448303 L62.3511988,5.56213499 L62.0545305,4.14621828 L62.98499,3 L63.072642,4.37546194 L63.7064333,5.02948061 L63.1468091,6.14872905 L63.1468091,10.9561034 C63.3985289,10.5740287 63.8570116,10.1807224 64.522271,9.77617279 C65.2145004,9.36263315 65.7741191,9.15586643 66.2011437,9.15586643 C66.3899335,9.15586643 66.5719781,9.19407332 66.747283,9.27048825 C67.1428427,9.44129811 67.4631063,9.59300195 67.7080836,9.72560434 C67.9530609,9.85820672 68.120497,9.98069353 68.2103969,10.0930684 C68.4621167,10.3852432 68.5879747,10.9089024 68.5879747,11.6640617 L68.5879747,12.6889157 Z M67.9204711,11.6640617 C67.9204711,11.308957 67.6058261,11.0055493 66.9765267,10.7538296 C66.4820771,10.5605447 66.0213469,10.4639038 65.5943223,10.4639038 C65.3605825,10.4639038 64.9403066,10.6437009 64.3334821,11.0033006 C63.7086777,11.3718903 63.3962801,11.6483284 63.3962801,11.8326232 C63.3962801,11.9225232 64.0030955,11.9674724 65.2167445,11.9674724 C67.0192379,11.9674724 67.9204711,11.8663366 67.9204711,11.6640617 Z M60.9464071,13.1204332 L59.4023837,13.1204332 C58.966369,13.1204332 58.6078985,13.0698652 58.3269612,12.9687278 C58.0460239,12.8675904 57.8392572,12.7080205 57.7066548,12.4900131 C57.5740525,12.2720058 57.5077523,11.8865657 57.5077523,11.3336812 L57.5077523,4.40917424 L58.5191213,3.14159167 L58.5191213,11.3336812 C58.5191213,11.6618159 58.6719489,11.8258808 58.9776086,11.8258808 L60.9464071,11.8258808 L60.9464071,13.1204332 Z M55.610761,5.19804212 L55.0578792,6.31729056 L55.0578792,12.9114169 L54.7140137,13.1204332 L52.0844542,13.1204332 L52.0844542,11.8258808 L54.0465102,11.8258808 L54.0465102,5.71721158 L53.6891597,4.32826472 L54.8758328,3.14159167 L54.9769697,4.53053853 L55.610761,5.19804212 Z M53.4777836,13.1204332 L51.7989109,13.1204332 C51.744971,13.318213 51.0415146,13.5092475 49.6885208,13.6935423 C48.6007317,13.8328872 47.7714174,13.9025586 47.2005529,13.9025586 C46.5532734,13.9025586 45.9700564,13.8542381 45.4508844,13.7575957 C44.9317123,13.6609533 44.4912093,13.5182393 44.1293621,13.3294495 C43.7675149,13.1406596 43.4888294,12.9080471 43.293297,12.6316048 C43.0977647,12.3551625 43,12.0371463 43,11.6775466 C43,10.9493573 43.3191399,10.2661281 43.9574294,9.62783866 C43.7641446,10.2481481 43.6675036,10.6841562 43.6675036,10.935876 C43.6675036,11.6775504 44.177678,12.1674976 45.1980421,12.4057324 C45.4497619,12.4641673 45.7745205,12.5079929 46.1723277,12.5372104 C46.5701348,12.5664278 47.0454735,12.5810364 47.5983581,12.5810364 C47.9130078,12.5810364 48.2534986,12.5709228 48.6198408,12.5506953 C48.986183,12.5304678 49.3873554,12.4978796 49.82337,12.4529296 C51.019039,12.3360597 51.6168645,12.163005 51.6168645,11.9337601 C51.6168645,11.6685554 51.3943655,11.2550219 50.9493609,10.6931474 L51.5696673,9.33791286 C52.0506319,9.91776736 52.2911106,10.636956 52.2911106,11.4955002 L52.2911106,11.6640617 C52.2911106,11.7135067 52.2866156,11.7674458 52.2776256,11.8258808 L53.4777836,11.8258808 L53.4777836,13.1204332 Z M48.5692724,15.6421134 L47.948966,16.7006797 L46.4319124,15.8174174 L47.0185065,14.7588511 L48.5692724,15.6421134 Z" id="student"></path>
        </g>
    </g>
</svg>