<?xml version="1.0" encoding="UTF-8" standalone="no"?>
<svg width="18px" height="8px" viewBox="0 0 18 8" version="1.1" xmlns="http://www.w3.org/2000/svg" xmlns:xlink="http://www.w3.org/1999/xlink">
    <!-- Generator: Sketch 41.2 (35397) - http://www.bohemiancoding.com/sketch -->
    <title>book</title>
    <desc>Created with Sketch.</desc>
    <defs></defs>
    <g id="letters" stroke="none" stroke-width="1" fill="none" fill-rule="evenodd">
        <g id="Overview" transform="translate(-175.000000, -30.000000)" fill="#000000">
            <path d="M175.605469,32 C175.605469,31.9166662 175.60612,31.8359379 175.607422,31.7578125 C175.608724,31.6796871 175.615885,31.5872401 175.628906,31.4804688 L175.0625,31.5117188 L175.0625,31.1757812 C175.23698,31.1757812 175.382161,31.1699219 175.498047,31.1582031 C175.613933,31.1464843 175.708333,31.1302084 175.78125,31.109375 C175.854167,31.0885416 175.911458,31.0657553 175.953125,31.0410156 C175.994792,31.0162759 176.03125,30.9895835 176.0625,30.9609375 L176.292969,30.9609375 L176.292969,33.3476562 C176.441407,33.199218 176.617838,33.0826827 176.822266,32.9980469 C177.026694,32.913411 177.255207,32.8710938 177.507812,32.8710938 C177.763022,32.8710938 178.00065,32.9186193 178.220703,33.0136719 C178.440756,33.1087244 178.632161,33.2441397 178.794922,33.4199219 C178.957683,33.595704 179.085286,33.8092435 179.177734,34.0605469 C179.270183,34.3118502 179.316406,34.5937484 179.316406,34.90625 C179.316406,35.2473975 179.258464,35.5546861 179.142578,35.828125 C179.026692,36.1015639 178.873048,36.3346345 178.681641,36.5273438 C178.490233,36.720053 178.268881,36.8684891 178.017578,36.9726562 C177.766275,37.0768234 177.506512,37.1289062 177.238281,37.1289062 C177.147135,37.1289062 177.050782,37.1217449 176.949219,37.1074219 C176.847656,37.0930989 176.744792,37.0670575 176.640625,37.0292969 C176.536458,36.9915363 176.434896,36.9414066 176.335938,36.8789062 C176.236979,36.8164059 176.145834,36.7369796 176.0625,36.640625 L175.871094,37 L175.589844,37 L175.605469,32 Z M177.261719,33.265625 C177.084635,33.265625 176.910157,33.3066402 176.738281,33.3886719 C176.566405,33.4707035 176.417969,33.5807285 176.292969,33.71875 L176.292969,35.7421875 C176.292969,35.9557302 176.31901,36.1308587 176.371094,36.2675781 C176.423177,36.4042976 176.493489,36.5123694 176.582031,36.5917969 C176.670573,36.6712244 176.771484,36.7259113 176.884766,36.7558594 C176.998047,36.7858074 177.115885,36.8007812 177.238281,36.8007812 C177.430991,36.8007812 177.604817,36.759766 177.759766,36.6777344 C177.914714,36.5957027 178.046223,36.4798185 178.154297,36.3300781 C178.26237,36.1803378 178.345703,36.0013031 178.404297,35.7929688 C178.462891,35.5846344 178.492188,35.3541679 178.492188,35.1015625 C178.492188,34.833332 178.466797,34.5865897 178.416016,34.3613281 C178.365234,34.1360666 178.289063,33.9427091 178.1875,33.78125 C178.085937,33.6197909 177.958334,33.49349 177.804688,33.4023438 C177.651041,33.3111975 177.470053,33.265625 177.261719,33.265625 Z M181.892188,33.1757812 C181.681249,33.1757812 181.500912,33.2226558 181.351172,33.3164062 C181.201432,33.4101567 181.078386,33.5351555 180.982031,33.6914062 C180.885677,33.847657 180.814714,34.0273427 180.769141,34.2304688 C180.723567,34.4335948 180.700781,34.6445302 180.700781,34.8632812 C180.700781,35.1106783 180.726172,35.3515613 180.776953,35.5859375 C180.827735,35.8203137 180.905208,36.0279939 181.009375,36.2089844 C181.113542,36.3899749 181.2444,36.5351557 181.401953,36.6445312 C181.559506,36.7539068 181.743749,36.8085938 181.954688,36.8085938 C182.165626,36.8085938 182.343359,36.7610682 182.487891,36.6660156 C182.632423,36.5709631 182.749609,36.4453133 182.839453,36.2890625 C182.929297,36.1328117 182.99375,35.9544281 183.032813,35.7539062 C183.071875,35.5533844 183.091406,35.3476573 183.091406,35.1367188 C183.091406,34.8971342 183.069271,34.6601574 183.025,34.4257812 C182.980729,34.1914051 182.910417,33.9817718 182.814063,33.796875 C182.717708,33.6119782 182.59336,33.4622402 182.441016,33.3476562 C182.288671,33.2330723 182.10573,33.1757812 181.892188,33.1757812 Z M181.892188,32.8710938 C182.173439,32.8710938 182.436457,32.9225255 182.68125,33.0253906 C182.926043,33.1282557 183.138931,33.2701814 183.319922,33.4511719 C183.500912,33.6321624 183.64414,33.847004 183.749609,34.0957031 C183.855079,34.3444023 183.907813,34.6132798 183.907813,34.9023438 C183.907813,35.2122411 183.856381,35.5026028 183.753516,35.7734375 C183.650651,36.0442722 183.508725,36.2799469 183.327734,36.4804688 C183.146744,36.6809906 182.933204,36.8391921 182.687109,36.9550781 C182.441014,37.0709641 182.176043,37.1289062 181.892188,37.1289062 C181.610936,37.1289062 181.348569,37.0787765 181.105078,36.9785156 C180.861587,36.8782547 180.64935,36.7382821 180.468359,36.5585938 C180.287369,36.3789054 180.144792,36.1647148 180.040625,35.9160156 C179.936458,35.6673165 179.884375,35.3945327 179.884375,35.0976562 C179.884375,34.7825505 179.935807,34.4889337 180.038672,34.2167969 C180.141537,33.9446601 180.282812,33.7089854 180.4625,33.5097656 C180.642188,33.3105459 180.854426,33.1542974 181.099219,33.0410156 C181.344012,32.9277338 181.608332,32.8710938 181.892188,32.8710938 Z M186.471875,33.1757812 C186.260936,33.1757812 186.0806,33.2226558 185.930859,33.3164062 C185.781119,33.4101567 185.658073,33.5351555 185.561719,33.6914062 C185.465364,33.847657 185.394401,34.0273427 185.348828,34.2304688 C185.303255,34.4335948 185.280469,34.6445302 185.280469,34.8632812 C185.280469,35.1106783 185.305859,35.3515613 185.356641,35.5859375 C185.407422,35.8203137 185.484895,36.0279939 185.589063,36.2089844 C185.69323,36.3899749 185.824088,36.5351557 185.981641,36.6445312 C186.139194,36.7539068 186.323436,36.8085938 186.534375,36.8085938 C186.745314,36.8085938 186.923046,36.7610682 187.067578,36.6660156 C187.21211,36.5709631 187.329296,36.4453133 187.419141,36.2890625 C187.508985,36.1328117 187.573437,35.9544281 187.6125,35.7539062 C187.651563,35.5533844 187.671094,35.3476573 187.671094,35.1367188 C187.671094,34.8971342 187.648959,34.6601574 187.604688,34.4257812 C187.560416,34.1914051 187.490105,33.9817718 187.39375,33.796875 C187.297395,33.6119782 187.173048,33.4622402 187.020703,33.3476562 C186.868359,33.2330723 186.685418,33.1757812 186.471875,33.1757812 Z M186.471875,32.8710938 C186.753126,32.8710938 187.016145,32.9225255 187.260938,33.0253906 C187.50573,33.1282557 187.718619,33.2701814 187.899609,33.4511719 C188.0806,33.6321624 188.223828,33.847004 188.329297,34.0957031 C188.434766,34.3444023 188.4875,34.6132798 188.4875,34.9023438 C188.4875,35.2122411 188.436068,35.5026028 188.333203,35.7734375 C188.230338,36.0442722 188.088412,36.2799469 187.907422,36.4804688 C187.726431,36.6809906 187.512892,36.8391921 187.266797,36.9550781 C187.020702,37.0709641 186.755731,37.1289062 186.471875,37.1289062 C186.190624,37.1289062 185.928256,37.0787765 185.684766,36.9785156 C185.441275,36.8782547 185.229037,36.7382821 185.048047,36.5585938 C184.867056,36.3789054 184.72448,36.1647148 184.620313,35.9160156 C184.516145,35.6673165 184.464063,35.3945327 184.464063,35.0976562 C184.464063,34.7825505 184.515494,34.4889337 184.618359,34.2167969 C184.721224,33.9446601 184.862499,33.7089854 185.042188,33.5097656 C185.221876,33.3105459 185.434113,33.1542974 185.678906,33.0410156 C185.923699,32.9277338 186.188019,32.8710938 186.471875,32.8710938 Z M191.367969,33 L192.825,33 L192.825,33.2382812 C192.689583,33.2539063 192.560027,33.2923174 192.436328,33.3535156 C192.31263,33.4147138 192.196745,33.4869787 192.088672,33.5703125 C191.980598,33.6536463 191.88099,33.740885 191.789844,33.8320312 L191.54375,34.078125 L190.922656,34.734375 C191.026823,34.7838544 191.116666,34.8450517 191.192188,34.9179688 C191.267709,34.9908858 191.343229,35.0742183 191.41875,35.1679688 L191.985156,35.8945312 C192.000781,35.9153647 192.027474,35.9518227 192.065234,36.0039062 C192.102995,36.0559898 192.147265,36.113932 192.198047,36.1777344 C192.248828,36.2415368 192.305468,36.3079424 192.367969,36.3769531 C192.430469,36.4459639 192.494922,36.5091143 192.561328,36.5664062 C192.627735,36.6236982 192.69414,36.6705727 192.760547,36.7070312 C192.826953,36.7434898 192.891406,36.7617188 192.953906,36.7617188 L192.953906,37 L192.227344,37 C192.154427,37 192.082813,36.9785158 192.0125,36.9355469 C191.942187,36.8925779 191.872526,36.8359379 191.803516,36.765625 C191.734505,36.6953121 191.665495,36.6152348 191.596484,36.5253906 C191.527474,36.4355464 191.456511,36.3424484 191.383594,36.2460938 C191.172655,35.959634 190.994272,35.7115896 190.848438,35.5019531 C190.702603,35.2923167 190.577605,35.1380213 190.473438,35.0390625 L190.145313,35.0546875 L190.145313,36.1523438 C190.145313,36.2591151 190.14401,36.3535152 190.141406,36.4355469 C190.138802,36.5175785 190.129688,36.6041662 190.114063,36.6953125 L190.625781,36.671875 L190.625781,37 L188.992969,37 L188.992969,36.7617188 C189.115365,36.7617188 189.208463,36.7376304 189.272266,36.6894531 C189.336068,36.6412758 189.381641,36.5742192 189.408984,36.4882812 C189.436328,36.4023433 189.452604,36.2994798 189.457813,36.1796875 C189.463021,36.0598952 189.465625,34.66668 189.465625,32 C189.465625,31.9166662 189.466276,31.8359379 189.467578,31.7578125 C189.46888,31.6796871 189.476042,31.5872401 189.489063,31.4804688 L188.922656,31.5117188 L188.922656,31.1757812 C189.097136,31.1757812 189.241666,31.1699219 189.35625,31.1582031 C189.470834,31.1464843 189.564583,31.1302084 189.6375,31.109375 C189.710417,31.0885416 189.767057,31.0657553 189.807422,31.0410156 C189.847787,31.0162759 189.883594,30.9895835 189.914844,30.9609375 L190.145313,30.9609375 L190.145313,34.7421875 L190.465625,34.7421875 L191.442188,33.71875 C191.53073,33.6276037 191.61276,33.5462243 191.688281,33.4746094 C191.763802,33.4029944 191.839323,33.3437502 191.914844,33.296875 L191.367969,33.3203125 L191.367969,33 Z" id="book"></path>
        </g>
    </g>
</svg>