<?xml version="1.0" encoding="UTF-8" standalone="no"?>
<svg width="25px" height="8px" viewBox="0 0 25 8" version="1.1" xmlns="http://www.w3.org/2000/svg" xmlns:xlink="http://www.w3.org/1999/xlink">
    <!-- Generator: Sketch 41.2 (35397) - http://www.bohemiancoding.com/sketch -->
    <title>doctor</title>
    <desc>Created with Sketch.</desc>
    <defs></defs>
    <g id="letters" stroke="none" stroke-width="1" fill="none" fill-rule="evenodd">
        <g id="Overview" transform="translate(-558.000000, -30.000000)" fill="#000000">
            <path d="M562.15067,36.1523438 C562.15067,36.2356775 562.148717,36.319661 562.14481,36.4042969 C562.140904,36.4889327 562.132441,36.585937 562.11942,36.6953125 L562.685826,36.6640625 L562.685826,37 L561.541295,37 C561.528274,36.9218746 561.517857,36.8489587 561.510045,36.78125 C561.502232,36.7135413 561.495722,36.6471357 561.490513,36.5820312 C561.336867,36.7486988 561.151322,36.8815099 560.933873,36.9804688 C560.716424,37.0794276 560.473588,37.1289062 560.205357,37.1289062 C559.95796,37.1289062 559.729447,37.0820317 559.51981,36.9882812 C559.310174,36.8945308 559.127884,36.7604175 558.972935,36.5859375 C558.817987,36.4114575 558.696894,36.199871 558.609654,35.9511719 C558.522414,35.7024727 558.478795,35.4231786 558.478795,35.1132812 C558.478795,34.7877588 558.530226,34.4876316 558.633092,34.2128906 C558.735957,33.9381497 558.878533,33.7011729 559.060826,33.5019531 C559.243118,33.3027334 559.459913,33.147787 559.711217,33.0371094 C559.96252,32.9264317 560.236606,32.8710938 560.533482,32.8710938 C560.622024,32.8710938 560.710565,32.8776041 560.799107,32.890625 C560.887649,32.9036459 560.972935,32.9205728 561.054967,32.9414062 C561.136998,32.9622397 561.213169,32.985677 561.283482,33.0117188 C561.353795,33.0377605 561.414992,33.065104 561.467076,33.09375 L561.470982,32 C561.470982,31.9166662 561.471633,31.8359379 561.472935,31.7578125 C561.474237,31.6796871 561.481399,31.5872401 561.49442,31.4804688 L560.928013,31.5117188 L560.928013,31.1757812 C561.102493,31.1757812 561.247023,31.1699219 561.361607,31.1582031 C561.476191,31.1464843 561.56994,31.1302084 561.642857,31.109375 C561.715774,31.0885416 561.772414,31.0657553 561.812779,31.0410156 C561.853144,31.0162759 561.888951,30.9895835 561.920201,30.9609375 L562.15067,30.9609375 L562.15067,36.1523438 Z M560.49442,36.734375 C560.582962,36.734375 560.672805,36.7213543 560.763951,36.6953125 C560.855097,36.6692707 560.942987,36.6328127 561.027623,36.5859375 C561.112259,36.5390623 561.191685,36.4837243 561.265904,36.4199219 C561.340123,36.3561195 561.40718,36.2864587 561.467076,36.2109375 C561.464472,36.145833 561.46317,36.0768233 561.46317,36.0039062 L561.46317,35.7695312 L561.467076,33.4648438 C561.339471,33.3658849 561.20015,33.2949221 561.049107,33.2519531 C560.898065,33.2089842 560.743118,33.1875 560.584263,33.1875 C560.383742,33.1875 560.202754,33.2317704 560.041295,33.3203125 C559.879836,33.4088546 559.742467,33.5345044 559.629185,33.6972656 C559.515903,33.8600269 559.433222,34.0455719 559.381138,34.2539062 C559.329055,34.4622406 559.303013,34.7239568 559.303013,35.0390625 C559.303013,35.2552094 559.33231,35.4746083 559.390904,35.6972656 C559.449498,35.919923 559.528924,36.106119 559.629185,36.2558594 C559.729446,36.4055997 559.851841,36.522786 559.996373,36.6074219 C560.140905,36.6920577 560.306919,36.734375 560.49442,36.734375 Z M565.163951,33.1757812 C564.953012,33.1757812 564.772676,33.2226558 564.622935,33.3164062 C564.473195,33.4101567 564.350149,33.5351555 564.253795,33.6914062 C564.15744,33.847657 564.086477,34.0273427 564.040904,34.2304688 C563.995331,34.4335948 563.972545,34.6445302 563.972545,34.8632812 C563.972545,35.1106783 563.997935,35.3515613 564.048717,35.5859375 C564.099498,35.8203137 564.176971,36.0279939 564.281138,36.2089844 C564.385306,36.3899749 564.516164,36.5351557 564.673717,36.6445312 C564.831269,36.7539068 565.015512,36.8085938 565.226451,36.8085938 C565.437389,36.8085938 565.615122,36.7610682 565.759654,36.6660156 C565.904186,36.5709631 566.021372,36.4453133 566.111217,36.2890625 C566.201061,36.1328117 566.265513,35.9544281 566.304576,35.7539062 C566.343639,35.5533844 566.36317,35.3476573 566.36317,35.1367188 C566.36317,34.8971342 566.341034,34.6601574 566.296763,34.4257812 C566.252492,34.1914051 566.182181,33.9817718 566.085826,33.796875 C565.989471,33.6119782 565.865124,33.4622402 565.712779,33.3476562 C565.560435,33.2330723 565.377494,33.1757812 565.163951,33.1757812 Z M565.163951,32.8710938 C565.445202,32.8710938 565.708221,32.9225255 565.953013,33.0253906 C566.197806,33.1282557 566.410695,33.2701814 566.591685,33.4511719 C566.772676,33.6321624 566.915903,33.847004 567.021373,34.0957031 C567.126842,34.3444023 567.179576,34.6132798 567.179576,34.9023438 C567.179576,35.2122411 567.128144,35.5026028 567.025279,35.7734375 C566.922414,36.0442722 566.780488,36.2799469 566.599498,36.4804688 C566.418507,36.6809906 566.204968,36.8391921 565.958873,36.9550781 C565.712778,37.0709641 565.447806,37.1289062 565.163951,37.1289062 C564.882699,37.1289062 564.620332,37.0787765 564.376842,36.9785156 C564.133351,36.8782547 563.921113,36.7382821 563.740123,36.5585938 C563.559132,36.3789054 563.416556,36.1647148 563.312388,35.9160156 C563.208221,35.6673165 563.156138,35.3945327 563.156138,35.0976562 C563.156138,34.7825505 563.20757,34.4889337 563.310435,34.2167969 C563.4133,33.9446601 563.554575,33.7089854 563.734263,33.5097656 C563.913952,33.3105459 564.126189,33.1542974 564.370982,33.0410156 C564.615775,32.9277338 564.880095,32.8710938 565.163951,32.8710938 Z M570.681138,33.5976562 C570.64468,33.5039058 570.591295,33.4290367 570.520982,33.3730469 C570.450669,33.317057 570.374498,33.2734377 570.292467,33.2421875 C570.210435,33.2109373 570.128404,33.1907553 570.046373,33.1816406 C569.964341,33.172526 569.895982,33.1679688 569.841295,33.1679688 C569.659002,33.1679688 569.489082,33.2050778 569.331529,33.2792969 C569.173976,33.353516 569.03791,33.4622389 568.923326,33.6054688 C568.808742,33.7486986 568.718248,33.9270823 568.651842,34.140625 C568.585435,34.3541677 568.552232,34.598957 568.552232,34.875 C568.552232,35.1406263 568.585435,35.3860666 568.651842,35.6113281 C568.718248,35.8365897 568.811346,36.0305981 568.931138,36.1933594 C569.050931,36.3561206 569.19546,36.4830725 569.364732,36.5742188 C569.534004,36.665365 569.721502,36.7109375 569.927232,36.7109375 C570.052233,36.7109375 570.175929,36.6933596 570.298326,36.6582031 C570.420722,36.6230467 570.536607,36.5742191 570.645982,36.5117188 C570.755358,36.4492184 570.856268,36.3763025 570.948717,36.2929688 C571.041165,36.209635 571.11994,36.1197921 571.185045,36.0234375 L571.392076,36.1835938 C571.285305,36.3502613 571.163561,36.4928379 571.026842,36.6113281 C570.890122,36.7298183 570.746894,36.8274736 570.597154,36.9042969 C570.447414,36.9811202 570.296374,37.0377602 570.144029,37.0742188 C569.991685,37.1106773 569.847806,37.1289062 569.712388,37.1289062 C569.441554,37.1289062 569.186348,37.0826828 568.946763,36.9902344 C568.707179,36.897786 568.497546,36.7636728 568.317857,36.5878906 C568.138169,36.4121085 567.996243,36.1966159 567.892076,35.9414062 C567.787909,35.6861966 567.735826,35.395835 567.735826,35.0703125 C567.735826,34.8854157 567.758612,34.7031259 567.804185,34.5234375 C567.849758,34.3437491 567.915513,34.1725269 568.001451,34.0097656 C568.087389,33.8470044 568.191554,33.6959642 568.313951,33.5566406 C568.436347,33.417317 568.575018,33.2968755 568.729967,33.1953125 C568.884915,33.0937495 569.054184,33.0143232 569.237779,32.9570312 C569.421374,32.8997393 569.616033,32.8710938 569.821763,32.8710938 C570.043119,32.8710938 570.24494,32.8984372 570.427232,32.953125 C570.609525,33.0078128 570.765773,33.0807287 570.895982,33.171875 C571.026191,33.2630213 571.126451,33.3678379 571.196763,33.4863281 C571.267076,33.6048183 571.302232,33.729166 571.302232,33.859375 C571.302232,33.9739589 571.270331,34.0722652 571.206529,34.1542969 C571.142727,34.2363285 571.050931,34.2786458 570.931138,34.28125 C570.860826,34.2838542 570.802232,34.2727866 570.755357,34.2480469 C570.708482,34.2233072 570.670722,34.1927085 570.642076,34.15625 C570.61343,34.1197915 570.592597,34.0800783 570.579576,34.0371094 C570.566555,33.9941404 570.560045,33.9557293 570.560045,33.921875 C570.560045,33.8697914 570.568508,33.8151045 570.585435,33.7578125 C570.602362,33.7005205 570.634263,33.6471357 570.681138,33.5976562 Z M571.69442,33 C571.835045,32.9973958 571.962648,32.9589847 572.077232,32.8847656 C572.191816,32.8105465 572.292727,32.7180995 572.379967,32.6074219 C572.467207,32.4967442 572.540774,32.3763027 572.60067,32.2460938 C572.660566,32.1158848 572.70744,31.9934902 572.741295,31.8789062 L573.014732,31.8789062 C573.014732,32.092449 573.014081,32.2916657 573.012779,32.4765625 C573.011477,32.6614593 573.010826,32.8359367 573.010826,33 L574.358482,33 L574.358482,33.3125 L573.010826,33.328125 C573.008222,33.6744809 573.00692,33.9700509 573.00692,34.2148438 C573.00692,34.4596366 573.006269,34.6640617 573.004967,34.828125 C573.003664,34.9921883 573.003013,35.1217443 573.003013,35.2167969 C573.003013,35.3118494 573.002362,35.3841143 573.00106,35.4335938 C572.999758,35.4830732 572.999107,35.5149739 572.999107,35.5292969 L572.999107,35.5546875 C572.999107,35.7369801 573.008873,35.8977858 573.028404,36.0371094 C573.047935,36.176433 573.081138,36.2936193 573.128013,36.3886719 C573.174889,36.4837244 573.236737,36.5553383 573.31356,36.6035156 C573.390384,36.6516929 573.487388,36.6757812 573.604576,36.6757812 C573.742597,36.6757812 573.879315,36.634115 574.014732,36.5507812 C574.15015,36.4674475 574.26994,36.3489591 574.374107,36.1953125 L574.588951,36.3710938 C574.471763,36.548178 574.355228,36.6868485 574.239342,36.7871094 C574.123456,36.8873703 574.013431,36.9628904 573.909263,37.0136719 C573.805096,37.0644534 573.708092,37.0963541 573.618248,37.109375 C573.528404,37.1223959 573.449628,37.1289062 573.38192,37.1289062 C573.30119,37.1289062 573.218509,37.1223959 573.133873,37.109375 C573.049237,37.0963541 572.965904,37.0709637 572.883873,37.0332031 C572.801841,36.9954425 572.725019,36.9420576 572.653404,36.8730469 C572.581789,36.8040361 572.518639,36.7148443 572.463951,36.6054688 C572.409263,36.4960932 572.366295,36.363282 572.335045,36.2070312 C572.303795,36.0507805 572.289472,35.8658865 572.292076,35.6523438 L572.307701,33.3398438 L571.69442,33.34375 L571.69442,33 Z M576.860045,33.1757812 C576.649106,33.1757812 576.468769,33.2226558 576.319029,33.3164062 C576.169289,33.4101567 576.046243,33.5351555 575.949888,33.6914062 C575.853534,33.847657 575.782571,34.0273427 575.736998,34.2304688 C575.691425,34.4335948 575.668638,34.6445302 575.668638,34.8632812 C575.668638,35.1106783 575.694029,35.3515613 575.74481,35.5859375 C575.795592,35.8203137 575.873065,36.0279939 575.977232,36.2089844 C576.081399,36.3899749 576.212257,36.5351557 576.36981,36.6445312 C576.527363,36.7539068 576.711606,36.8085938 576.922545,36.8085938 C577.133483,36.8085938 577.311216,36.7610682 577.455748,36.6660156 C577.60028,36.5709631 577.717466,36.4453133 577.80731,36.2890625 C577.897154,36.1328117 577.961607,35.9544281 578.00067,35.7539062 C578.039732,35.5533844 578.059263,35.3476573 578.059263,35.1367188 C578.059263,34.8971342 578.037128,34.6601574 577.992857,34.4257812 C577.948586,34.1914051 577.878274,33.9817718 577.78192,33.796875 C577.685565,33.6119782 577.561217,33.4622402 577.408873,33.3476562 C577.256528,33.2330723 577.073587,33.1757812 576.860045,33.1757812 Z M576.860045,32.8710938 C577.141296,32.8710938 577.404314,32.9225255 577.649107,33.0253906 C577.8939,33.1282557 578.106789,33.2701814 578.287779,33.4511719 C578.46877,33.6321624 578.611997,33.847004 578.717467,34.0957031 C578.822936,34.3444023 578.87567,34.6132798 578.87567,34.9023438 C578.87567,35.2122411 578.824238,35.5026028 578.721373,35.7734375 C578.618508,36.0442722 578.476582,36.2799469 578.295592,36.4804688 C578.114601,36.6809906 577.901062,36.8391921 577.654967,36.9550781 C577.408872,37.0709641 577.1439,37.1289062 576.860045,37.1289062 C576.578793,37.1289062 576.316426,37.0787765 576.072935,36.9785156 C575.829444,36.8782547 575.617207,36.7382821 575.436217,36.5585938 C575.255226,36.3789054 575.112649,36.1647148 575.008482,35.9160156 C574.904315,35.6673165 574.852232,35.3945327 574.852232,35.0976562 C574.852232,34.7825505 574.903664,34.4889337 575.006529,34.2167969 C575.109394,33.9446601 575.250669,33.7089854 575.430357,33.5097656 C575.610046,33.3105459 575.822283,33.1542974 576.067076,33.0410156 C576.311869,32.9277338 576.576189,32.8710938 576.860045,32.8710938 Z M581.752232,33.3085938 C581.650669,33.3059896 581.547806,33.3248696 581.443638,33.3652344 C581.339471,33.4055992 581.237259,33.4648434 581.136998,33.5429688 C581.036737,33.6210941 580.942337,33.7148432 580.853795,33.8242188 C580.765253,33.9335943 580.685826,34.0546868 580.615513,34.1875 L580.623326,36.1523438 C580.623326,36.2591151 580.622024,36.3535152 580.61942,36.4355469 C580.616815,36.5175785 580.607701,36.6041662 580.592076,36.6953125 L581.095982,36.671875 L581.095982,37 L579.455357,37 L579.455357,36.7617188 C579.577754,36.7617188 579.670852,36.7376304 579.734654,36.6894531 C579.798456,36.6412758 579.84468,36.5742192 579.873326,36.4882812 C579.901972,36.4023433 579.918248,36.2994798 579.922154,36.1796875 C579.92606,36.0598952 579.928013,35.9283861 579.928013,35.7851562 L579.928013,33.9570312 C579.928013,33.8736975 579.929315,33.789714 579.93192,33.7050781 C579.934524,33.6204423 579.943638,33.5325525 579.959263,33.4414062 L579.392857,33.4648438 L579.392857,33.1367188 L579.638951,33.1367188 C579.753535,33.1367188 579.848586,33.1308594 579.924107,33.1191406 C579.999628,33.1074218 580.062779,33.0911459 580.11356,33.0703125 C580.164342,33.0494791 580.206659,33.0266928 580.240513,33.0019531 C580.274368,32.9772134 580.30692,32.950521 580.33817,32.921875 L580.568638,32.921875 C580.576451,33.0052088 580.583612,33.1087233 580.590123,33.2324219 C580.596633,33.3561204 580.602493,33.515624 580.607701,33.7109375 C580.667597,33.6119787 580.744419,33.5123703 580.83817,33.4121094 C580.93192,33.3118485 581.037388,33.2220056 581.154576,33.1425781 C581.271764,33.0631506 581.398065,32.9980471 581.533482,32.9472656 C581.6689,32.8964841 581.808221,32.8710938 581.951451,32.8710938 C582.024368,32.8710938 582.095331,32.8808593 582.164342,32.9003906 C582.233352,32.919922 582.293248,32.9505206 582.344029,32.9921875 C582.394811,33.0338544 582.435826,33.0859372 582.467076,33.1484375 C582.498326,33.2109378 582.513951,33.2864579 582.513951,33.375 C582.513951,33.4114585 582.50679,33.4518227 582.492467,33.4960938 C582.478144,33.5403648 582.454706,33.5820311 582.422154,33.6210938 C582.389602,33.6601564 582.348587,33.6927082 582.299107,33.71875 C582.249628,33.7447918 582.18843,33.7578125 582.115513,33.7578125 C582.055617,33.7578125 582.001581,33.7447918 581.953404,33.71875 C581.905227,33.6927082 581.864863,33.6595054 581.83231,33.6191406 C581.799758,33.5787758 581.776321,33.5319013 581.761998,33.4785156 C581.747675,33.4251299 581.74442,33.3684899 581.752232,33.3085938 Z" id="doctor"></path>
        </g>
    </g>
</svg>