<?xml version="1.0" encoding="UTF-8" standalone="no"?>
<svg width="33px" height="9px" viewBox="0 0 33 9" version="1.1" xmlns="http://www.w3.org/2000/svg" xmlns:xlink="http://www.w3.org/1999/xlink">
    <!-- Generator: Sketch 41.2 (35397) - http://www.bohemiancoding.com/sketch -->
    <title>engineer</title>
    <desc>Created with Sketch.</desc>
    <defs></defs>
    <g id="letters" stroke="none" stroke-width="1" fill="none" fill-rule="evenodd">
        <g id="Overview" transform="translate(-663.000000, -31.000000)" fill="#000000">
            <path d="M665.930804,33.1835938 C665.618302,33.1835938 665.360492,33.2753897 665.157366,33.4589844 C664.95424,33.642579 664.820127,33.9401021 664.755022,34.3515625 L666.794085,34.3515625 C666.794085,34.2109368 666.77846,34.0709642 666.74721,33.9316406 C666.71596,33.792317 666.66583,33.6673183 666.596819,33.5566406 C666.527808,33.445963 666.438617,33.3561201 666.329241,33.2871094 C666.219866,33.2180986 666.087054,33.1835938 665.930804,33.1835938 Z M667.547991,34.640625 L664.731585,34.6875 C664.728981,34.9947932 664.752418,35.2734363 664.801897,35.5234375 C664.851377,35.7734387 664.929501,35.9869783 665.036272,36.1640625 C665.143044,36.3411467 665.280412,36.4778641 665.448382,36.5742188 C665.616351,36.6705734 665.817521,36.71875 666.051897,36.71875 C666.176898,36.71875 666.304501,36.7018231 666.43471,36.6679688 C666.564919,36.6341144 666.690569,36.5878909 666.811663,36.5292969 C666.932757,36.4707028 667.044084,36.400391 667.145647,36.3183594 C667.24721,36.2363277 667.331845,36.148438 667.399554,36.0546875 L667.594866,36.2148438 C667.485491,36.3815113 667.358539,36.5227859 667.214007,36.6386719 C667.069475,36.7545579 666.919737,36.848958 666.764788,36.921875 C666.609839,36.994792 666.454242,37.0475259 666.297991,37.0800781 C666.14174,37.1126304 665.995908,37.1289062 665.860491,37.1289062 C665.584448,37.1289062 665.327289,37.0794276 665.089007,36.9804688 C664.850724,36.8815099 664.644346,36.7395843 664.469866,36.5546875 C664.295386,36.3697907 664.158018,36.1471367 664.057757,35.8867188 C663.957496,35.6263008 663.907366,35.333335 663.907366,35.0078125 C663.907366,34.7265611 663.955543,34.4576836 664.051897,34.2011719 C664.148252,33.9446602 664.284969,33.7174489 664.462054,33.5195312 C664.639138,33.3216136 664.851375,33.1640631 665.098772,33.046875 C665.346169,32.9296869 665.620906,32.8710938 665.922991,32.8710938 C666.144346,32.8710938 666.353329,32.9075517 666.549944,32.9804688 C666.74656,33.0533858 666.919084,33.1627597 667.067522,33.3085938 C667.215961,33.4544278 667.333147,33.6386708 667.419085,33.8613281 C667.505023,34.0839855 667.547991,34.3437485 667.547991,34.640625 Z M668.639397,33.9609375 C668.639397,33.8776037 668.640699,33.7929692 668.643304,33.7070312 C668.645908,33.6210933 668.655022,33.5325525 668.670647,33.4414062 L668.104241,33.4726562 L668.104241,33.1367188 C668.278721,33.1367188 668.420647,33.1308594 668.530022,33.1191406 C668.639398,33.1074218 668.727288,33.0911459 668.793694,33.0703125 C668.860101,33.0494791 668.911533,33.0266928 668.947991,33.0019531 C668.98445,32.9772134 669.018303,32.950521 669.049554,32.921875 L669.280022,32.921875 C669.285231,32.9817711 669.29109,33.0501298 669.2976,33.1269531 C669.304111,33.2037764 669.30997,33.2968745 669.315179,33.40625 C669.401117,33.3307288 669.495517,33.260417 669.598382,33.1953125 C669.701247,33.130208 669.808668,33.0735679 669.920647,33.0253906 C670.032627,32.9772133 670.14786,32.9394533 670.26635,32.9121094 C670.384841,32.8847655 670.501376,32.8710938 670.61596,32.8710938 C671.079504,32.8710938 671.418042,33.0162746 671.631585,33.3066406 C671.845128,33.5970067 671.951897,34.048174 671.951897,34.6601562 L671.951897,36.1523438 C671.951897,36.2591151 671.950595,36.3535152 671.947991,36.4355469 C671.945387,36.5175785 671.936272,36.6041662 671.920647,36.6953125 L672.424554,36.671875 L672.424554,37 L670.791741,37 L670.791741,36.7617188 C670.914138,36.7617188 671.007236,36.7376304 671.071038,36.6894531 C671.13484,36.6412758 671.181064,36.5742192 671.20971,36.4882812 C671.238356,36.4023433 671.254632,36.2994798 671.258538,36.1796875 C671.262444,36.0598952 671.264397,35.9283861 671.264397,35.7851562 L671.264397,34.6679688 C671.259189,34.2070289 671.183669,33.8600272 671.037835,33.6269531 C670.892001,33.393879 670.660232,33.2773438 670.342522,33.2773438 C670.246168,33.2773438 670.149814,33.2916665 670.05346,33.3203125 C669.957105,33.3489585 669.864658,33.3860675 669.776116,33.4316406 C669.687574,33.4772138 669.604241,33.5312497 669.526116,33.59375 C669.447991,33.6562503 669.380283,33.723958 669.322991,33.796875 C669.325595,33.8437502 669.326897,33.8938799 669.326897,33.9472656 L669.326897,34.109375 L669.319085,36.1523438 C669.319085,36.2591151 669.317783,36.3535152 669.315179,36.4355469 C669.312574,36.5175785 669.30346,36.6041662 669.287835,36.6953125 L669.791741,36.671875 L669.791741,37 L668.158929,37 L668.158929,36.7617188 C668.281325,36.7617188 668.374423,36.7376304 668.438225,36.6894531 C668.502028,36.6412758 668.5476,36.5742192 668.574944,36.4882812 C668.602288,36.4023433 668.617913,36.2994798 668.621819,36.1796875 C668.625725,36.0598952 668.628981,35.9283861 668.631585,35.7851562 L668.639397,33.9609375 Z M674.758147,37.2617188 C674.609709,37.2565104 674.466481,37.25 674.32846,37.2421875 C674.190438,37.234375 674.058929,37.2200522 673.933929,37.1992188 C673.78549,37.2955734 673.671559,37.4127597 673.592132,37.5507812 C673.512704,37.6888028 673.472991,37.8359367 673.472991,37.9921875 C673.472991,38.1250007 673.504892,38.2441401 673.568694,38.3496094 C673.632497,38.4550787 673.723642,38.5455725 673.842132,38.6210938 C673.960622,38.696615 674.10385,38.7545571 674.271819,38.7949219 C674.439789,38.8352867 674.626636,38.8554688 674.832366,38.8554688 C675.061534,38.8554688 675.26661,38.8320315 675.4476,38.7851562 C675.628591,38.738281 675.781584,38.6757816 675.906585,38.5976562 C676.031585,38.5195309 676.126637,38.429037 676.191741,38.3261719 C676.256846,38.2233068 676.289397,38.1145839 676.289397,38 C676.289397,37.8515618 676.250986,37.7311203 676.174163,37.6386719 C676.09734,37.5462235 675.99057,37.4733076 675.85385,37.4199219 C675.717131,37.3665362 675.555674,37.3287762 675.369475,37.3066406 C675.183277,37.2845051 674.979503,37.2695313 674.758147,37.2617188 Z M674.687835,33.1523438 C674.544605,33.1523438 674.417002,33.1809893 674.305022,33.2382812 C674.193043,33.2955732 674.098643,33.3749995 674.021819,33.4765625 C673.944996,33.5781255 673.886403,33.697916 673.846038,33.8359375 C673.805673,33.973959 673.785491,34.122395 673.785491,34.28125 C673.785491,34.4739593 673.806324,34.6490878 673.847991,34.8066406 C673.889658,34.9641935 673.950855,35.1002598 674.031585,35.2148438 C674.112314,35.3294277 674.211272,35.4179684 674.32846,35.4804688 C674.445648,35.5429691 674.578459,35.5742188 674.726897,35.5742188 C674.875336,35.5742188 675.004892,35.5468753 675.115569,35.4921875 C675.226247,35.4374997 675.318694,35.3613286 675.392913,35.2636719 C675.467132,35.1660151 675.523121,35.0501309 675.560882,34.9160156 C675.598642,34.7819004 675.617522,34.6367195 675.617522,34.4804688 C675.617522,34.3059887 675.597991,34.1380216 675.558929,33.9765625 C675.519866,33.8151034 675.461273,33.6738287 675.383147,33.5527344 C675.305022,33.43164 675.208018,33.3346358 675.092132,33.2617188 C674.976246,33.1888017 674.841481,33.1523438 674.687835,33.1523438 Z M676.437835,32.8398438 C676.370126,32.8502605 676.310231,32.8717446 676.258147,32.9042969 C676.206064,32.9368491 676.160491,32.9778643 676.121429,33.0273438 C676.082366,33.0768232 676.050465,33.1308591 676.025725,33.1894531 C676.000986,33.2480472 675.982106,33.3072914 675.969085,33.3671875 C676.101898,33.4895839 676.206715,33.6328117 676.283538,33.796875 C676.360361,33.9609383 676.398772,34.1354157 676.398772,34.3203125 C676.398772,34.5468761 676.352549,34.7545563 676.2601,34.9433594 C676.167652,35.1321624 676.043304,35.2949212 675.887054,35.4316406 C675.730803,35.5683601 675.550466,35.6744788 675.346038,35.75 C675.14161,35.8255212 674.927419,35.8632812 674.70346,35.8632812 C674.604501,35.8632812 674.516611,35.8567709 674.439788,35.84375 C674.362965,35.8307291 674.272471,35.8242188 674.168304,35.8242188 C674.069345,35.8242188 673.978851,35.8372395 673.896819,35.8632812 C673.814788,35.889323 673.745778,35.92513 673.689788,35.9707031 C673.633798,36.0162763 673.596689,36.0605467 673.57846,36.1035156 C673.560231,36.1464846 673.551116,36.1835936 673.551116,36.2148438 C673.551116,36.2460939 673.556324,36.2786457 673.566741,36.3125 C673.58497,36.3750003 673.627288,36.4257811 673.693694,36.4648438 C673.760101,36.5039064 673.846688,36.5345051 673.95346,36.5566406 C674.060231,36.5787762 674.187183,36.595052 674.334319,36.6054688 C674.481455,36.6158855 674.647469,36.625 674.832366,36.6328125 C675.139659,36.6458334 675.415047,36.67513 675.658538,36.7207031 C675.902029,36.7662763 676.108407,36.835286 676.277679,36.9277344 C676.44695,37.0201828 676.576506,37.1399732 676.66635,37.2871094 C676.756195,37.4342455 676.801116,37.6158843 676.801116,37.8320312 C676.801116,38.0481782 676.743174,38.2389315 676.627288,38.4042969 C676.511402,38.5696623 676.360362,38.7089838 676.174163,38.8222656 C675.987964,38.9355474 675.778331,39.0214841 675.545257,39.0800781 C675.312183,39.1386722 675.077159,39.1679688 674.840179,39.1679688 C674.480802,39.1679688 674.174164,39.1367191 673.920257,39.0742188 C673.666349,39.0117184 673.459971,38.929037 673.301116,38.8261719 C673.142261,38.7233068 673.026377,38.6074225 672.95346,38.4785156 C672.880543,38.3496087 672.844085,38.2187507 672.844085,38.0859375 C672.844085,37.9635411 672.867522,37.851563 672.914397,37.75 C672.961273,37.648437 673.020517,37.5572921 673.092132,37.4765625 C673.163747,37.3958329 673.243173,37.3261722 673.330413,37.2675781 C673.417653,37.2089841 673.501637,37.1614585 673.582366,37.125 C673.41049,37.0729164 673.275075,36.9980474 673.176116,36.9003906 C673.077157,36.8027339 673.027679,36.6679696 673.027679,36.4960938 C673.027679,36.4023433 673.04721,36.3105473 673.086272,36.2207031 C673.125335,36.1308589 673.180022,36.0481775 673.250335,35.9726562 C673.320648,35.897135 673.404631,35.8333336 673.502288,35.78125 C673.599945,35.7291664 673.707365,35.6927084 673.824554,35.671875 C673.702157,35.614583 673.591481,35.5449223 673.492522,35.4628906 C673.393564,35.380859 673.308929,35.288412 673.238616,35.1855469 C673.168303,35.0826818 673.114267,34.9700527 673.076507,34.8476562 C673.038746,34.7252598 673.019866,34.5937507 673.019866,34.453125 C673.019866,34.2135405 673.068694,33.9960947 673.16635,33.8007812 C673.264007,33.6054678 673.39161,33.4388028 673.549163,33.3007812 C673.706716,33.1627597 673.886402,33.056641 674.088225,32.9824219 C674.290049,32.9082028 674.495125,32.8710938 674.70346,32.8710938 C674.883148,32.8710938 675.06023,32.8964841 675.23471,32.9472656 C675.40919,32.9980471 675.570647,33.0729162 675.719085,33.171875 C675.758148,33.0598953 675.811532,32.9557296 675.879241,32.859375 C675.94695,32.7630204 676.023121,32.6803389 676.107757,32.6113281 C676.192393,32.5423174 676.284189,32.4882814 676.383147,32.4492188 C676.482106,32.4101561 676.58497,32.390625 676.691741,32.390625 C676.827158,32.390625 676.931975,32.4257809 677.006194,32.4960938 C677.080413,32.5664066 677.117522,32.6640619 677.117522,32.7890625 C677.117522,32.8203127 677.111012,32.8554686 677.097991,32.8945312 C677.08497,32.9335939 677.064788,32.9700519 677.037444,33.0039062 C677.0101,33.0377606 676.974293,33.0664061 676.930022,33.0898438 C676.885751,33.1132814 676.832366,33.1236979 676.769866,33.1210938 C676.67872,33.1184896 676.604502,33.0904951 676.54721,33.0371094 C676.489918,32.9837237 676.45346,32.9179691 676.437835,32.8398438 Z M677.908147,33.9609375 C677.908147,33.8776037 677.9101,33.7968754 677.914007,33.71875 C677.917913,33.6406246 677.926376,33.5481776 677.939397,33.4414062 L677.372991,33.4726562 L677.372991,33.1367188 C677.547471,33.1367188 677.692001,33.1308594 677.806585,33.1191406 C677.921169,33.1074218 678.014918,33.0911459 678.087835,33.0703125 C678.160752,33.0494791 678.217392,33.0266928 678.257757,33.0019531 C678.298121,32.9772134 678.333928,32.950521 678.365179,32.921875 L678.595647,32.921875 L678.595647,36.1523438 C678.595647,36.2591151 678.594345,36.3535152 678.591741,36.4355469 C678.589137,36.5175785 678.580022,36.6041662 678.564397,36.6953125 L679.068304,36.671875 L679.068304,37 L677.435491,37 L677.435491,36.7617188 C677.557888,36.7617188 677.650986,36.7376304 677.714788,36.6894531 C677.77859,36.6412758 677.824814,36.5742192 677.85346,36.4882812 C677.882106,36.4023433 677.898382,36.2994798 677.902288,36.1796875 C677.906194,36.0598952 677.908147,35.9283861 677.908147,35.7851562 L677.908147,33.9609375 Z M678.669866,31.65625 C678.669866,31.7213545 678.657496,31.7825518 678.632757,31.8398438 C678.608017,31.8971357 678.576116,31.9472654 678.537054,31.9902344 C678.497991,32.0332033 678.452418,32.0664061 678.400335,32.0898438 C678.348251,32.1132814 678.293564,32.125 678.236272,32.125 C678.17898,32.125 678.124293,32.1132814 678.07221,32.0898438 C678.020126,32.0664061 677.973903,32.0332033 677.933538,31.9902344 C677.893173,31.9472654 677.861923,31.8971357 677.839788,31.8398438 C677.817652,31.7825518 677.806585,31.7213545 677.806585,31.65625 C677.806585,31.5885413 677.818303,31.5253909 677.841741,31.4667969 C677.865179,31.4082028 677.897079,31.3567711 677.937444,31.3125 C677.977809,31.2682289 678.024032,31.2337241 678.076116,31.2089844 C678.1282,31.1842447 678.184189,31.171875 678.244085,31.171875 C678.303981,31.171875 678.359319,31.1842447 678.4101,31.2089844 C678.460882,31.2337241 678.505803,31.2682289 678.544866,31.3125 C678.583929,31.3567711 678.614527,31.4082028 678.636663,31.4667969 C678.658798,31.5253909 678.669866,31.5885413 678.669866,31.65625 Z M680.062054,33.9609375 C680.062054,33.8776037 680.063356,33.7929692 680.06596,33.7070312 C680.068564,33.6210933 680.077679,33.5325525 680.093304,33.4414062 L679.526897,33.4726562 L679.526897,33.1367188 C679.701377,33.1367188 679.843303,33.1308594 679.952679,33.1191406 C680.062054,33.1074218 680.149944,33.0911459 680.21635,33.0703125 C680.282757,33.0494791 680.334189,33.0266928 680.370647,33.0019531 C680.407106,32.9772134 680.44096,32.950521 680.47221,32.921875 L680.702679,32.921875 C680.707887,32.9817711 680.713746,33.0501298 680.720257,33.1269531 C680.726767,33.2037764 680.732626,33.2968745 680.737835,33.40625 C680.823773,33.3307288 680.918173,33.260417 681.021038,33.1953125 C681.123903,33.130208 681.231324,33.0735679 681.343304,33.0253906 C681.455283,32.9772133 681.570517,32.9394533 681.689007,32.9121094 C681.807497,32.8847655 681.924032,32.8710938 682.038616,32.8710938 C682.50216,32.8710938 682.840698,33.0162746 683.054241,33.3066406 C683.267784,33.5970067 683.374554,34.048174 683.374554,34.6601562 L683.374554,36.1523438 C683.374554,36.2591151 683.373252,36.3535152 683.370647,36.4355469 C683.368043,36.5175785 683.358929,36.6041662 683.343304,36.6953125 L683.84721,36.671875 L683.84721,37 L682.214397,37 L682.214397,36.7617188 C682.336794,36.7617188 682.429892,36.7376304 682.493694,36.6894531 C682.557497,36.6412758 682.60372,36.5742192 682.632366,36.4882812 C682.661012,36.4023433 682.677288,36.2994798 682.681194,36.1796875 C682.6851,36.0598952 682.687054,35.9283861 682.687054,35.7851562 L682.687054,34.6679688 C682.681845,34.2070289 682.606325,33.8600272 682.460491,33.6269531 C682.314657,33.393879 682.082889,33.2773438 681.765179,33.2773438 C681.668824,33.2773438 681.572471,33.2916665 681.476116,33.3203125 C681.379761,33.3489585 681.287314,33.3860675 681.198772,33.4316406 C681.11023,33.4772138 681.026898,33.5312497 680.948772,33.59375 C680.870647,33.6562503 680.802939,33.723958 680.745647,33.796875 C680.748252,33.8437502 680.749554,33.8938799 680.749554,33.9472656 L680.749554,34.109375 L680.741741,36.1523438 C680.741741,36.2591151 680.740439,36.3535152 680.737835,36.4355469 C680.735231,36.5175785 680.726116,36.6041662 680.710491,36.6953125 L681.214397,36.671875 L681.214397,37 L679.581585,37 L679.581585,36.7617188 C679.703981,36.7617188 679.797079,36.7376304 679.860882,36.6894531 C679.924684,36.6412758 679.970257,36.5742192 679.9976,36.4882812 C680.024944,36.4023433 680.040569,36.2994798 680.044475,36.1796875 C680.048382,36.0598952 680.051637,35.9283861 680.054241,35.7851562 L680.062054,33.9609375 Z M686.344866,33.1835938 C686.032365,33.1835938 685.774555,33.2753897 685.571429,33.4589844 C685.368303,33.642579 685.234189,33.9401021 685.169085,34.3515625 L687.208147,34.3515625 C687.208147,34.2109368 687.192523,34.0709642 687.161272,33.9316406 C687.130022,33.792317 687.079892,33.6673183 687.010882,33.5566406 C686.941871,33.445963 686.852679,33.3561201 686.743304,33.2871094 C686.633928,33.2180986 686.501117,33.1835938 686.344866,33.1835938 Z M687.962054,34.640625 L685.145647,34.6875 C685.143043,34.9947932 685.16648,35.2734363 685.21596,35.5234375 C685.265439,35.7734387 685.343563,35.9869783 685.450335,36.1640625 C685.557106,36.3411467 685.694475,36.4778641 685.862444,36.5742188 C686.030414,36.6705734 686.231584,36.71875 686.46596,36.71875 C686.59096,36.71875 686.718563,36.7018231 686.848772,36.6679688 C686.978981,36.6341144 687.104631,36.5878909 687.225725,36.5292969 C687.34682,36.4707028 687.458147,36.400391 687.55971,36.3183594 C687.661273,36.2363277 687.745907,36.148438 687.813616,36.0546875 L688.008929,36.2148438 C687.899553,36.3815113 687.772601,36.5227859 687.628069,36.6386719 C687.483537,36.7545579 687.333799,36.848958 687.17885,36.921875 C687.023902,36.994792 686.868304,37.0475259 686.712054,37.0800781 C686.555803,37.1126304 686.409971,37.1289062 686.274554,37.1289062 C685.998511,37.1289062 685.741352,37.0794276 685.503069,36.9804688 C685.264787,36.8815099 685.058409,36.7395843 684.883929,36.5546875 C684.709449,36.3697907 684.57208,36.1471367 684.471819,35.8867188 C684.371558,35.6263008 684.321429,35.333335 684.321429,35.0078125 C684.321429,34.7265611 684.369605,34.4576836 684.46596,34.2011719 C684.562314,33.9446602 684.699032,33.7174489 684.876116,33.5195312 C685.0532,33.3216136 685.265438,33.1640631 685.512835,33.046875 C685.760232,32.9296869 686.034969,32.8710938 686.337054,32.8710938 C686.558409,32.8710938 686.767391,32.9075517 686.964007,32.9804688 C687.160622,33.0533858 687.333147,33.1627597 687.481585,33.3085938 C687.630023,33.4544278 687.747209,33.6386708 687.833147,33.8613281 C687.919085,34.0839855 687.962054,34.3437485 687.962054,34.640625 Z M690.541741,33.1835938 C690.22924,33.1835938 689.97143,33.2753897 689.768304,33.4589844 C689.565178,33.642579 689.431064,33.9401021 689.36596,34.3515625 L691.405022,34.3515625 C691.405022,34.2109368 691.389398,34.0709642 691.358147,33.9316406 C691.326897,33.792317 691.276767,33.6673183 691.207757,33.5566406 C691.138746,33.445963 691.049554,33.3561201 690.940179,33.2871094 C690.830803,33.2180986 690.697992,33.1835938 690.541741,33.1835938 Z M692.158929,34.640625 L689.342522,34.6875 C689.339918,34.9947932 689.363355,35.2734363 689.412835,35.5234375 C689.462314,35.7734387 689.540438,35.9869783 689.64721,36.1640625 C689.753981,36.3411467 689.89135,36.4778641 690.059319,36.5742188 C690.227289,36.6705734 690.428459,36.71875 690.662835,36.71875 C690.787835,36.71875 690.915438,36.7018231 691.045647,36.6679688 C691.175856,36.6341144 691.301506,36.5878909 691.4226,36.5292969 C691.543695,36.4707028 691.655022,36.400391 691.756585,36.3183594 C691.858148,36.2363277 691.942782,36.148438 692.010491,36.0546875 L692.205804,36.2148438 C692.096428,36.3815113 691.969476,36.5227859 691.824944,36.6386719 C691.680412,36.7545579 691.530674,36.848958 691.375725,36.921875 C691.220777,36.994792 691.065179,37.0475259 690.908929,37.0800781 C690.752678,37.1126304 690.606846,37.1289062 690.471429,37.1289062 C690.195386,37.1289062 689.938227,37.0794276 689.699944,36.9804688 C689.461662,36.8815099 689.255284,36.7395843 689.080804,36.5546875 C688.906324,36.3697907 688.768955,36.1471367 688.668694,35.8867188 C688.568433,35.6263008 688.518304,35.333335 688.518304,35.0078125 C688.518304,34.7265611 688.56648,34.4576836 688.662835,34.2011719 C688.75919,33.9446602 688.895907,33.7174489 689.072991,33.5195312 C689.250075,33.3216136 689.462313,33.1640631 689.70971,33.046875 C689.957107,32.9296869 690.231844,32.8710938 690.533929,32.8710938 C690.755284,32.8710938 690.964266,32.9075517 691.160882,32.9804688 C691.357497,33.0533858 691.530022,33.1627597 691.67846,33.3085938 C691.826898,33.4544278 691.944084,33.6386708 692.030022,33.8613281 C692.11596,34.0839855 692.158929,34.3437485 692.158929,34.640625 Z M695.066741,33.3085938 C694.965178,33.3059896 694.862315,33.3248696 694.758147,33.3652344 C694.65398,33.4055992 694.551768,33.4648434 694.451507,33.5429688 C694.351246,33.6210941 694.256846,33.7148432 694.168304,33.8242188 C694.079762,33.9335943 694.000335,34.0546868 693.930022,34.1875 L693.937835,36.1523438 C693.937835,36.2591151 693.936533,36.3535152 693.933929,36.4355469 C693.931324,36.5175785 693.92221,36.6041662 693.906585,36.6953125 L694.410491,36.671875 L694.410491,37 L692.769866,37 L692.769866,36.7617188 C692.892263,36.7617188 692.985361,36.7376304 693.049163,36.6894531 C693.112965,36.6412758 693.159189,36.5742192 693.187835,36.4882812 C693.216481,36.4023433 693.232757,36.2994798 693.236663,36.1796875 C693.240569,36.0598952 693.242522,35.9283861 693.242522,35.7851562 L693.242522,33.9570312 C693.242522,33.8736975 693.243824,33.789714 693.246429,33.7050781 C693.249033,33.6204423 693.258147,33.5325525 693.273772,33.4414062 L692.707366,33.4648438 L692.707366,33.1367188 L692.95346,33.1367188 C693.068044,33.1367188 693.163095,33.1308594 693.238616,33.1191406 C693.314137,33.1074218 693.377288,33.0911459 693.428069,33.0703125 C693.478851,33.0494791 693.521168,33.0266928 693.555022,33.0019531 C693.588877,32.9772134 693.621428,32.950521 693.652679,32.921875 L693.883147,32.921875 C693.89096,33.0052088 693.898121,33.1087233 693.904632,33.2324219 C693.911142,33.3561204 693.917002,33.515624 693.92221,33.7109375 C693.982106,33.6119787 694.058928,33.5123703 694.152679,33.4121094 C694.246429,33.3118485 694.351897,33.2220056 694.469085,33.1425781 C694.586273,33.0631506 694.712574,32.9980471 694.847991,32.9472656 C694.983408,32.8964841 695.12273,32.8710938 695.26596,32.8710938 C695.338877,32.8710938 695.40984,32.8808593 695.47885,32.9003906 C695.547861,32.919922 695.607756,32.9505206 695.658538,32.9921875 C695.709319,33.0338544 695.750335,33.0859372 695.781585,33.1484375 C695.812835,33.2109378 695.82846,33.2864579 695.82846,33.375 C695.82846,33.4114585 695.821298,33.4518227 695.806975,33.4960938 C695.792652,33.5403648 695.769215,33.5820311 695.736663,33.6210938 C695.704111,33.6601564 695.663096,33.6927082 695.613616,33.71875 C695.564137,33.7447918 695.502939,33.7578125 695.430022,33.7578125 C695.370126,33.7578125 695.31609,33.7447918 695.267913,33.71875 C695.219736,33.6927082 695.179371,33.6595054 695.146819,33.6191406 C695.114267,33.5787758 695.09083,33.5319013 695.076507,33.4785156 C695.062184,33.4251299 695.058929,33.3684899 695.066741,33.3085938 Z" id="engineer"></path>
        </g>
    </g>
</svg>