<?xml version="1.0" encoding="UTF-8" standalone="no"?>
<svg width="24px" height="8px" viewBox="0 0 24 8" version="1.1" xmlns="http://www.w3.org/2000/svg" xmlns:xlink="http://www.w3.org/1999/xlink">
    <!-- Generator: Sketch 41.2 (35397) - http://www.bohemiancoding.com/sketch -->
    <title>school</title>
    <desc>Created with Sketch.</desc>
    <defs></defs>
    <g id="letters" stroke="none" stroke-width="1" fill="none" fill-rule="evenodd">
        <g id="Overview" transform="translate(-363.000000, -30.000000)" fill="#000000">
            <path d="M365.137277,36.8164062 C365.23884,36.8164062 365.341052,36.8040366 365.443917,36.7792969 C365.546783,36.7545572 365.640532,36.7161461 365.725167,36.6640625 C365.809803,36.6119789 365.878813,36.5462244 365.932199,36.4667969 C365.985584,36.3873694 366.012277,36.2929693 366.012277,36.1835938 C366.012277,36.0559889 365.979074,35.9472661 365.912667,35.8574219 C365.846261,35.7675777 365.759022,35.6881514 365.650949,35.6191406 C365.542875,35.5501299 365.419179,35.4882815 365.279855,35.4335938 C365.140531,35.378906 364.998606,35.322917 364.854074,35.265625 C364.709542,35.208333 364.568267,35.1451826 364.430246,35.0761719 C364.292224,35.0071611 364.169178,34.9257817 364.061105,34.8320312 C363.953031,34.7382808 363.865793,34.6263027 363.799386,34.4960938 C363.73298,34.3658848 363.699777,34.2109384 363.699777,34.03125 C363.699777,33.9192703 363.72061,33.7962246 363.762277,33.6621094 C363.803944,33.5279941 363.87686,33.4023443 363.981027,33.2851562 C364.085194,33.1679682 364.225167,33.0696619 364.400949,32.9902344 C364.576731,32.9108069 364.798734,32.8710938 365.066964,32.8710938 C365.139881,32.8710938 365.217355,32.876302 365.299386,32.8867188 C365.381418,32.8971355 365.465401,32.9160155 365.551339,32.9433594 C365.637277,32.9707033 365.723214,33.0065102 365.809152,33.0507812 C365.89509,33.0950523 365.979724,33.1497393 366.063058,33.2148438 L366.043527,32.9101562 L366.379464,32.9101562 L366.379464,34.3125 L366.129464,34.3125 C366.119048,34.1744785 366.092355,34.0377611 366.049386,33.9023438 C366.006417,33.7669264 365.943918,33.6451828 365.861886,33.5371094 C365.779855,33.4290359 365.67634,33.3411462 365.551339,33.2734375 C365.426339,33.2057288 365.277903,33.171875 365.106027,33.171875 C364.981026,33.171875 364.87035,33.1881509 364.773996,33.2207031 C364.677641,33.2532554 364.596261,33.2975258 364.529855,33.3535156 C364.463448,33.4095055 364.413319,33.473958 364.379464,33.546875 C364.34561,33.619792 364.328683,33.6966142 364.328683,33.7773438 C364.328683,33.9075527 364.361886,34.0195308 364.428292,34.1132812 C364.494699,34.2070317 364.582589,34.2903642 364.691964,34.3632812 C364.80134,34.4361983 364.926339,34.5019528 365.066964,34.5605469 C365.20759,34.6191409 365.350818,34.6790362 365.496652,34.7402344 C365.642486,34.8014326 365.785714,34.8665361 365.926339,34.9355469 C366.066965,35.0045576 366.191964,35.085937 366.301339,35.1796875 C366.410715,35.273438 366.498605,35.3828119 366.565011,35.5078125 C366.631418,35.6328131 366.664621,35.7812491 366.664621,35.953125 C366.664621,36.1536468 366.624256,36.3281243 366.543527,36.4765625 C366.462797,36.6250007 366.356678,36.7473954 366.225167,36.84375 C366.093656,36.9401046 365.94522,37.0117185 365.779855,37.0585938 C365.61449,37.105469 365.447173,37.1289062 365.277902,37.1289062 C365.007067,37.1289062 364.768788,37.0930993 364.563058,37.0214844 C364.357328,36.9498694 364.188059,36.86849 364.055246,36.7773438 L364.082589,37.0546875 L363.746652,37.0546875 L363.699777,35.6796875 L363.945871,35.6796875 C363.956287,35.846355 363.994698,35.9993483 364.061105,36.1386719 C364.127511,36.2779955 364.21475,36.397786 364.322824,36.4980469 C364.430897,36.5983078 364.554594,36.676432 364.693917,36.7324219 C364.833241,36.7884117 364.981026,36.8164062 365.137277,36.8164062 Z M370.162277,33.5976562 C370.125818,33.5039058 370.072433,33.4290367 370.002121,33.3730469 C369.931808,33.317057 369.855637,33.2734377 369.773605,33.2421875 C369.691573,33.2109373 369.609543,33.1907553 369.527511,33.1816406 C369.44548,33.172526 369.377121,33.1679688 369.322433,33.1679688 C369.14014,33.1679688 368.97022,33.2050778 368.812667,33.2792969 C368.655115,33.353516 368.519048,33.4622389 368.404464,33.6054688 C368.28988,33.7486986 368.199386,33.9270823 368.13298,34.140625 C368.066573,34.3541677 368.033371,34.598957 368.033371,34.875 C368.033371,35.1406263 368.066573,35.3860666 368.13298,35.6113281 C368.199386,35.8365897 368.292485,36.0305981 368.412277,36.1933594 C368.532069,36.3561206 368.676599,36.4830725 368.845871,36.5742188 C369.015142,36.665365 369.20264,36.7109375 369.408371,36.7109375 C369.533371,36.7109375 369.657068,36.6933596 369.779464,36.6582031 C369.901861,36.6230467 370.017745,36.5742191 370.127121,36.5117188 C370.236496,36.4492184 370.337407,36.3763025 370.429855,36.2929688 C370.522303,36.209635 370.601079,36.1197921 370.666183,36.0234375 L370.873214,36.1835938 C370.766443,36.3502613 370.644699,36.4928379 370.50798,36.6113281 C370.37126,36.7298183 370.228033,36.8274736 370.078292,36.9042969 C369.928552,36.9811202 369.777512,37.0377602 369.625167,37.0742188 C369.472823,37.1106773 369.328944,37.1289062 369.193527,37.1289062 C368.922692,37.1289062 368.667486,37.0826828 368.427902,36.9902344 C368.188317,36.897786 367.978684,36.7636728 367.798996,36.5878906 C367.619307,36.4121085 367.477381,36.1966159 367.373214,35.9414062 C367.269047,35.6861966 367.216964,35.395835 367.216964,35.0703125 C367.216964,34.8854157 367.239751,34.7031259 367.285324,34.5234375 C367.330897,34.3437491 367.396651,34.1725269 367.482589,34.0097656 C367.568527,33.8470044 367.672693,33.6959642 367.795089,33.5566406 C367.917486,33.417317 368.056156,33.2968755 368.211105,33.1953125 C368.366054,33.0937495 368.535323,33.0143232 368.718917,32.9570312 C368.902512,32.8997393 369.097172,32.8710938 369.302902,32.8710938 C369.524257,32.8710938 369.726078,32.8984372 369.908371,32.953125 C370.090663,33.0078128 370.246912,33.0807287 370.377121,33.171875 C370.50733,33.2630213 370.607589,33.3678379 370.677902,33.4863281 C370.748215,33.6048183 370.783371,33.729166 370.783371,33.859375 C370.783371,33.9739589 370.75147,34.0722652 370.687667,34.1542969 C370.623865,34.2363285 370.532069,34.2786458 370.412277,34.28125 C370.341964,34.2838542 370.283371,34.2727866 370.236496,34.2480469 C370.18962,34.2233072 370.15186,34.1927085 370.123214,34.15625 C370.094568,34.1197915 370.073735,34.0800783 370.060714,34.0371094 C370.047693,33.9941404 370.041183,33.9557293 370.041183,33.921875 C370.041183,33.8697914 370.049646,33.8151045 370.066574,33.7578125 C370.083501,33.7005205 370.115402,33.6471357 370.162277,33.5976562 Z M371.796652,32 C371.796652,31.9166662 371.797303,31.8359379 371.798605,31.7578125 C371.799907,31.6796871 371.807068,31.5872401 371.820089,31.4804688 L371.253683,31.5117188 L371.253683,31.1757812 C371.428163,31.1757812 371.573344,31.1699219 371.68923,31.1582031 C371.805116,31.1464843 371.899516,31.1302084 371.972433,31.109375 C372.04535,31.0885416 372.102641,31.0657553 372.144308,31.0410156 C372.185975,31.0162759 372.222433,30.9895835 372.253683,30.9609375 L372.484152,30.9609375 L372.484152,33.3984375 C372.572694,33.3255205 372.669047,33.2565107 372.773214,33.1914062 C372.877381,33.1263018 372.986104,33.0703127 373.099386,33.0234375 C373.212668,32.9765623 373.328552,32.9394533 373.447042,32.9121094 C373.565533,32.8847655 373.682068,32.8710938 373.796652,32.8710938 C374.028424,32.8710938 374.227641,32.9069007 374.394308,32.9785156 C374.560976,33.0501306 374.697042,33.1595045 374.802511,33.3066406 C374.90798,33.4537768 374.986105,33.6399728 375.036886,33.8652344 C375.087668,34.0904959 375.11436,34.3554672 375.116964,34.6601562 L375.124777,36.1523438 C375.124777,36.2591151 375.123475,36.3535152 375.120871,36.4355469 C375.118266,36.5175785 375.109152,36.6041662 375.093527,36.6953125 L375.597433,36.671875 L375.597433,37 L373.964621,37 L373.964621,36.7617188 C374.087017,36.7617188 374.180115,36.7376304 374.243917,36.6894531 C374.30772,36.6412758 374.353943,36.5742192 374.382589,36.4882812 C374.411235,36.4023433 374.427511,36.2994798 374.431417,36.1796875 C374.435324,36.0598952 374.437277,35.9283861 374.437277,35.7851562 L374.437277,34.6679688 C374.437277,34.2070289 374.364361,33.8626313 374.218527,33.6347656 C374.072693,33.4068999 373.840924,33.2929688 373.523214,33.2929688 C373.432068,33.2929688 373.335715,33.3059895 373.234152,33.3320312 C373.132589,33.358073 373.036887,33.3932289 372.947042,33.4375 C372.857198,33.4817711 372.772564,33.5338539 372.693136,33.59375 C372.613709,33.6536461 372.544048,33.7187496 372.484152,33.7890625 L372.484152,36.1523438 C372.484152,36.2591151 372.481548,36.3535152 372.476339,36.4355469 C372.471131,36.5175785 372.460714,36.6041662 372.445089,36.6953125 L372.948996,36.671875 L372.948996,37 L371.316183,37 L371.316183,36.7617188 C371.438579,36.7617188 371.532329,36.7376304 371.597433,36.6894531 C371.662538,36.6412758 371.710063,36.5742192 371.740011,36.4882812 C371.769959,36.4023433 371.786886,36.2994798 371.790792,36.1796875 C371.794699,36.0598952 371.796652,35.9283861 371.796652,35.7851562 L371.796652,32 Z M378.075558,33.1757812 C377.864619,33.1757812 377.684283,33.2226558 377.534542,33.3164062 C377.384802,33.4101567 377.261756,33.5351555 377.165402,33.6914062 C377.069047,33.847657 376.998084,34.0273427 376.952511,34.2304688 C376.906938,34.4335948 376.884152,34.6445302 376.884152,34.8632812 C376.884152,35.1106783 376.909542,35.3515613 376.960324,35.5859375 C377.011105,35.8203137 377.088578,36.0279939 377.192746,36.2089844 C377.296913,36.3899749 377.427771,36.5351557 377.585324,36.6445312 C377.742877,36.7539068 377.927119,36.8085938 378.138058,36.8085938 C378.348997,36.8085938 378.526729,36.7610682 378.671261,36.6660156 C378.815793,36.5709631 378.932979,36.4453133 379.022824,36.2890625 C379.112668,36.1328117 379.17712,35.9544281 379.216183,35.7539062 C379.255246,35.5533844 379.274777,35.3476573 379.274777,35.1367188 C379.274777,34.8971342 379.252642,34.6601574 379.208371,34.4257812 C379.164099,34.1914051 379.093788,33.9817718 378.997433,33.796875 C378.901078,33.6119782 378.776731,33.4622402 378.624386,33.3476562 C378.472042,33.2330723 378.289101,33.1757812 378.075558,33.1757812 Z M378.075558,32.8710938 C378.356809,32.8710938 378.619828,32.9225255 378.864621,33.0253906 C379.109413,33.1282557 379.322302,33.2701814 379.503292,33.4511719 C379.684283,33.6321624 379.827511,33.847004 379.93298,34.0957031 C380.038449,34.3444023 380.091183,34.6132798 380.091183,34.9023438 C380.091183,35.2122411 380.039751,35.5026028 379.936886,35.7734375 C379.834021,36.0442722 379.692095,36.2799469 379.511105,36.4804688 C379.330114,36.6809906 379.116575,36.8391921 378.87048,36.9550781 C378.624385,37.0709641 378.359414,37.1289062 378.075558,37.1289062 C377.794307,37.1289062 377.531939,37.0787765 377.288449,36.9785156 C377.044958,36.8782547 376.83272,36.7382821 376.65173,36.5585938 C376.470739,36.3789054 376.328163,36.1647148 376.223996,35.9160156 C376.119828,35.6673165 376.067746,35.3945327 376.067746,35.0976562 C376.067746,34.7825505 376.119177,34.4889337 376.222042,34.2167969 C376.324908,33.9446601 376.466182,33.7089854 376.645871,33.5097656 C376.825559,33.3105459 377.037796,33.1542974 377.282589,33.0410156 C377.527382,32.9277338 377.791702,32.8710938 378.075558,32.8710938 Z M382.655246,33.1757812 C382.444307,33.1757812 382.26397,33.2226558 382.11423,33.3164062 C381.96449,33.4101567 381.841444,33.5351555 381.745089,33.6914062 C381.648735,33.847657 381.577772,34.0273427 381.532199,34.2304688 C381.486626,34.4335948 381.463839,34.6445302 381.463839,34.8632812 C381.463839,35.1106783 381.48923,35.3515613 381.540011,35.5859375 C381.590793,35.8203137 381.668266,36.0279939 381.772433,36.2089844 C381.8766,36.3899749 382.007458,36.5351557 382.165011,36.6445312 C382.322564,36.7539068 382.506807,36.8085938 382.717746,36.8085938 C382.928684,36.8085938 383.106417,36.7610682 383.250949,36.6660156 C383.395481,36.5709631 383.512667,36.4453133 383.602511,36.2890625 C383.692355,36.1328117 383.756808,35.9544281 383.795871,35.7539062 C383.834933,35.5533844 383.854464,35.3476573 383.854464,35.1367188 C383.854464,34.8971342 383.832329,34.6601574 383.788058,34.4257812 C383.743787,34.1914051 383.673475,33.9817718 383.577121,33.796875 C383.480766,33.6119782 383.356418,33.4622402 383.204074,33.3476562 C383.051729,33.2330723 382.868788,33.1757812 382.655246,33.1757812 Z M382.655246,32.8710938 C382.936497,32.8710938 383.199515,32.9225255 383.444308,33.0253906 C383.689101,33.1282557 383.901989,33.2701814 384.08298,33.4511719 C384.26397,33.6321624 384.407198,33.847004 384.512667,34.0957031 C384.618137,34.3444023 384.670871,34.6132798 384.670871,34.9023438 C384.670871,35.2122411 384.619439,35.5026028 384.516574,35.7734375 C384.413709,36.0442722 384.271783,36.2799469 384.090792,36.4804688 C383.909802,36.6809906 383.696262,36.8391921 383.450167,36.9550781 C383.204072,37.0709641 382.939101,37.1289062 382.655246,37.1289062 C382.373994,37.1289062 382.111627,37.0787765 381.868136,36.9785156 C381.624645,36.8782547 381.412408,36.7382821 381.231417,36.5585938 C381.050427,36.3789054 380.90785,36.1647148 380.803683,35.9160156 C380.699516,35.6673165 380.647433,35.3945327 380.647433,35.0976562 C380.647433,34.7825505 380.698865,34.4889337 380.80173,34.2167969 C380.904595,33.9446601 381.04587,33.7089854 381.225558,33.5097656 C381.405246,33.3105459 381.617484,33.1542974 381.862277,33.0410156 C382.10707,32.9277338 382.37139,32.8710938 382.655246,32.8710938 Z M385.641183,32 C385.641183,31.9166662 385.641834,31.8359379 385.643136,31.7578125 C385.644438,31.6796871 385.6516,31.5872401 385.664621,31.4804688 L385.098214,31.5117188 L385.098214,31.1757812 C385.272694,31.1757812 385.417875,31.1699219 385.533761,31.1582031 C385.649647,31.1464843 385.744047,31.1302084 385.816964,31.109375 C385.889881,31.0885416 385.947172,31.0657553 385.988839,31.0410156 C386.030506,31.0162759 386.066964,30.9895835 386.098214,30.9609375 L386.328683,30.9609375 L386.336496,36.1523438 C386.336496,36.2591151 386.333891,36.3535152 386.328683,36.4355469 C386.323475,36.5175785 386.313058,36.6041662 386.297433,36.6953125 L386.801339,36.671875 L386.801339,37 L385.168527,37 L385.168527,36.7617188 C385.290923,36.7617188 385.384021,36.7376304 385.447824,36.6894531 C385.511626,36.6412758 385.55785,36.5742192 385.586496,36.4882812 C385.615142,36.4023433 385.631417,36.2994798 385.635324,36.1796875 C385.63923,36.0598952 385.641183,35.9283861 385.641183,35.7851562 L385.641183,32 Z" id="school"></path>
        </g>
    </g>
</svg>