<?xml version="1.0" encoding="UTF-8" standalone="no"?>
<svg width="29px" height="8px" viewBox="0 0 29 8" version="1.1" xmlns="http://www.w3.org/2000/svg" xmlns:xlink="http://www.w3.org/1999/xlink">
    <!-- Generator: Sketch 41.2 (35397) - http://www.bohemiancoding.com/sketch -->
    <title>student</title>
    <desc>Created with Sketch.</desc>
    <defs></defs>
    <g id="letters" stroke="none" stroke-width="1" fill="none" fill-rule="evenodd">
        <g id="Overview" transform="translate(-255.000000, -30.000000)" fill="#000000">
            <path d="M257.143742,36.8164062 C257.245305,36.8164062 257.347517,36.8040366 257.450382,36.7792969 C257.553247,36.7545572 257.646996,36.7161461 257.731632,36.6640625 C257.816268,36.6119789 257.885278,36.5462244 257.938663,36.4667969 C257.992049,36.3873694 258.018742,36.2929693 258.018742,36.1835938 C258.018742,36.0559889 257.985539,35.9472661 257.919132,35.8574219 C257.852726,35.7675777 257.765487,35.6881514 257.657413,35.6191406 C257.54934,35.5501299 257.425643,35.4882815 257.28632,35.4335938 C257.146996,35.378906 257.00507,35.322917 256.860538,35.265625 C256.716006,35.208333 256.574732,35.1451826 256.43671,35.0761719 C256.298689,35.0071611 256.175643,34.9257817 256.06757,34.8320312 C255.959496,34.7382808 255.872257,34.6263027 255.805851,34.4960938 C255.739444,34.3658848 255.706242,34.2109384 255.706242,34.03125 C255.706242,33.9192703 255.727075,33.7962246 255.768742,33.6621094 C255.810408,33.5279941 255.883324,33.4023443 255.987492,33.2851562 C256.091659,33.1679682 256.231631,33.0696619 256.407413,32.9902344 C256.583196,32.9108069 256.805199,32.8710938 257.073429,32.8710938 C257.146346,32.8710938 257.223819,32.876302 257.305851,32.8867188 C257.387883,32.8971355 257.471866,32.9160155 257.557804,32.9433594 C257.643742,32.9707033 257.729679,33.0065102 257.815617,33.0507812 C257.901554,33.0950523 257.986189,33.1497393 258.069523,33.2148438 L258.049992,32.9101562 L258.385929,32.9101562 L258.385929,34.3125 L258.135929,34.3125 C258.125512,34.1744785 258.09882,34.0377611 258.055851,33.9023438 C258.012882,33.7669264 257.950383,33.6451828 257.868351,33.5371094 C257.786319,33.4290359 257.682805,33.3411462 257.557804,33.2734375 C257.432803,33.2057288 257.284367,33.171875 257.112492,33.171875 C256.987491,33.171875 256.876815,33.1881509 256.78046,33.2207031 C256.684106,33.2532554 256.602726,33.2975258 256.53632,33.3535156 C256.469913,33.4095055 256.419783,33.473958 256.385929,33.546875 C256.352075,33.619792 256.335148,33.6966142 256.335148,33.7773438 C256.335148,33.9075527 256.368351,34.0195308 256.434757,34.1132812 C256.501164,34.2070317 256.589053,34.2903642 256.698429,34.3632812 C256.807805,34.4361983 256.932803,34.5019528 257.073429,34.5605469 C257.214055,34.6191409 257.357282,34.6790362 257.503117,34.7402344 C257.648951,34.8014326 257.792178,34.8665361 257.932804,34.9355469 C258.07343,35.0045576 258.198428,35.085937 258.307804,35.1796875 C258.41718,35.273438 258.505069,35.3828119 258.571476,35.5078125 C258.637882,35.6328131 258.671085,35.7812491 258.671085,35.953125 C258.671085,36.1536468 258.630721,36.3281243 258.549992,36.4765625 C258.469262,36.6250007 258.363143,36.7473954 258.231632,36.84375 C258.100121,36.9401046 257.951685,37.0117185 257.78632,37.0585938 C257.620954,37.105469 257.453638,37.1289062 257.284367,37.1289062 C257.013532,37.1289062 256.775253,37.0930993 256.569523,37.0214844 C256.363793,36.9498694 256.194523,36.86849 256.06171,36.7773438 L256.089054,37.0546875 L255.753117,37.0546875 L255.706242,35.6796875 L255.952335,35.6796875 C255.962752,35.846355 256.001163,35.9993483 256.06757,36.1386719 C256.133976,36.2779955 256.221215,36.397786 256.329288,36.4980469 C256.437362,36.5983078 256.561059,36.676432 256.700382,36.7324219 C256.839706,36.7884117 256.987491,36.8164062 257.143742,36.8164062 Z M259.063273,33 C259.203898,32.9973958 259.331501,32.9589847 259.446085,32.8847656 C259.560669,32.8105465 259.66158,32.7180995 259.74882,32.6074219 C259.83606,32.4967442 259.909627,32.3763027 259.969523,32.2460938 C260.029419,32.1158848 260.076293,31.9934902 260.110148,31.8789062 L260.383585,31.8789062 C260.383585,32.092449 260.382934,32.2916657 260.381632,32.4765625 C260.38033,32.6614593 260.379679,32.8359367 260.379679,33 L261.727335,33 L261.727335,33.3125 L260.379679,33.328125 C260.377075,33.6744809 260.375773,33.9700509 260.375773,34.2148438 C260.375773,34.4596366 260.375122,34.6640617 260.37382,34.828125 C260.372518,34.9921883 260.371867,35.1217443 260.371867,35.2167969 C260.371867,35.3118494 260.371216,35.3841143 260.369913,35.4335938 C260.368611,35.4830732 260.36796,35.5149739 260.36796,35.5292969 L260.36796,35.5546875 C260.36796,35.7369801 260.377726,35.8977858 260.397257,36.0371094 C260.416789,36.176433 260.449991,36.2936193 260.496867,36.3886719 C260.543742,36.4837244 260.60559,36.5553383 260.682413,36.6035156 C260.759237,36.6516929 260.856241,36.6757812 260.973429,36.6757812 C261.111451,36.6757812 261.248168,36.634115 261.383585,36.5507812 C261.519003,36.4674475 261.638793,36.3489591 261.74296,36.1953125 L261.957804,36.3710938 C261.840616,36.548178 261.724081,36.6868485 261.608195,36.7871094 C261.492309,36.8873703 261.382284,36.9628904 261.278117,37.0136719 C261.173949,37.0644534 261.076945,37.0963541 260.987101,37.109375 C260.897257,37.1223959 260.818481,37.1289062 260.750773,37.1289062 C260.670043,37.1289062 260.587362,37.1223959 260.502726,37.109375 C260.41809,37.0963541 260.334758,37.0709637 260.252726,37.0332031 C260.170694,36.9954425 260.093872,36.9420576 260.022257,36.8730469 C259.950642,36.8040361 259.887492,36.7148443 259.832804,36.6054688 C259.778116,36.4960932 259.735148,36.363282 259.703898,36.2070312 C259.672648,36.0507805 259.658325,35.8658865 259.660929,35.6523438 L259.676554,33.3398438 L259.063273,33.34375 L259.063273,33 Z M265.213273,34.0507812 C265.213273,33.9205723 265.215877,33.8092453 265.221085,33.7167969 C265.226294,33.6243485 265.23671,33.5325525 265.252335,33.4414062 L264.678117,33.4648438 L264.678117,33.1367188 L264.92421,33.1367188 C265.038794,33.1367188 265.136449,33.1308594 265.217179,33.1191406 C265.297909,33.1074218 265.366918,33.0911459 265.42421,33.0703125 C265.481502,33.0494791 265.529028,33.0266928 265.566788,33.0019531 C265.604549,32.9772134 265.639054,32.950521 265.670304,32.921875 L265.900773,32.921875 L265.89296,35.9453125 C265.89296,35.9869794 265.892309,36.0397132 265.891007,36.1035156 C265.889705,36.167318 265.887752,36.2337236 265.885148,36.3027344 C265.882544,36.3717451 265.879288,36.4407549 265.875382,36.5097656 C265.871476,36.5787764 265.866919,36.6406247 265.86171,36.6953125 L266.435929,36.6640625 L266.435929,37 L265.291398,37 C265.278377,36.9088537 265.267309,36.8248702 265.258195,36.7480469 C265.24908,36.6712236 265.241919,36.5950525 265.23671,36.5195312 C265.153377,36.602865 265.06093,36.6816403 264.959367,36.7558594 C264.857804,36.8300785 264.750383,36.894531 264.637101,36.9492188 C264.523819,37.0039065 264.407284,37.0475259 264.287492,37.0800781 C264.167699,37.1126304 264.049211,37.1289062 263.932023,37.1289062 C263.713272,37.1289062 263.521867,37.0996097 263.357804,37.0410156 C263.193741,36.9824216 263.057023,36.8854173 262.947648,36.75 C262.838272,36.6145827 262.756242,36.435548 262.701554,36.2128906 C262.646866,35.9902333 262.619523,35.7135433 262.619523,35.3828125 L262.619523,33.9609375 C262.619523,33.8776037 262.620825,33.7929692 262.623429,33.7070312 C262.626033,33.6210933 262.635148,33.5325525 262.650773,33.4414062 L262.099992,33.4648438 L262.099992,33.1367188 L262.349992,33.1367188 C262.461971,33.1367188 262.558324,33.1308594 262.639054,33.1191406 C262.719784,33.1074218 262.788793,33.0911459 262.846085,33.0703125 C262.903377,33.0494791 262.950903,33.0266928 262.988663,33.0019531 C263.026424,32.9772134 263.060929,32.950521 263.092179,32.921875 L263.322648,32.921875 L263.322648,35.359375 C263.322648,35.591147 263.338273,35.7923169 263.369523,35.9628906 C263.400773,36.1334644 263.450903,36.2753901 263.519913,36.3886719 C263.588924,36.5019537 263.678116,36.5852862 263.787492,36.6386719 C263.896867,36.6920576 264.03098,36.71875 264.189835,36.71875 C264.291398,36.71875 264.391007,36.7018231 264.488663,36.6679688 C264.58632,36.6341144 264.679418,36.588542 264.76796,36.53125 C264.856502,36.473958 264.939184,36.4088545 265.016007,36.3359375 C265.09283,36.2630205 265.158585,36.1848963 265.213273,36.1015625 L265.213273,34.0507812 Z M270.578117,36.1523438 C270.578117,36.2356775 270.576163,36.319661 270.572257,36.4042969 C270.568351,36.4889327 270.559887,36.585937 270.546867,36.6953125 L271.113273,36.6640625 L271.113273,37 L269.968742,37 C269.955721,36.9218746 269.945304,36.8489587 269.937492,36.78125 C269.929679,36.7135413 269.923169,36.6471357 269.91796,36.5820312 C269.764314,36.7486988 269.578769,36.8815099 269.36132,36.9804688 C269.143871,37.0794276 268.901035,37.1289062 268.632804,37.1289062 C268.385407,37.1289062 268.156894,37.0820317 267.947257,36.9882812 C267.737621,36.8945308 267.555331,36.7604175 267.400382,36.5859375 C267.245433,36.4114575 267.124341,36.199871 267.037101,35.9511719 C266.949861,35.7024727 266.906242,35.4231786 266.906242,35.1132812 C266.906242,34.7877588 266.957673,34.4876316 267.060538,34.2128906 C267.163404,33.9381497 267.30598,33.7011729 267.488273,33.5019531 C267.670565,33.3027334 267.88736,33.147787 268.138663,33.0371094 C268.389967,32.9264317 268.664053,32.8710938 268.960929,32.8710938 C269.049471,32.8710938 269.138012,32.8776041 269.226554,32.890625 C269.315096,32.9036459 269.400382,32.9205728 269.482413,32.9414062 C269.564445,32.9622397 269.640616,32.985677 269.710929,33.0117188 C269.781242,33.0377605 269.842439,33.065104 269.894523,33.09375 L269.898429,32 C269.898429,31.9166662 269.89908,31.8359379 269.900382,31.7578125 C269.901684,31.6796871 269.908846,31.5872401 269.921867,31.4804688 L269.35546,31.5117188 L269.35546,31.1757812 C269.52994,31.1757812 269.67447,31.1699219 269.789054,31.1582031 C269.903638,31.1464843 269.997387,31.1302084 270.070304,31.109375 C270.143221,31.0885416 270.199861,31.0657553 270.240226,31.0410156 C270.280591,31.0162759 270.316398,30.9895835 270.347648,30.9609375 L270.578117,30.9609375 L270.578117,36.1523438 Z M268.921867,36.734375 C269.010409,36.734375 269.100252,36.7213543 269.191398,36.6953125 C269.282544,36.6692707 269.370434,36.6328127 269.45507,36.5859375 C269.539706,36.5390623 269.619132,36.4837243 269.693351,36.4199219 C269.76757,36.3561195 269.834627,36.2864587 269.894523,36.2109375 C269.891919,36.145833 269.890617,36.0768233 269.890617,36.0039062 L269.890617,35.7695312 L269.894523,33.4648438 C269.766918,33.3658849 269.627596,33.2949221 269.476554,33.2519531 C269.325512,33.2089842 269.170565,33.1875 269.01171,33.1875 C268.811188,33.1875 268.630201,33.2317704 268.468742,33.3203125 C268.307282,33.4088546 268.169914,33.5345044 268.056632,33.6972656 C267.94335,33.8600269 267.860669,34.0455719 267.808585,34.2539062 C267.756502,34.4622406 267.73046,34.7239568 267.73046,35.0390625 C267.73046,35.2552094 267.759757,35.4746083 267.818351,35.6972656 C267.876945,35.919923 267.956371,36.106119 268.056632,36.2558594 C268.156893,36.4055997 268.279288,36.522786 268.42382,36.6074219 C268.568352,36.6920577 268.734366,36.734375 268.921867,36.734375 Z M273.614835,33.1835938 C273.302334,33.1835938 273.044524,33.2753897 272.841398,33.4589844 C272.638272,33.642579 272.504159,33.9401021 272.439054,34.3515625 L274.478117,34.3515625 C274.478117,34.2109368 274.462492,34.0709642 274.431242,33.9316406 C274.399991,33.792317 274.349862,33.6673183 274.280851,33.5566406 C274.21184,33.445963 274.122648,33.3561201 274.013273,33.2871094 C273.903897,33.2180986 273.771086,33.1835938 273.614835,33.1835938 Z M275.232023,34.640625 L272.415617,34.6875 C272.413012,34.9947932 272.43645,35.2734363 272.485929,35.5234375 C272.535408,35.7734387 272.613533,35.9869783 272.720304,36.1640625 C272.827075,36.3411467 272.964444,36.4778641 273.132413,36.5742188 C273.300383,36.6705734 273.501553,36.71875 273.735929,36.71875 C273.86093,36.71875 273.988533,36.7018231 274.118742,36.6679688 C274.248951,36.6341144 274.3746,36.5878909 274.495695,36.5292969 C274.616789,36.4707028 274.728116,36.400391 274.829679,36.3183594 C274.931242,36.2363277 275.015877,36.148438 275.083585,36.0546875 L275.278898,36.2148438 C275.169522,36.3815113 275.04257,36.5227859 274.898038,36.6386719 C274.753506,36.7545579 274.603768,36.848958 274.44882,36.921875 C274.293871,36.994792 274.138274,37.0475259 273.982023,37.0800781 C273.825772,37.1126304 273.67994,37.1289062 273.544523,37.1289062 C273.26848,37.1289062 273.011321,37.0794276 272.773038,36.9804688 C272.534756,36.8815099 272.328378,36.7395843 272.153898,36.5546875 C271.979418,36.3697907 271.842049,36.1471367 271.741788,35.8867188 C271.641528,35.6263008 271.591398,35.333335 271.591398,35.0078125 C271.591398,34.7265611 271.639574,34.4576836 271.735929,34.2011719 C271.832284,33.9446602 271.969001,33.7174489 272.146085,33.5195312 C272.32317,33.3216136 272.535407,33.1640631 272.782804,33.046875 C273.030201,32.9296869 273.304938,32.8710938 273.607023,32.8710938 C273.828378,32.8710938 274.03736,32.9075517 274.233976,32.9804688 C274.430592,33.0533858 274.603116,33.1627597 274.751554,33.3085938 C274.899992,33.4544278 275.017179,33.6386708 275.103117,33.8613281 C275.189054,34.0839855 275.232023,34.3437485 275.232023,34.640625 Z M276.323429,33.9609375 C276.323429,33.8776037 276.324731,33.7929692 276.327335,33.7070312 C276.329939,33.6210933 276.339054,33.5325525 276.354679,33.4414062 L275.788273,33.4726562 L275.788273,33.1367188 C275.962753,33.1367188 276.104679,33.1308594 276.214054,33.1191406 C276.32343,33.1074218 276.411319,33.0911459 276.477726,33.0703125 C276.544133,33.0494791 276.595564,33.0266928 276.632023,33.0019531 C276.668481,32.9772134 276.702335,32.950521 276.733585,32.921875 L276.964054,32.921875 C276.969262,32.9817711 276.975122,33.0501298 276.981632,33.1269531 C276.988143,33.2037764 276.994002,33.2968745 276.99921,33.40625 C277.085148,33.3307288 277.179548,33.260417 277.282413,33.1953125 C277.385279,33.130208 277.492699,33.0735679 277.604679,33.0253906 C277.716659,32.9772133 277.831892,32.9394533 277.950382,32.9121094 C278.068872,32.8847655 278.185408,32.8710938 278.299992,32.8710938 C278.763536,32.8710938 279.102074,33.0162746 279.315617,33.3066406 C279.529159,33.5970067 279.635929,34.048174 279.635929,34.6601562 L279.635929,36.1523438 C279.635929,36.2591151 279.634627,36.3535152 279.632023,36.4355469 C279.629419,36.5175785 279.620304,36.6041662 279.604679,36.6953125 L280.108585,36.671875 L280.108585,37 L278.475773,37 L278.475773,36.7617188 C278.598169,36.7617188 278.691267,36.7376304 278.75507,36.6894531 C278.818872,36.6412758 278.865096,36.5742192 278.893742,36.4882812 C278.922388,36.4023433 278.938663,36.2994798 278.94257,36.1796875 C278.946476,36.0598952 278.948429,35.9283861 278.948429,35.7851562 L278.948429,34.6679688 C278.943221,34.2070289 278.867701,33.8600272 278.721867,33.6269531 C278.576033,33.393879 278.344264,33.2773438 278.026554,33.2773438 C277.930199,33.2773438 277.833846,33.2916665 277.737492,33.3203125 C277.641137,33.3489585 277.54869,33.3860675 277.460148,33.4316406 C277.371606,33.4772138 277.288273,33.5312497 277.210148,33.59375 C277.132022,33.6562503 277.064315,33.723958 277.007023,33.796875 C277.009627,33.8437502 277.010929,33.8938799 277.010929,33.9472656 L277.010929,34.109375 L277.003117,36.1523438 C277.003117,36.2591151 277.001814,36.3535152 276.99921,36.4355469 C276.996606,36.5175785 276.987492,36.6041662 276.971867,36.6953125 L277.475773,36.671875 L277.475773,37 L275.84296,37 L275.84296,36.7617188 C275.965357,36.7617188 276.058455,36.7376304 276.122257,36.6894531 C276.18606,36.6412758 276.231632,36.5742192 276.258976,36.4882812 C276.28632,36.4023433 276.301945,36.2994798 276.305851,36.1796875 C276.309757,36.0598952 276.313012,35.9283861 276.315617,35.7851562 L276.323429,33.9609375 Z M280.344523,33 C280.485149,32.9973958 280.612751,32.9589847 280.727335,32.8847656 C280.841919,32.8105465 280.94283,32.7180995 281.03007,32.6074219 C281.11731,32.4967442 281.190877,32.3763027 281.250773,32.2460938 C281.310669,32.1158848 281.357543,31.9934902 281.391398,31.8789062 L281.664835,31.8789062 C281.664835,32.092449 281.664184,32.2916657 281.662882,32.4765625 C281.66158,32.6614593 281.660929,32.8359367 281.660929,33 L283.008585,33 L283.008585,33.3125 L281.660929,33.328125 C281.658325,33.6744809 281.657023,33.9700509 281.657023,34.2148438 C281.657023,34.4596366 281.656372,34.6640617 281.65507,34.828125 C281.653768,34.9921883 281.653117,35.1217443 281.653117,35.2167969 C281.653117,35.3118494 281.652466,35.3841143 281.651163,35.4335938 C281.649861,35.4830732 281.64921,35.5149739 281.64921,35.5292969 L281.64921,35.5546875 C281.64921,35.7369801 281.658976,35.8977858 281.678507,36.0371094 C281.698039,36.176433 281.731241,36.2936193 281.778117,36.3886719 C281.824992,36.4837244 281.88684,36.5553383 281.963663,36.6035156 C282.040487,36.6516929 282.137491,36.6757812 282.254679,36.6757812 C282.392701,36.6757812 282.529418,36.634115 282.664835,36.5507812 C282.800253,36.4674475 282.920043,36.3489591 283.02421,36.1953125 L283.239054,36.3710938 C283.121866,36.548178 283.005331,36.6868485 282.889445,36.7871094 C282.773559,36.8873703 282.663534,36.9628904 282.559367,37.0136719 C282.455199,37.0644534 282.358195,37.0963541 282.268351,37.109375 C282.178507,37.1223959 282.099731,37.1289062 282.032023,37.1289062 C281.951293,37.1289062 281.868612,37.1223959 281.783976,37.109375 C281.69934,37.0963541 281.616008,37.0709637 281.533976,37.0332031 C281.451944,36.9954425 281.375122,36.9420576 281.303507,36.8730469 C281.231892,36.8040361 281.168742,36.7148443 281.114054,36.6054688 C281.059366,36.4960932 281.016398,36.363282 280.985148,36.2070312 C280.953898,36.0507805 280.939575,35.8658865 280.942179,35.6523438 L280.957804,33.3398438 L280.344523,33.34375 L280.344523,33 Z" id="student"></path>
        </g>
    </g>
</svg>