<?xml version="1.0" encoding="UTF-8" standalone="no"?>
<svg width="29px" height="8px" viewBox="0 0 29 8" version="1.1" xmlns="http://www.w3.org/2000/svg" xmlns:xlink="http://www.w3.org/1999/xlink">
    <!-- Generator: Sketch 41.2 (35397) - http://www.bohemiancoding.com/sketch -->
    <title>teacher</title>
    <desc>Created with Sketch.</desc>
    <defs></defs>
    <g id="letters" stroke="none" stroke-width="1" fill="none" fill-rule="evenodd">
        <g id="Overview" transform="translate(-455.000000, -30.000000)" fill="#000000">
            <path d="M455.882254,33 C456.02288,32.9973958 456.150483,32.9589847 456.265067,32.8847656 C456.379651,32.8105465 456.480561,32.7180995 456.567801,32.6074219 C456.655041,32.4967442 456.728608,32.3763027 456.788504,32.2460938 C456.848401,32.1158848 456.895275,31.9934902 456.929129,31.8789062 L457.202567,31.8789062 C457.202567,32.092449 457.201916,32.2916657 457.200614,32.4765625 C457.199312,32.6614593 457.198661,32.8359367 457.198661,33 L458.546317,33 L458.546317,33.3125 L457.198661,33.328125 C457.196057,33.6744809 457.194754,33.9700509 457.194754,34.2148438 C457.194754,34.4596366 457.194103,34.6640617 457.192801,34.828125 C457.191499,34.9921883 457.190848,35.1217443 457.190848,35.2167969 C457.190848,35.3118494 457.190197,35.3841143 457.188895,35.4335938 C457.187593,35.4830732 457.186942,35.5149739 457.186942,35.5292969 L457.186942,35.5546875 C457.186942,35.7369801 457.196707,35.8977858 457.216239,36.0371094 C457.23577,36.176433 457.268973,36.2936193 457.315848,36.3886719 C457.362723,36.4837244 457.424572,36.5553383 457.501395,36.6035156 C457.578218,36.6516929 457.675223,36.6757812 457.792411,36.6757812 C457.930432,36.6757812 458.06715,36.634115 458.202567,36.5507812 C458.337984,36.4674475 458.457775,36.3489591 458.561942,36.1953125 L458.776786,36.3710938 C458.659598,36.548178 458.543062,36.6868485 458.427176,36.7871094 C458.31129,36.8873703 458.201265,36.9628904 458.097098,37.0136719 C457.992931,37.0644534 457.895927,37.0963541 457.806083,37.109375 C457.716238,37.1223959 457.637463,37.1289062 457.569754,37.1289062 C457.489025,37.1289062 457.406343,37.1223959 457.321708,37.109375 C457.237072,37.0963541 457.153739,37.0709637 457.071708,37.0332031 C456.989676,36.9954425 456.912854,36.9420576 456.841239,36.8730469 C456.769624,36.8040361 456.706473,36.7148443 456.651786,36.6054688 C456.597098,36.4960932 456.55413,36.363282 456.522879,36.2070312 C456.491629,36.0507805 456.477307,35.8658865 456.479911,35.6523438 L456.495536,33.3398438 L455.882254,33.34375 L455.882254,33 Z M461.071317,33.1835938 C460.758815,33.1835938 460.501005,33.2753897 460.297879,33.4589844 C460.094753,33.642579 459.96064,33.9401021 459.895536,34.3515625 L461.934598,34.3515625 C461.934598,34.2109368 461.918973,34.0709642 461.887723,33.9316406 C461.856473,33.792317 461.806343,33.6673183 461.737333,33.5566406 C461.668322,33.445963 461.57913,33.3561201 461.469754,33.2871094 C461.360379,33.2180986 461.227568,33.1835938 461.071317,33.1835938 Z M462.688504,34.640625 L459.872098,34.6875 C459.869494,34.9947932 459.892931,35.2734363 459.942411,35.5234375 C459.99189,35.7734387 460.070014,35.9869783 460.176786,36.1640625 C460.283557,36.3411467 460.420926,36.4778641 460.588895,36.5742188 C460.756865,36.6705734 460.958035,36.71875 461.192411,36.71875 C461.317411,36.71875 461.445014,36.7018231 461.575223,36.6679688 C461.705432,36.6341144 461.831082,36.5878909 461.952176,36.5292969 C462.073271,36.4707028 462.184598,36.400391 462.286161,36.3183594 C462.387724,36.2363277 462.472358,36.148438 462.540067,36.0546875 L462.735379,36.2148438 C462.626004,36.3815113 462.499052,36.5227859 462.35452,36.6386719 C462.209988,36.7545579 462.06025,36.848958 461.905301,36.921875 C461.750353,36.994792 461.594755,37.0475259 461.438504,37.0800781 C461.282254,37.1126304 461.136422,37.1289062 461.001004,37.1289062 C460.724961,37.1289062 460.467803,37.0794276 460.22952,36.9804688 C459.991238,36.8815099 459.78486,36.7395843 459.610379,36.5546875 C459.435899,36.3697907 459.298531,36.1471367 459.19827,35.8867188 C459.098009,35.6263008 459.047879,35.333335 459.047879,35.0078125 C459.047879,34.7265611 459.096056,34.4576836 459.192411,34.2011719 C459.288765,33.9446602 459.425483,33.7174489 459.602567,33.5195312 C459.779651,33.3216136 459.991889,33.1640631 460.239286,33.046875 C460.486683,32.9296869 460.76142,32.8710938 461.063504,32.8710938 C461.28486,32.8710938 461.493842,32.9075517 461.690458,32.9804688 C461.887073,33.0533858 462.059597,33.1627597 462.208036,33.3085938 C462.356474,33.4544278 462.47366,33.6386708 462.559598,33.8613281 C462.645536,34.0839855 462.688504,34.3437485 462.688504,34.640625 Z M465.639286,35.0429688 C465.516889,35.0481771 465.389937,35.0592447 465.258426,35.0761719 C465.126915,35.093099 464.99801,35.1191404 464.871708,35.1542969 C464.745405,35.1894533 464.626265,35.2343747 464.514286,35.2890625 C464.402306,35.3437503 464.304651,35.4088538 464.221317,35.484375 C464.137983,35.5598962 464.07288,35.6471349 464.026004,35.7460938 C463.979129,35.8450526 463.958296,35.9570306 463.963504,36.0820312 C463.966109,36.1809901 463.984989,36.2675778 464.020145,36.3417969 C464.055302,36.416016 464.100874,36.4772133 464.156864,36.5253906 C464.212854,36.5735679 464.277306,36.6100259 464.350223,36.6347656 C464.42314,36.6595053 464.501264,36.671875 464.584598,36.671875 C464.69137,36.671875 464.791629,36.6614584 464.885379,36.640625 C464.97913,36.6197916 465.068322,36.5891929 465.152958,36.5488281 C465.237593,36.5084633 465.319624,36.4596357 465.399051,36.4023438 C465.478479,36.3450518 465.558556,36.2786462 465.639286,36.203125 L465.639286,35.0429688 Z M463.443973,33.8320312 C463.443973,33.6992181 463.483035,33.5742193 463.561161,33.4570312 C463.639286,33.3398432 463.74866,33.2376306 463.889286,33.1503906 C464.029911,33.0631506 464.197227,32.9947919 464.391239,32.9453125 C464.58525,32.8958331 464.796837,32.8710938 465.026004,32.8710938 C465.473923,32.8710938 465.803998,32.9895821 466.016239,33.2265625 C466.228479,33.4635429 466.333296,33.8398412 466.330692,34.3554688 L466.322879,36.1523438 C466.322879,36.2356775 466.320926,36.319661 466.31702,36.4042969 C466.313114,36.4889327 466.30465,36.585937 466.291629,36.6953125 L466.858036,36.6640625 L466.858036,37 L465.713504,37 C465.697879,36.9088537 465.686161,36.8294274 465.678348,36.7617188 C465.670536,36.6940101 465.664025,36.6223962 465.658817,36.546875 C465.479129,36.7265634 465.283167,36.8684891 465.070926,36.9726562 C464.858686,37.0768234 464.634079,37.1289062 464.397098,37.1289062 C464.196576,37.1289062 464.021448,37.1048179 463.871708,37.0566406 C463.721967,37.0084633 463.59762,36.9414067 463.498661,36.8554688 C463.399702,36.7695308 463.325484,36.6686204 463.276004,36.5527344 C463.226525,36.4368484 463.201786,36.3125007 463.201786,36.1796875 C463.201786,36.0156242 463.237593,35.8658861 463.309208,35.7304688 C463.380823,35.5950514 463.477176,35.4746099 463.59827,35.3691406 C463.719364,35.2636713 463.860639,35.1725264 464.022098,35.0957031 C464.183557,35.0188798 464.35478,34.9557294 464.53577,34.90625 C464.716761,34.8567706 464.901655,34.8209637 465.090458,34.7988281 C465.279261,34.7766926 465.463504,34.7669271 465.643192,34.7695312 L465.643192,34.2695312 C465.643192,34.1315097 465.63538,33.9973965 465.619754,33.8671875 C465.604129,33.7369785 465.569625,33.6184901 465.516239,33.5117188 C465.462853,33.4049474 465.379521,33.3203128 465.266239,33.2578125 C465.152957,33.1953122 465.022099,33.1640625 464.873661,33.1640625 C464.787723,33.1640625 464.705692,33.1712239 464.627567,33.1855469 C464.549442,33.1998699 464.472619,33.2239582 464.397098,33.2578125 C464.321577,33.2916668 464.253218,33.3359372 464.19202,33.390625 C464.130822,33.4453128 464.080692,33.5104163 464.041629,33.5859375 C464.080692,33.6302086 464.107385,33.6790362 464.121708,33.7324219 C464.136031,33.7858076 464.143192,33.8372393 464.143192,33.8867188 C464.143192,33.9179689 464.136682,33.9537758 464.123661,33.9941406 C464.11064,34.0345054 464.090458,34.0722654 464.063114,34.1074219 C464.03577,34.1425783 464.000614,34.1712238 463.957645,34.1933594 C463.914676,34.2154949 463.856734,34.2265625 463.783817,34.2265625 C463.67965,34.2265625 463.596968,34.1881514 463.53577,34.1113281 C463.474572,34.0345048 463.443973,33.9414068 463.443973,33.8320312 Z M470.230692,33.5976562 C470.194233,33.5039058 470.140849,33.4290367 470.070536,33.3730469 C470.000223,33.317057 469.924052,33.2734377 469.84202,33.2421875 C469.759988,33.2109373 469.677958,33.1907553 469.595926,33.1816406 C469.513895,33.172526 469.445536,33.1679688 469.390848,33.1679688 C469.208556,33.1679688 469.038635,33.2050778 468.881083,33.2792969 C468.72353,33.353516 468.587463,33.4622389 468.472879,33.6054688 C468.358296,33.7486986 468.267802,33.9270823 468.201395,34.140625 C468.134989,34.3541677 468.101786,34.598957 468.101786,34.875 C468.101786,35.1406263 468.134989,35.3860666 468.201395,35.6113281 C468.267802,35.8365897 468.3609,36.0305981 468.480692,36.1933594 C468.600484,36.3561206 468.745014,36.4830725 468.914286,36.5742188 C469.083557,36.665365 469.271056,36.7109375 469.476786,36.7109375 C469.601786,36.7109375 469.725483,36.6933596 469.847879,36.6582031 C469.970276,36.6230467 470.08616,36.5742191 470.195536,36.5117188 C470.304911,36.4492184 470.405822,36.3763025 470.49827,36.2929688 C470.590718,36.209635 470.669494,36.1197921 470.734598,36.0234375 L470.941629,36.1835938 C470.834858,36.3502613 470.713115,36.4928379 470.576395,36.6113281 C470.439676,36.7298183 470.296448,36.8274736 470.146708,36.9042969 C469.996967,36.9811202 469.845927,37.0377602 469.693583,37.0742188 C469.541238,37.1106773 469.397359,37.1289062 469.261942,37.1289062 C468.991107,37.1289062 468.735902,37.0826828 468.496317,36.9902344 C468.256732,36.897786 468.047099,36.7636728 467.867411,36.5878906 C467.687722,36.4121085 467.545797,36.1966159 467.441629,35.9414062 C467.337462,35.6861966 467.285379,35.395835 467.285379,35.0703125 C467.285379,34.8854157 467.308166,34.7031259 467.353739,34.5234375 C467.399312,34.3437491 467.465067,34.1725269 467.551004,34.0097656 C467.636942,33.8470044 467.741108,33.6959642 467.863504,33.5566406 C467.985901,33.417317 468.124571,33.2968755 468.27952,33.1953125 C468.434469,33.0937495 468.603738,33.0143232 468.787333,32.9570312 C468.970927,32.8997393 469.165587,32.8710938 469.371317,32.8710938 C469.592672,32.8710938 469.794493,32.8984372 469.976786,32.953125 C470.159078,33.0078128 470.315327,33.0807287 470.445536,33.171875 C470.575745,33.2630213 470.676004,33.3678379 470.746317,33.4863281 C470.81663,33.6048183 470.851786,33.729166 470.851786,33.859375 C470.851786,33.9739589 470.819885,34.0722652 470.756083,34.1542969 C470.69228,34.2363285 470.600484,34.2786458 470.480692,34.28125 C470.410379,34.2838542 470.351786,34.2727866 470.304911,34.2480469 C470.258035,34.2233072 470.220275,34.1927085 470.191629,34.15625 C470.162984,34.1197915 470.14215,34.0800783 470.129129,34.0371094 C470.116109,33.9941404 470.109598,33.9557293 470.109598,33.921875 C470.109598,33.8697914 470.118062,33.8151045 470.134989,33.7578125 C470.151916,33.7005205 470.183817,33.6471357 470.230692,33.5976562 Z M471.865067,32 C471.865067,31.9166662 471.865718,31.8359379 471.86702,31.7578125 C471.868322,31.6796871 471.875484,31.5872401 471.888504,31.4804688 L471.322098,31.5117188 L471.322098,31.1757812 C471.496578,31.1757812 471.641759,31.1699219 471.757645,31.1582031 C471.873531,31.1464843 471.967931,31.1302084 472.040848,31.109375 C472.113765,31.0885416 472.171056,31.0657553 472.212723,31.0410156 C472.25439,31.0162759 472.290848,30.9895835 472.322098,30.9609375 L472.552567,30.9609375 L472.552567,33.3984375 C472.641109,33.3255205 472.737462,33.2565107 472.841629,33.1914062 C472.945797,33.1263018 473.05452,33.0703127 473.167801,33.0234375 C473.281083,32.9765623 473.396967,32.9394533 473.515458,32.9121094 C473.633948,32.8847655 473.750483,32.8710938 473.865067,32.8710938 C474.096839,32.8710938 474.296056,32.9069007 474.462723,32.9785156 C474.629391,33.0501306 474.765457,33.1595045 474.870926,33.3066406 C474.976396,33.4537768 475.05452,33.6399728 475.105301,33.8652344 C475.156083,34.0904959 475.182775,34.3554672 475.185379,34.6601562 L475.193192,36.1523438 C475.193192,36.2591151 475.19189,36.3535152 475.189286,36.4355469 C475.186682,36.5175785 475.177567,36.6041662 475.161942,36.6953125 L475.665848,36.671875 L475.665848,37 L474.033036,37 L474.033036,36.7617188 C474.155432,36.7617188 474.24853,36.7376304 474.312333,36.6894531 C474.376135,36.6412758 474.422359,36.5742192 474.451004,36.4882812 C474.47965,36.4023433 474.495926,36.2994798 474.499833,36.1796875 C474.503739,36.0598952 474.505692,35.9283861 474.505692,35.7851562 L474.505692,34.6679688 C474.505692,34.2070289 474.432776,33.8626313 474.286942,33.6347656 C474.141108,33.4068999 473.909339,33.2929688 473.591629,33.2929688 C473.500483,33.2929688 473.40413,33.3059895 473.302567,33.3320312 C473.201004,33.358073 473.105302,33.3932289 473.015458,33.4375 C472.925613,33.4817711 472.840979,33.5338539 472.761551,33.59375 C472.682124,33.6536461 472.612463,33.7187496 472.552567,33.7890625 L472.552567,36.1523438 C472.552567,36.2591151 472.549963,36.3535152 472.544754,36.4355469 C472.539546,36.5175785 472.52913,36.6041662 472.513504,36.6953125 L473.017411,36.671875 L473.017411,37 L471.384598,37 L471.384598,36.7617188 C471.506995,36.7617188 471.600744,36.7376304 471.665848,36.6894531 C471.730953,36.6412758 471.778478,36.5742192 471.808426,36.4882812 C471.838374,36.4023433 471.855301,36.2994798 471.859208,36.1796875 C471.863114,36.0598952 471.865067,35.9283861 471.865067,35.7851562 L471.865067,32 Z M478.167411,33.1835938 C477.854909,33.1835938 477.597099,33.2753897 477.393973,33.4589844 C477.190847,33.642579 477.056734,33.9401021 476.991629,34.3515625 L479.030692,34.3515625 C479.030692,34.2109368 479.015067,34.0709642 478.983817,33.9316406 C478.952567,33.792317 478.902437,33.6673183 478.833426,33.5566406 C478.764416,33.445963 478.675224,33.3561201 478.565848,33.2871094 C478.456473,33.2180986 478.323662,33.1835938 478.167411,33.1835938 Z M479.784598,34.640625 L476.968192,34.6875 C476.965588,34.9947932 476.989025,35.2734363 477.038504,35.5234375 C477.087984,35.7734387 477.166108,35.9869783 477.272879,36.1640625 C477.379651,36.3411467 477.517019,36.4778641 477.684989,36.5742188 C477.852958,36.6705734 478.054128,36.71875 478.288504,36.71875 C478.413505,36.71875 478.541108,36.7018231 478.671317,36.6679688 C478.801526,36.6341144 478.927176,36.5878909 479.04827,36.5292969 C479.169364,36.4707028 479.280691,36.400391 479.382254,36.3183594 C479.483818,36.2363277 479.568452,36.148438 479.636161,36.0546875 L479.831473,36.2148438 C479.722098,36.3815113 479.595146,36.5227859 479.450614,36.6386719 C479.306082,36.7545579 479.156344,36.848958 479.001395,36.921875 C478.846446,36.994792 478.690849,37.0475259 478.534598,37.0800781 C478.378347,37.1126304 478.232516,37.1289062 478.097098,37.1289062 C477.821055,37.1289062 477.563896,37.0794276 477.325614,36.9804688 C477.087331,36.8815099 476.880953,36.7395843 476.706473,36.5546875 C476.531993,36.3697907 476.394625,36.1471367 476.294364,35.8867188 C476.194103,35.6263008 476.143973,35.333335 476.143973,35.0078125 C476.143973,34.7265611 476.19215,34.4576836 476.288504,34.2011719 C476.384859,33.9446602 476.521577,33.7174489 476.698661,33.5195312 C476.875745,33.3216136 477.087982,33.1640631 477.335379,33.046875 C477.582777,32.9296869 477.857513,32.8710938 478.159598,32.8710938 C478.380954,32.8710938 478.589936,32.9075517 478.786551,32.9804688 C478.983167,33.0533858 479.155691,33.1627597 479.304129,33.3085938 C479.452568,33.4544278 479.569754,33.6386708 479.655692,33.8613281 C479.74163,34.0839855 479.784598,34.3437485 479.784598,34.640625 Z M482.692411,33.3085938 C482.590848,33.3059896 482.487984,33.3248696 482.383817,33.3652344 C482.27965,33.4055992 482.177437,33.4648434 482.077176,33.5429688 C481.976915,33.6210941 481.882515,33.7148432 481.793973,33.8242188 C481.705431,33.9335943 481.626005,34.0546868 481.555692,34.1875 L481.563505,36.1523438 C481.563505,36.2591151 481.562202,36.3535152 481.559598,36.4355469 C481.556994,36.5175785 481.54788,36.6041662 481.532255,36.6953125 L482.036161,36.671875 L482.036161,37 L480.395536,37 L480.395536,36.7617188 C480.517932,36.7617188 480.61103,36.7376304 480.674833,36.6894531 C480.738635,36.6412758 480.784859,36.5742192 480.813505,36.4882812 C480.84215,36.4023433 480.858426,36.2994798 480.862333,36.1796875 C480.866239,36.0598952 480.868192,35.9283861 480.868192,35.7851562 L480.868192,33.9570312 C480.868192,33.8736975 480.869494,33.789714 480.872098,33.7050781 C480.874702,33.6204423 480.883817,33.5325525 480.899442,33.4414062 L480.333036,33.4648438 L480.333036,33.1367188 L480.57913,33.1367188 C480.693713,33.1367188 480.788765,33.1308594 480.864286,33.1191406 C480.939807,33.1074218 481.002957,33.0911459 481.053739,33.0703125 C481.10452,33.0494791 481.146838,33.0266928 481.180692,33.0019531 C481.214546,32.9772134 481.247098,32.950521 481.278348,32.921875 L481.508817,32.921875 C481.51663,33.0052088 481.523791,33.1087233 481.530301,33.2324219 C481.536812,33.3561204 481.542671,33.515624 481.54788,33.7109375 C481.607776,33.6119787 481.684598,33.5123703 481.778348,33.4121094 C481.872099,33.3118485 481.977566,33.2220056 482.094755,33.1425781 C482.211943,33.0631506 482.338243,32.9980471 482.473661,32.9472656 C482.609078,32.8964841 482.7484,32.8710938 482.89163,32.8710938 C482.964547,32.8710938 483.035509,32.8808593 483.10452,32.9003906 C483.173531,32.919922 483.233426,32.9505206 483.284208,32.9921875 C483.334989,33.0338544 483.376004,33.0859372 483.407255,33.1484375 C483.438505,33.2109378 483.45413,33.2864579 483.45413,33.375 C483.45413,33.4114585 483.446968,33.4518227 483.432645,33.4960938 C483.418322,33.5403648 483.394885,33.5820311 483.362333,33.6210938 C483.32978,33.6601564 483.288765,33.6927082 483.239286,33.71875 C483.189806,33.7447918 483.128609,33.7578125 483.055692,33.7578125 C482.995796,33.7578125 482.94176,33.7447918 482.893583,33.71875 C482.845405,33.6927082 482.805041,33.6595054 482.772489,33.6191406 C482.739937,33.5787758 482.716499,33.5319013 482.702176,33.4785156 C482.687853,33.4251299 482.684598,33.3684899 482.692411,33.3085938 Z" id="teacher"></path>
        </g>
    </g>
</svg>