<?xml version="1.0" encoding="UTF-8" standalone="no"?>
<svg width="30px" height="17px" viewBox="0 0 30 17" version="1.1" xmlns="http://www.w3.org/2000/svg" xmlns:xlink="http://www.w3.org/1999/xlink">
    <!-- Generator: Sketch 41.2 (35397) - http://www.bohemiancoding.com/sketch -->
    <title>book</title>
    <desc>Created with Sketch.</desc>
    <defs></defs>
    <g id="ideas-for-vis" stroke="none" stroke-width="1" fill="none" fill-rule="evenodd">
        <g id="Artboard" transform="translate(-175.000000, -48.000000)" fill="#000000">
            <path d="M204.3033,59.0307414 C204.3033,59.5135648 204.227352,59.8688958 204.075452,60.096745 C204.037477,60.1564198 203.739108,60.1862568 203.180335,60.1862568 L196.312342,60.1862568 L196.312342,58.6238698 L201.544711,58.6238698 C202.304208,58.6238698 202.683951,58.5723332 202.683951,58.4692586 C202.683951,58.2902342 202.003126,57.5768598 200.641456,56.3291139 C199.290635,55.0759431 198.512162,54.4493671 198.306013,54.4493671 C198.262613,54.5036169 198.208364,54.6853511 198.143264,54.994575 C198.029339,54.8969254 197.889648,54.7707964 197.724186,54.6161844 C197.558724,54.4615725 197.367497,54.2811945 197.150497,54.0750452 C196.749049,53.6790215 196.548327,53.296566 196.548327,52.9276673 C196.548327,52.5479185 196.735486,52.0488277 197.10981,51.4303797 C197.321384,51.0940309 199.705628,49.998201 204.262613,48.1428571 L203.473282,50.0877034 L197.809629,52.3905967 C197.901854,52.4773965 198.02527,52.583182 198.179882,52.7079566 C198.334494,52.8327312 198.525722,52.976491 198.753571,53.1392405 C200.033867,54.1157373 201.120204,55.0393266 202.012613,55.9100362 C202.905023,56.7807458 203.611616,57.6039744 204.132414,58.3797468 C204.246339,58.5479213 204.3033,58.7649173 204.3033,59.0307414 Z M198.00208,60.1862568 L191.199186,60.1862568 L191.199186,58.6238698 L195.365552,58.6238698 C195.452351,58.6238698 195.49575,58.5506336 195.49575,58.4041591 C195.49575,58.2956595 195.461845,58.1396936 195.394033,57.9362568 C195.32622,57.73282 195.243491,57.5307424 195.145841,57.3300181 C195.048191,57.1292938 194.946474,56.9529845 194.840687,56.801085 C194.7349,56.6491855 194.644033,56.5732369 194.568083,56.5732369 L195.30859,54.8562387 C195.666638,55.2631123 195.973145,55.857139 196.228119,56.6383363 C196.483094,57.3815589 196.610579,58.0433967 196.610579,58.6238698 L198.00208,58.6238698 L198.00208,60.1862568 Z M195.723599,52.2929476 L194.014738,51.2025316 L194.730832,50.0470163 L196.44783,51.0723327 L195.723599,52.2929476 Z M191.622333,51.3164557 L192.314014,50.1121157 L194.014738,51.2025316 L193.314919,52.3336347 L191.622333,51.3164557 Z M192.888924,60.1862568 L191.025452,60.1862568 C190.499229,60.1862568 190.066593,60.1252267 189.727532,60.0031646 C189.38847,59.8811025 189.138925,59.6885185 188.978888,59.4254069 C188.818851,59.1622952 188.738834,58.69711 188.738834,58.0298373 L188.738834,49.6726944 L189.959448,48.1428571 L189.959448,58.0298373 C189.959448,58.4258609 190.143895,58.6238698 190.512794,58.6238698 L192.888924,58.6238698 L192.888924,60.1862568 Z M186.424955,58.0298373 C186.424955,59.0280339 186.232371,59.679022 185.847197,59.982821 C185.700723,60.0967456 185.445752,60.2025312 185.082278,60.3001808 C184.718805,60.3978305 184.244126,60.4981912 183.658228,60.6012658 C183.088605,60.6934905 182.542046,60.762658 182.018535,60.8087703 C181.495025,60.8548827 180.98644,60.8779385 180.492767,60.8779385 C176.999078,60.8779385 175.25226,59.9638428 175.25226,58.1356239 C175.25226,57.6907754 175.366183,57.2567833 175.594033,56.8336347 C175.669982,56.6925852 175.927665,56.323692 176.367089,55.7269439 C176.133814,56.4755914 176.017179,57.0018068 176.017179,57.3056058 C176.017179,58.2007278 176.632905,58.792042 177.864376,59.079566 C178.168175,59.1500908 178.560124,59.2029835 179.040235,59.2382459 C179.520346,59.2735083 180.094029,59.2911392 180.761302,59.2911392 C181.141051,59.2911392 181.551987,59.2789332 181.994123,59.2545208 C182.436259,59.2301084 182.920431,59.1907778 183.446655,59.136528 C184.8897,58.9954785 185.611212,58.7866198 185.611212,58.5099458 C185.611212,58.1898718 185.342679,57.690781 184.805606,57.0126582 L185.55425,55.3770344 C186.134723,56.3209812 186.424955,57.20524 186.424955,58.0298373 Z M181.965642,63.1564195 L181.216998,64.4339964 L179.386076,63.3679928 L180.094033,62.0904159 L181.965642,63.1564195 Z" id="book"></path>
        </g>
    </g>
</svg>