<?xml version="1.0" encoding="UTF-8"?>
<svg width="70px" height="20px" viewBox="0 0 70 20" version="1.1" xmlns="http://www.w3.org/2000/svg" xmlns:xlink="http://www.w3.org/1999/xlink">
    <!-- Generator: Sketch 41.2 (35397) - http://www.bohemiancoding.com/sketch -->
    <title>doctor</title>
    <desc>Created with Sketch.</desc>
    <defs></defs>
    <g id="letters" stroke="none" stroke-width="1" fill="none" fill-rule="evenodd">
        <g id="doctor" fill="#000000">
            <path d="M68.9250453,13.152787 L59.4925574,13.152787 L59.4925574,11.8356687 L65.9958291,11.8356687 C65.9958291,11.7945085 65.9489529,11.7133328 65.8551992,11.592139 C65.7614456,11.4709452 65.637967,11.3406067 65.4847597,11.2011195 C65.3315525,11.0616323 65.1589111,10.9221472 64.9668304,10.78266 C64.7747497,10.6431728 64.5849585,10.5231242 64.3974511,10.4225105 C63.8715158,10.1435361 63.379888,10.004051 62.922553,10.004051 C62.570405,10.004051 61.9758784,10.1732624 61.1389553,10.5116904 C61.4819566,9.87599467 61.7357737,9.46668596 61.9004143,9.28375194 C62.2296955,8.92703062 62.6641573,8.74867263 63.2038126,8.74867263 C64.004149,8.74867263 64.9485316,9.22658057 66.036989,10.1824108 C66.4120037,10.511692 66.8384623,10.8135286 67.3163774,11.0879296 C67.7942925,11.3623306 68.3305098,11.6115745 68.9250453,11.8356687 L68.9250453,13.152787 Z M60.9170346,13.152787 L59.3460966,13.152787 C58.9024816,13.152787 58.5377624,13.1013376 58.251928,12.9984372 C57.9660936,12.8955368 57.7557226,12.7331853 57.6208088,12.5113778 C57.485895,12.2895703 57.418439,11.8974114 57.418439,11.3348893 L57.418439,4.28967835 L58.4474377,3 L58.4474377,11.3348893 C58.4474377,11.6687439 58.6029293,11.8356687 58.9139171,11.8356687 L60.9170346,11.8356687 L60.9170346,13.152787 Z M55.4403606,12.1443683 C55.4403606,12.8898244 55.0653515,13.2625468 54.315322,13.2625468 C53.9311606,13.2625468 53.4578259,13.1710812 52.8953038,12.9881472 C52.2870482,12.7914931 51.8777395,12.5719756 51.6673654,12.329588 C51.4981515,12.8783901 51.1002759,13.152787 50.4737269,13.152787 L48.7724491,13.152787 L48.7724491,11.8356687 C50.3822684,11.8356687 51.2626252,11.7807893 51.4135457,11.6710289 C51.495866,11.6024286 51.6330645,11.3280317 51.8251452,10.8478299 C51.9623457,10.5048287 52.0938276,10.2178552 52.2195947,9.98690104 C52.3453618,9.75594685 52.4711271,9.56958562 52.5968942,9.42781176 C52.7226614,9.2860379 52.8541432,9.18428238 52.9913437,9.12254215 C53.1285442,9.06080192 53.2771759,9.02993227 53.4372431,9.02993227 C53.9494584,9.02993227 54.422793,9.43009442 54.8572613,10.2304307 C55.049342,10.5871521 55.1968304,10.9244316 55.2997308,11.2422794 C55.4026311,11.5601273 55.4495073,11.8608206 55.4403606,12.1443683 Z M54.5828617,11.6710289 C54.5828617,11.5246817 54.5428455,11.3669035 54.4628118,11.1976895 C54.3827782,11.0284755 54.285596,10.8706973 54.1712622,10.7243501 C54.0569284,10.5780029 53.9288766,10.4568109 53.7871027,10.3607706 C53.6453288,10.2647302 53.5081304,10.2167107 53.3755032,10.2167107 C53.2886096,10.2167107 53.1834241,10.2544403 53.0599436,10.3299006 C52.9364632,10.4053609 52.8175578,10.4956832 52.7032241,10.6008703 C52.5888903,10.7060573 52.4905648,10.8158161 52.4082445,10.9301498 C52.3259242,11.0444836 52.2847646,11.1450958 52.2847646,11.2319894 C52.2847646,11.2731496 52.3190642,11.3211691 52.3876645,11.3760493 C52.4562647,11.4309295 52.5454437,11.4869522 52.6552041,11.544119 C52.7649646,11.6012859 52.8861565,11.6573086 53.0187837,11.7121888 C53.1514108,11.767069 53.2817494,11.8150885 53.4098032,11.8562486 C53.537857,11.8974088 53.6567623,11.9317084 53.7665227,11.9591485 C53.8762831,11.9865886 53.9654621,12.0003085 54.0340624,12.0003085 C54.3999304,12.0003085 54.5828617,11.8905497 54.5828617,11.6710289 Z M50.1832063,13.152787 L48.4750685,13.152787 C48.3653081,13.9211098 47.8713937,14.5796624 46.9933104,15.1284644 C46.1975474,15.631533 45.3835033,15.8830635 44.5511535,15.8830635 C44.1121119,15.8830635 43.7130931,15.8087477 43.3540851,15.6601138 C42.9950771,15.5114799 42.6863805,15.3056822 42.4279862,15.0427146 C42.169592,14.7797469 41.9706542,14.4653338 41.831167,14.0994658 C41.6916798,13.7335977 41.6219373,13.3311489 41.6219373,12.8921073 C41.6219373,12.2518383 41.7431292,11.623012 41.9855168,11.0056097 C42.0952772,10.7174887 42.1924595,10.5105477 42.2770664,10.3847805 C42.3616734,10.2590134 42.431416,10.1961308 42.4862962,10.1961308 C42.4862962,10.2830244 42.474863,10.413363 42.4519962,10.5871503 C42.4291295,10.7609376 42.4028331,10.9427255 42.3731063,11.1325196 C42.3433795,11.3223136 42.3182265,11.5029582 42.2976464,11.6744589 C42.2770663,11.8459595 42.2667765,11.9774414 42.2667765,12.0689084 C42.2667765,12.9744317 42.5411734,13.6352709 43.0899754,14.0514458 C43.698231,14.4996342 44.290471,14.723725 44.8667131,14.723725 C45.099954,14.723725 45.3446246,14.6757055 45.6007322,14.5796652 C45.8568398,14.4836248 46.0992237,14.3578595 46.3278912,14.2023656 C46.5565588,14.0468717 46.7634998,13.8662271 46.9487205,13.6604263 C47.1339411,13.4546256 47.2768562,13.2442546 47.3774699,13.0293071 L47.3774699,4.28967835 L48.4750685,3 L48.4750685,11.8356687 L50.1832063,11.8356687 L50.1832063,13.152787 Z M38.3586394,12.3021481 C38.3586394,12.5033755 38.3437763,12.6668703 38.3140495,12.7926374 C38.2843227,12.9184046 38.2145802,13.0247334 38.1048198,13.111627 C37.9950594,13.1985207 37.8304212,13.2705499 37.6109004,13.3277168 C37.3913796,13.3848836 37.0872564,13.443193 36.6985216,13.5026465 C36.0491058,13.5986869 35.4637258,13.6467063 34.9423638,13.6467063 C34.3981351,13.6467063 34.0322726,13.5895403 33.8447652,13.4752066 C33.593231,13.324286 33.4674657,12.9904364 33.4674657,12.4736479 C33.4674657,12.3959009 33.4811856,12.271279 33.5086257,12.0997783 C33.5360658,11.9282777 33.5703654,11.7590663 33.6115255,11.592139 C33.6526857,11.4252117 33.6995618,11.2788667 33.7521554,11.1530995 C33.8047489,11.0273324 33.8561983,10.9644498 33.9065052,10.9644498 C33.9156519,10.9644498 33.9247984,10.9667364 33.9339451,10.9713098 L33.9339451,11.4789491 C33.9339451,11.8265238 33.9682447,12.0231749 34.036845,12.0689084 C34.2563658,12.1923888 34.6359482,12.2541281 35.1756035,12.2541281 C35.3631109,12.2541281 35.5666219,12.2461249 35.7861427,12.2301182 C36.0056636,12.2141114 36.2457609,12.1878151 36.5064418,12.1512283 C37.2061644,12.0551879 37.5560205,11.9225627 37.5560205,11.7533488 C37.5560205,11.5246813 37.4005289,10.9736008 37.0895411,10.1000909 C36.7694065,9.18999418 36.5453157,8.71665952 36.4172619,8.68007272 L37.1855809,7.08855476 C37.2679013,7.11142151 37.4805589,7.78140728 37.8235601,9.09853218 C38.1802815,10.5116974 38.3586394,11.5795587 38.3586394,12.3021481 Z M32.3468861,12.1786682 C32.3468861,12.5856964 32.2828602,12.8852464 32.1548064,13.0773271 C32.1227929,13.1276339 31.8712624,13.152787 31.4002074,13.152787 L25.6103748,13.152787 L25.6103748,11.8356687 L30.0213491,11.8356687 C30.6616182,11.8356687 30.9817479,11.7922225 30.9817479,11.7053288 C30.9817479,11.5544083 30.407801,10.9530217 29.2598901,9.90115115 C28.1211259,8.84470722 27.4648599,8.31649318 27.2910726,8.31649318 C27.2544858,8.36222669 27.208753,8.51543162 27.1538728,8.77611259 C27.0578324,8.69379229 26.9400704,8.58746349 26.8005833,8.457123 C26.6610961,8.32678252 26.4998879,8.1747209 26.3169539,8.00093359 C25.978526,7.66707901 25.8093145,7.34466265 25.8093145,7.03367483 C25.8093145,6.7135403 25.9670927,6.29279838 26.2826539,5.77143645 C26.4610146,5.48788873 28.4709719,4.56408581 32.3125862,3 L31.647167,4.6395379 L26.8726132,6.58091541 C26.9503601,6.65408901 27.0544023,6.74326801 27.1847428,6.84845507 C27.3150832,6.95364212 27.4762914,7.07483409 27.6683721,7.2120346 C28.7476828,8.03523766 29.6634825,8.81383887 30.4157986,9.5478616 C31.1681147,10.2818843 31.7637847,10.9758798 32.2028263,11.6298689 C32.2988667,11.7716428 32.3468861,11.9545741 32.3468861,12.1786682 Z M27.0348519,13.152787 L21.2998993,13.152787 L21.2998993,11.8356687 L24.8122148,11.8356687 C24.8853884,11.8356687 24.9219747,11.7739294 24.9219747,11.6504489 C24.9219747,11.5589819 24.8933916,11.4275001 24.8362248,11.2559994 C24.7790579,11.0844988 24.7093153,10.914144 24.626995,10.7449301 C24.5446747,10.5757161 24.4589257,10.4270844 24.3697454,10.2990306 C24.280565,10.1709768 24.2039626,10.1069509 24.1399357,10.1069509 L24.7641949,8.65949274 C25.066036,9.00249402 25.3244264,9.50326837 25.5393739,10.1618308 C25.7543213,10.7883798 25.8617934,11.3463202 25.8617934,11.8356687 L27.0348519,11.8356687 L27.0348519,13.152787 Z M25.1140544,6.49859551 L23.6734563,5.57935669 L24.2771355,4.60523794 L25.7245936,5.46959683 L25.1140544,6.49859551 Z M21.6566188,5.67539657 L22.2397181,4.66011787 L23.6734563,5.57935669 L23.083497,6.53289547 L21.6566188,5.67539657 Z M22.6832165,13.152787 L21.3249383,13.152787 C21.2746314,13.6284154 21.1431495,14.0754537 20.9304888,14.4939153 C20.717828,14.9123768 20.4457177,15.2759527 20.1141498,15.5846539 C19.7825819,15.893355 19.4029995,16.1380256 18.9753913,16.3186729 C18.547783,16.4993203 18.0961714,16.5896426 17.620543,16.5896426 C16.9528339,16.5896426 16.3171477,16.3266789 15.7134654,15.8007436 C15.1189299,15.2793816 14.7599273,14.6802817 14.6364468,14.0034259 C14.8376742,14.3738673 15.240123,14.7305832 15.8438053,15.0735845 C16.4520609,15.4211591 16.9711284,15.5949438 17.4010233,15.5949438 C17.7531713,15.5949438 18.101884,15.5332045 18.4471719,15.4097241 C18.7924599,15.2862436 19.1091597,15.1170322 19.3972807,14.9020847 C19.6854018,14.6871373 19.935789,14.4333201 20.1484498,14.1406257 C20.3611106,13.8479313 20.5108855,13.5300882 20.5977792,13.1870869 C20.5337523,13.200807 20.472013,13.2076669 20.4125594,13.2076669 C20.1290117,13.2076669 19.862618,13.1607908 19.6133704,13.0670371 C19.3641229,12.9732834 19.146892,12.8440882 18.9616713,12.6794476 C18.7764506,12.514807 18.6301056,12.3227291 18.5226318,12.1032083 C18.4151581,11.8836875 18.3614221,11.6481635 18.3614221,11.3966292 C18.3614221,11.0078945 18.54664,10.4956869 18.9170813,9.8599912 C19.3195362,9.1694153 19.6968319,8.82413253 20.0489799,8.82413253 C20.5063149,8.82413253 20.8721775,9.22886797 21.1465785,10.038351 C21.3569526,10.6420332 21.4621381,11.2411331 21.4621381,11.8356687 L22.6832165,11.8356687 L22.6832165,13.152787 Z M20.762419,11.6710289 C20.762419,11.5246817 20.7372659,11.3771933 20.6869591,11.2285594 C20.6366522,11.0799256 20.5669097,10.9450138 20.4777293,10.82382 C20.388549,10.7026262 20.2845068,10.6043006 20.1655997,10.5288403 C20.0466926,10.4533801 19.9209274,10.4156505 19.7883002,10.4156505 C19.7059799,10.4156505 19.6293774,10.4396602 19.5584905,10.4876804 C19.4876036,10.5357006 19.4235776,10.5962966 19.3664108,10.6694702 C19.3092439,10.7426438 19.2635111,10.8226762 19.2292109,10.9095699 C19.1949108,10.9964635 19.177761,11.0787826 19.177761,11.1565295 C19.177761,11.2434232 19.2246371,11.3291722 19.3183908,11.4137792 C19.4121445,11.4983862 19.5287632,11.5715587 19.6682504,11.6332989 C19.8077376,11.6950392 19.9563692,11.7442019 20.1141498,11.7807887 C20.2719304,11.8173755 20.4171321,11.8356687 20.5497592,11.8356687 C20.6915331,11.8356687 20.762419,11.7807893 20.762419,11.6710289 Z M16.0129041,12.8029274 C16.0129041,13.9737051 15.5510026,14.9706805 14.6271858,15.7938836 C13.8314229,16.5027529 13.0631115,16.8571822 12.3222288,16.8571822 C11.384692,16.8571822 10.4700356,16.2420758 9.57823231,15.0118446 C9.65597926,15.0712982 9.75659146,15.1353241 9.88007192,15.2039244 C10.1773397,15.3274048 10.4814629,15.4268737 10.7924507,15.502334 C11.1034386,15.5777942 11.4212817,15.6178105 11.7459895,15.6223838 C13.227755,15.6223838 14.3893686,14.8243462 15.2308651,13.2282469 C15.2903186,13.1093398 15.3200449,12.9927211 15.3200449,12.8783873 C15.3200449,12.2564117 14.8581435,11.6207255 13.9343267,10.9713098 L14.531146,9.67477144 C14.7506668,9.8165453 14.9518912,9.99833325 15.1348252,10.2201407 C15.3177592,10.4419482 15.4743941,10.6934787 15.6047346,10.9747398 C15.7350751,11.2560008 15.8356873,11.5521208 15.9065742,11.8631086 C15.9774611,12.1740965 16.0129041,12.4873663 16.0129041,12.8029274 Z M10.4950701,11.6847489 L9.45921145,13.152787 L9.45921145,4.25537839 L10.4950701,3 L10.4950701,11.6847489 Z M6.43841431,11.3554693 C6.43841431,11.6664571 6.39268149,11.9534305 6.30121448,12.2163982 C6.20974748,12.4793658 6.08055227,12.7080299 5.91362498,12.9023973 C5.74669769,13.0967647 5.54890326,13.247683 5.32023574,13.3551567 C5.09156823,13.4626305 4.84003773,13.5163665 4.56563671,13.5163665 C4.00768797,13.5163665 3.35370868,13.3700215 2.60367923,13.0773271 C2.2012244,12.9172598 2,12.6177099 2,12.1786682 C2,11.8951205 2.12805189,11.4469389 2.38415951,10.83411 C2.64941383,10.1892676 2.88722448,9.80739853 3.09759859,9.68849142 C2.95582473,9.48726401 2.88493887,9.34777892 2.88493887,9.27003196 C2.88493887,8.95447079 3.2393682,8.4742762 3.9482375,7.82943381 C3.9482375,8.09468813 4.00197356,8.3393587 4.1094473,8.56345287 C4.21692103,8.78754703 4.37812921,8.98648479 4.59307667,9.1602721 C4.60679673,9.16484545 4.64109634,9.18885518 4.69597654,9.23230201 C4.75085675,9.27574884 4.82059929,9.32834158 4.90520627,9.39008181 C4.98981326,9.45182204 5.07899225,9.5169913 5.17274593,9.58559156 C5.26649961,9.65419181 5.35682193,9.72164772 5.44371558,9.7879613 C5.53060924,9.85427488 5.60492507,9.9114409 5.6666653,9.95946108 C5.72840553,10.0074813 5.76842174,10.0383509 5.78671514,10.052071 C6.22118343,10.3904989 6.43841431,10.8249606 6.43841431,11.3554693 Z M5.5054555,11.7945087 C5.5054555,11.6710283 5.20819219,11.3600451 4.61365665,10.8615499 C4.01454775,10.3584814 3.64868522,10.1069509 3.51605806,10.1069509 C3.4566045,10.1069509 3.38571863,10.1675469 3.30339833,10.2887407 C3.22107802,10.4099344 3.14447555,10.5505629 3.07358862,10.7106301 C3.00270169,10.8706974 2.94096239,11.0273323 2.88836886,11.1805395 C2.83577533,11.3337467 2.80947896,11.4423622 2.80947896,11.5063891 C2.80947896,11.5612693 2.82091217,11.6092888 2.84377892,11.6504489 C3.23708705,12.0025969 3.75615452,12.1786682 4.40099692,12.1786682 C5.13730633,12.1786682 5.5054555,12.0506163 5.5054555,11.7945087 Z"></path>
        </g>
    </g>
</svg>