<?xml version="1.0" encoding="UTF-8" standalone="no"?>
<svg width="54px" height="12px" viewBox="0 0 54 12" version="1.1" xmlns="http://www.w3.org/2000/svg" xmlns:xlink="http://www.w3.org/1999/xlink">
    <!-- Generator: Sketch 41.2 (35397) - http://www.bohemiancoding.com/sketch -->
    <title>doctor</title>
    <desc>Created with Sketch.</desc>
    <defs></defs>
    <g id="ideas-for-vis" stroke="none" stroke-width="1" fill="none" fill-rule="evenodd">
        <g id="Artboard" transform="translate(-554.000000, -48.000000)" fill="#000000">
            <path d="M607.198101,56.4575045 L599.738789,56.4575045 L599.738789,55.4159132 L604.881646,55.4159132 C604.881646,55.3833633 604.844576,55.3191687 604.770434,55.2233273 C604.696293,55.127486 604.598644,55.0244128 604.477487,54.9141049 C604.356329,54.8037969 604.219802,54.6934906 604.067902,54.5831826 C603.916003,54.4728747 603.765914,54.3779389 603.617631,54.2983725 C603.201716,54.0777566 602.812931,53.9674503 602.451266,53.9674503 C602.172784,53.9674503 601.702625,54.1012645 601.040778,54.3688969 C601.312027,53.8661819 601.512748,53.5424962 601.642948,53.39783 C601.903347,53.115731 602.246924,52.9746835 602.673689,52.9746835 C603.306604,52.9746835 604.053432,53.3526183 604.914195,54.1084991 C605.210761,54.3688982 605.548009,54.6075939 605.925949,54.8245931 C606.30389,55.0415924 606.727936,55.2386971 607.198101,55.4159132 L607.198101,56.4575045 Z M600.86528,56.4575045 L599.622966,56.4575045 C599.27215,56.4575045 598.983726,56.4168178 598.757685,56.335443 C598.531645,56.2540683 598.365281,56.125679 598.25859,55.9502712 C598.151898,55.7748635 598.098553,55.46474 598.098553,55.0198915 L598.098553,49.4484629 L598.912297,48.4285714 L598.912297,55.0198915 C598.912297,55.2839073 599.035261,55.4159132 599.281194,55.4159132 L600.86528,55.4159132 L600.86528,56.4575045 Z M596.534268,55.6600362 C596.534268,56.2495509 596.237706,56.5443038 595.644575,56.5443038 C595.340776,56.5443038 594.966458,56.4719718 594.521609,56.3273056 C594.040594,56.1717895 593.716909,55.9981926 593.550543,55.8065099 C593.416726,56.2405085 593.102082,56.4575045 592.6066,56.4575045 L591.261212,56.4575045 L591.261212,55.4159132 C592.534274,55.4159132 593.23047,55.372514 593.349819,55.2857143 C593.414919,55.2314645 593.523417,55.0144684 593.675317,54.6347197 C593.783816,54.3634706 593.887793,54.1365289 593.987251,53.9538879 C594.086709,53.7712468 594.186166,53.6238704 594.285624,53.5117541 C594.385082,53.3996378 594.489059,53.3191684 594.597559,53.2703436 C594.706058,53.2215187 594.823598,53.1971067 594.950181,53.1971067 C595.355246,53.1971067 595.729564,53.5135592 596.073147,54.1464738 C596.225046,54.4285728 596.341681,54.6952971 596.423056,54.9466546 C596.504431,55.1980121 596.541501,55.4358036 596.534268,55.6600362 Z M595.856148,55.2857143 C595.856148,55.1699813 595.824503,55.0452086 595.761212,54.9113924 C595.69792,54.7775762 595.621067,54.6528035 595.530651,54.5370705 C595.440235,54.4213376 595.33897,54.3254977 595.226854,54.2495479 C595.114737,54.1735982 595.006239,54.1356239 594.901356,54.1356239 C594.83264,54.1356239 594.749458,54.1654608 594.651808,54.2251356 C594.554159,54.2848104 594.460127,54.3562383 594.369711,54.4394213 C594.279294,54.5226044 594.201537,54.6094028 594.136438,54.6998192 C594.071338,54.7902355 594.038789,54.8698007 594.038789,54.9385172 C594.038789,54.9710671 594.065913,55.0090414 594.120163,55.0524412 C594.174413,55.0958411 594.244936,55.1401444 594.331736,55.1853526 C594.418536,55.2305608 594.514376,55.2748642 594.619259,55.318264 C594.724142,55.3616639 594.827215,55.3996382 594.928481,55.4321881 C595.029747,55.464738 595.123779,55.4918625 595.210579,55.5135624 C595.297378,55.5352623 595.367902,55.5461121 595.422152,55.5461121 C595.711484,55.5461121 595.856148,55.4593137 595.856148,55.2857143 Z M592.376854,56.4575045 L591.02604,56.4575045 C590.93924,57.0651025 590.548647,57.5858929 589.85425,58.0198915 C589.224952,58.4177235 588.581197,58.6166365 587.922966,58.6166365 C587.575767,58.6166365 587.260218,58.5578668 586.976311,58.4403255 C586.692404,58.3227842 586.448283,58.1600372 586.243942,57.9520796 C586.039601,57.7441219 585.882279,57.4954807 585.771971,57.2061483 C585.661663,56.9168159 585.60651,56.5985551 585.60651,56.2513562 C585.60651,55.7450246 585.70235,55.247742 585.894033,54.7594937 C585.980832,54.5316444 586.057685,54.3679933 586.124593,54.2685353 C586.191501,54.1690773 586.246654,54.119349 586.290054,54.119349 C586.290054,54.1880654 586.281013,54.2911386 586.26293,54.4285714 C586.244846,54.5660043 586.224051,54.7097642 586.200543,54.8598553 C586.177034,55.0099465 586.157143,55.1528022 586.140868,55.2884268 C586.124593,55.4240513 586.116456,55.5280286 586.116456,55.6003617 C586.116456,56.3164593 586.333452,56.839058 586.76745,57.1681736 C587.248465,57.5226058 587.716815,57.6998192 588.172514,57.6998192 C588.356963,57.6998192 588.550451,57.6618449 588.752984,57.5858951 C588.955516,57.5099454 589.147196,57.4104889 589.328029,57.2875226 C589.508862,57.1645563 589.672513,57.0217006 589.818987,56.8589512 C589.965462,56.6962017 590.078481,56.5298381 590.158047,56.3598553 L590.158047,49.4484629 L591.02604,48.4285714 L591.02604,55.4159132 L592.376854,55.4159132 L592.376854,56.4575045 Z M583.025859,55.7848101 C583.025859,55.9439429 583.014105,56.0732364 582.990597,56.1726944 C582.967089,56.2721524 582.911935,56.3562384 582.825136,56.4249548 C582.738336,56.4936712 582.608138,56.5506327 582.434539,56.5958409 C582.26094,56.6410491 582.020436,56.6871607 581.71302,56.7341772 C581.199455,56.810127 580.73653,56.8481013 580.324232,56.8481013 C579.89385,56.8481013 579.604522,56.8028938 579.456239,56.7124774 C579.257323,56.5931278 579.157866,56.329116 579.157866,55.920434 C579.157866,55.8589509 579.168716,55.7603985 579.190416,55.624774 C579.212116,55.4891494 579.23924,55.3553352 579.27179,55.2233273 C579.30434,55.0913194 579.34141,54.9755882 579.383002,54.8761302 C579.424593,54.7766722 579.46528,54.7269439 579.505063,54.7269439 C579.512297,54.7269439 579.51953,54.7287522 579.526763,54.7323689 L579.526763,55.1338156 C579.526763,55.4086813 579.553888,55.5641951 579.608137,55.6003617 C579.781737,55.6980113 580.081915,55.7468354 580.50868,55.7468354 C580.656963,55.7468354 580.817902,55.7405064 580.991501,55.7278481 C581.1651,55.7151898 581.354972,55.6943944 581.561121,55.6654611 C582.114469,55.5895114 582.391139,55.48463 582.391139,55.3508137 C582.391139,55.169981 582.268175,54.7341807 582.022242,54.0433996 C581.769077,53.3236854 581.591863,52.9493672 581.490597,52.920434 L582.098192,51.6618445 C582.163292,51.6799278 582.331463,52.2097597 582.602713,53.2513562 C582.884812,54.3689025 583.025859,55.2133787 583.025859,55.7848101 Z M578.2717,55.6871609 C578.2717,56.0090432 578.221067,56.2459305 578.119801,56.39783 C578.094485,56.4376132 577.895572,56.4575045 577.523056,56.4575045 L572.944394,56.4575045 L572.944394,55.4159132 L576.43264,55.4159132 C576.938972,55.4159132 577.192134,55.3815555 577.192134,55.3128391 C577.192134,55.1934895 576.738251,54.7179065 575.83047,53.8860759 C574.929923,53.0506287 574.410941,52.6329114 574.273508,52.6329114 C574.244575,52.6690779 574.208409,52.7902341 574.165009,52.9963834 C574.089059,52.9312836 573.995932,52.8471976 573.885624,52.744123 C573.775316,52.6410483 573.647831,52.5207963 573.503165,52.3833635 C573.235532,52.1193477 573.101718,51.8643774 573.101718,51.6184448 C573.101718,51.365279 573.226491,51.0325518 573.47604,50.6202532 C573.617089,50.3960206 575.206585,49.6654673 578.244575,48.4285714 L577.718354,49.7251356 L573.942586,51.2603978 C574.004069,51.3182643 574.086347,51.388788 574.189421,51.4719711 C574.292496,51.5551541 574.419981,51.650994 574.571881,51.7594937 C575.425411,52.4104915 576.149635,53.0262177 576.744575,53.6066908 C577.339515,54.1871638 577.810577,54.7359829 578.157776,55.2531646 C578.233726,55.3652808 578.2717,55.5099449 578.2717,55.6871609 Z M574.070886,56.4575045 L569.535624,56.4575045 L569.535624,55.4159132 L572.313201,55.4159132 C572.371067,55.4159132 572.4,55.3670891 572.4,55.2694394 C572.4,55.1971063 572.377396,55.0931291 572.332188,54.9575045 C572.28698,54.82188 572.231827,54.6871616 572.166727,54.5533454 C572.101627,54.4195292 572.033816,54.3019897 571.963291,54.2007233 C571.892766,54.099457 571.832188,54.0488246 571.781555,54.0488246 L572.275226,52.9041591 C572.513925,53.1754082 572.718263,53.571426 572.888246,54.0922242 C573.058229,54.5877059 573.143219,55.0289312 573.143219,55.4159132 L574.070886,55.4159132 L574.070886,56.4575045 Z M572.551899,51.1952984 L571.412658,50.4683544 L571.890054,49.6980108 L573.03472,50.3815552 L572.551899,51.1952984 Z M569.817722,50.5443038 L570.278843,49.7414105 L571.412658,50.4683544 L570.946112,51.2224231 L569.817722,50.5443038 Z M570.629566,56.4575045 L569.555425,56.4575045 C569.515642,56.8336366 569.411665,57.1871593 569.24349,57.5180832 C569.075316,57.8490071 568.860128,58.1365268 568.59792,58.380651 C568.335713,58.6247752 568.035535,58.8182633 567.697378,58.9611212 C567.359221,59.103979 567.002081,59.1754069 566.625949,59.1754069 C566.097918,59.1754069 565.59521,58.9674524 565.117812,58.5515371 C564.647647,58.1392384 564.363744,57.6654638 564.266094,57.1301989 C564.425227,57.4231479 564.743488,57.7052428 565.220886,57.9764919 C565.701901,58.2513576 566.112385,58.3887884 566.452351,58.3887884 C566.730833,58.3887884 567.006599,58.3399643 567.279656,58.2423146 C567.552714,58.144665 567.803163,58.0108508 568.031013,57.840868 C568.258862,57.6708852 568.456871,57.4701639 568.625045,57.238698 C568.79322,57.0072321 568.911663,56.7558784 568.98038,56.4846293 C568.929747,56.4954793 568.880923,56.5009042 568.833906,56.5009042 C568.609673,56.5009042 568.399006,56.463834 568.201899,56.3896926 C568.004791,56.3155512 567.833003,56.2133822 567.686528,56.0831826 C567.540054,55.9529831 567.424322,55.8010859 567.339331,55.6274864 C567.25434,55.453887 567.211845,55.2676321 567.211845,55.0687161 C567.211845,54.7613005 567.358317,54.3562412 567.651266,53.8535262 C567.969531,53.3074114 568.267901,53.034358 568.546383,53.034358 C568.908049,53.034358 569.197377,53.3544272 569.414376,53.994575 C569.580742,54.4719735 569.663924,54.9457481 569.663924,55.4159132 L570.629566,55.4159132 L570.629566,56.4575045 Z M569.110579,55.2857143 C569.110579,55.1699813 569.090687,55.053346 569.050904,54.9358047 C569.011121,54.8182634 568.955968,54.7115737 568.885443,54.6157324 C568.814918,54.519891 568.732641,54.4421341 568.638608,54.3824593 C568.544575,54.3227845 568.445118,54.2929476 568.340235,54.2929476 C568.275135,54.2929476 568.214557,54.3119347 568.158499,54.3499096 C568.102441,54.3878845 568.051809,54.4358044 568.0066,54.4936709 C567.961392,54.5515374 567.925226,54.6148279 567.898101,54.6835443 C567.870976,54.7522607 567.857414,54.8173595 567.857414,54.8788427 C567.857414,54.9475591 567.894484,55.0153704 567.968626,55.0822785 C568.042767,55.1491866 568.13499,55.2070522 568.245298,55.255877 C568.355606,55.3047019 568.473146,55.3435803 568.59792,55.3725136 C568.722695,55.4014468 568.837522,55.4159132 568.942405,55.4159132 C569.054521,55.4159132 569.110579,55.372514 569.110579,55.2857143 Z M565.354611,56.1808318 C565.354611,57.1066954 564.989335,57.8951143 564.25877,58.5461121 C563.629472,59.1066936 563.021884,59.3869801 562.435986,59.3869801 C561.694571,59.3869801 560.971251,58.9005474 560.266004,57.9276673 C560.327487,57.9746838 560.407052,58.0253162 560.504702,58.079566 C560.739784,58.1772157 560.980288,58.2558767 561.226221,58.3155515 C561.472153,58.3752263 561.723507,58.4068716 561.980289,58.4104882 C563.152085,58.4104882 564.070702,57.7793915 564.736166,56.517179 C564.783183,56.423146 564.806691,56.3309227 564.806691,56.2405063 C564.806691,55.7486413 564.441414,55.2459339 563.71085,54.7323689 L564.182821,53.7070524 C564.35642,53.8191687 564.515551,53.9629286 564.660217,54.1383363 C564.804883,54.3137441 564.928752,54.5126571 565.031826,54.7350814 C565.134901,54.9575056 565.214466,55.1916805 565.270524,55.437613 C565.326583,55.6835455 565.354611,55.9312827 565.354611,56.1808318 Z M560.991049,55.2965642 L560.171881,56.4575045 L560.171881,49.4213382 L560.991049,48.4285714 L560.991049,55.2965642 Z M557.783002,55.0361664 C557.783002,55.2820989 557.746836,55.5090406 557.674503,55.7169982 C557.60217,55.9249558 557.500001,56.1057858 557.367993,56.2594937 C557.235985,56.4132015 557.079567,56.5325493 556.898734,56.6175407 C556.717901,56.7025321 556.518988,56.7450271 556.301989,56.7450271 C555.860757,56.7450271 555.343583,56.6292959 554.750452,56.39783 C554.432186,56.2712471 554.273056,56.0343598 554.273056,55.6871609 C554.273056,55.4629284 554.374321,55.1085015 554.576854,54.6238698 C554.786619,54.1139215 554.974683,53.8119354 555.141049,53.7179024 C555.028933,53.5587695 554.972875,53.4484632 554.972875,53.3869801 C554.972875,53.1374309 555.253162,52.7576879 555.813743,52.2477396 C555.813743,52.4575056 555.856238,52.6509937 555.94123,52.8282098 C556.026221,53.0054258 556.153706,53.162748 556.323689,53.3001808 C556.334539,53.3037975 556.361663,53.3227846 556.405063,53.3571429 C556.448463,53.3915011 556.503616,53.433092 556.570524,53.4819168 C556.637433,53.5307417 556.707956,53.5822782 556.782098,53.636528 C556.856239,53.6907778 556.927667,53.7441227 556.996383,53.7965642 C557.0651,53.8490057 557.12387,53.8942132 557.172694,53.9321881 C557.221519,53.9701629 557.253164,53.994575 557.267631,54.005425 C557.611213,54.2730574 557.783002,54.6166344 557.783002,55.0361664 Z M557.045208,55.3833635 C557.045208,55.2857138 556.810129,55.039785 556.339964,54.6455696 C555.866182,54.2477376 555.576854,54.0488246 555.471971,54.0488246 C555.424955,54.0488246 555.368897,54.0967445 555.303797,54.1925859 C555.238698,54.2884272 555.17812,54.3996377 555.122061,54.5262206 C555.066003,54.6528035 555.017179,54.7766721 554.975588,54.89783 C554.933996,55.0189879 554.913201,55.1048822 554.913201,55.1555154 C554.913201,55.1989152 554.922242,55.2368895 554.940325,55.2694394 C555.251358,55.5479218 555.661842,55.6871609 556.17179,55.6871609 C556.754072,55.6871609 557.045208,55.5858961 557.045208,55.3833635 Z" id="doctor"></path>
        </g>
    </g>
</svg>