<?xml version="1.0" encoding="UTF-8" standalone="no"?>
<svg width="30px" height="10px" viewBox="0 0 30 10" version="1.1" xmlns="http://www.w3.org/2000/svg" xmlns:xlink="http://www.w3.org/1999/xlink">
    <!-- Generator: Sketch 41.2 (35397) - http://www.bohemiancoding.com/sketch -->
    <title>engineer</title>
    <desc>Created with Sketch.</desc>
    <defs></defs>
    <g id="ideas-for-vis" stroke="none" stroke-width="1" fill="none" fill-rule="evenodd">
        <g id="Artboard" transform="translate(-677.000000, -50.000000)" fill="#000000">
            <path d="M706.651356,55.6600362 C706.651356,56.2495509 706.354795,56.5443038 705.761664,56.5443038 C705.457865,56.5443038 705.083547,56.4719718 704.638698,56.3273056 C704.157683,56.1717895 703.833997,55.9981926 703.667631,55.8065099 C703.533815,56.2405085 703.219171,56.4575045 702.723689,56.4575045 L701.3783,56.4575045 L701.3783,55.4159132 C702.651363,55.4159132 703.347558,55.372514 703.466908,55.2857143 C703.532008,55.2314645 703.640506,55.0144684 703.792405,54.6347197 C703.900905,54.3634706 704.004882,54.1365289 704.10434,53.9538879 C704.203798,53.7712468 704.303255,53.6238704 704.402713,53.5117541 C704.502171,53.3996378 704.606148,53.3191684 704.714647,53.2703436 C704.823147,53.2215187 704.940687,53.1971067 705.067269,53.1971067 C705.472335,53.1971067 705.846653,53.5135592 706.190235,54.1464738 C706.342135,54.4285728 706.45877,54.6952971 706.540145,54.9466546 C706.621519,55.1980121 706.65859,55.4358036 706.651356,55.6600362 Z M705.973237,55.2857143 C705.973237,55.1699813 705.941592,55.0452086 705.8783,54.9113924 C705.815009,54.7775762 705.738156,54.6528035 705.64774,54.5370705 C705.557323,54.4213376 705.456058,54.3254977 705.343942,54.2495479 C705.231826,54.1735982 705.123328,54.1356239 705.018445,54.1356239 C704.949728,54.1356239 704.866547,54.1654608 704.768897,54.2251356 C704.671247,54.2848104 704.577216,54.3562383 704.486799,54.4394213 C704.396383,54.5226044 704.318626,54.6094028 704.253526,54.6998192 C704.188426,54.7902355 704.155877,54.8698007 704.155877,54.9385172 C704.155877,54.9710671 704.183002,55.0090414 704.237251,55.0524412 C704.291501,55.0958411 704.362025,55.1401444 704.448825,55.1853526 C704.535624,55.2305608 704.631464,55.2748642 704.736347,55.318264 C704.84123,55.3616639 704.944303,55.3996382 705.04557,55.4321881 C705.146836,55.464738 705.240868,55.4918625 705.327667,55.5135624 C705.414467,55.5352623 705.484991,55.5461121 705.539241,55.5461121 C705.828573,55.5461121 705.973237,55.4593137 705.973237,55.2857143 Z M702.499367,56.4575045 L699.949638,56.4575045 C699.985805,56.4972877 700.081645,56.5696197 700.237161,56.6745027 C700.251628,56.7251359 700.258861,56.8010845 700.258861,56.9023508 C700.258861,57.2893329 700.215462,57.735983 700.128662,58.2423146 C700.009312,58.9258624 699.84114,59.2676311 699.624141,59.2676311 C699.099726,59.2676311 698.665734,58.9981944 698.322152,58.4593128 C698.090686,58.0976474 697.906239,57.4303846 697.768807,56.4575045 L696.439693,56.4575045 L696.439693,55.4159132 L697.996655,55.4159132 C697.989421,55.4086799 697.984901,55.4005425 697.983092,55.3915009 C697.981284,55.3824593 697.978571,55.3743219 697.974955,55.3670886 C697.974955,55.0777562 698.229925,54.4972919 698.739873,53.6256781 C699.271522,52.7215145 699.658498,52.2694394 699.900814,52.2694394 C700.150363,52.2694394 700.275136,52.8263959 700.275136,53.9403255 C700.275136,54.5804734 700.257053,54.9294753 700.220886,54.9873418 C700.17387,55.0343583 700.118716,55.0922239 700.055425,55.1609403 C699.992134,55.2296568 699.917089,55.3074137 699.830289,55.3942134 C699.844756,55.40868 700.73444,55.4159132 702.499367,55.4159132 L702.499367,56.4575045 Z M699.830289,57.7377939 C699.830289,57.5641944 699.796836,57.398735 699.729928,57.2414105 C699.66302,57.084086 699.569892,56.945751 699.450543,56.8264014 C699.331193,56.7070518 699.193762,56.6112119 699.038246,56.5388788 C698.88273,56.4665458 698.718174,56.4303797 698.544575,56.4303797 L698.408951,56.4303797 C698.369168,56.4303797 698.340235,56.4484627 698.322152,56.4846293 C698.322152,56.7341785 698.468624,57.0759472 698.761573,57.5099458 C699.076222,57.9692609 699.351084,58.198915 699.586166,58.198915 C699.748916,58.198915 699.830289,58.0452095 699.830289,57.7377939 Z M699.77604,54.7432188 C699.77604,53.9475548 699.689241,53.5497288 699.515642,53.5497288 C699.396292,53.5497288 699.184721,53.810124 698.880922,54.3309222 C698.598823,54.8264039 698.445118,55.1663644 698.419801,55.3508137 C698.441501,55.379747 698.472242,55.3942134 698.512025,55.3942134 C698.548192,55.3942134 698.606962,55.3869802 698.688336,55.3725136 C698.769711,55.3580469 698.865551,55.3354432 698.975859,55.3047016 C699.086167,55.2739601 699.206419,55.231465 699.336618,55.1772152 C699.466818,55.1229654 699.602441,55.0560583 699.74349,54.9764919 C699.76519,54.943942 699.77604,54.8661851 699.77604,54.7432188 Z M697.566184,56.4575045 L693.030922,56.4575045 L693.030922,55.4159132 L695.808499,55.4159132 C695.866366,55.4159132 695.895298,55.3670891 695.895298,55.2694394 C695.895298,55.1971063 695.872695,55.0931291 695.827486,54.9575045 C695.782278,54.82188 695.727125,54.6871616 695.662025,54.5533454 C695.596926,54.4195292 695.529114,54.3019897 695.45859,54.2007233 C695.388065,54.099457 695.327487,54.0488246 695.276854,54.0488246 L695.770524,52.9041591 C696.009224,53.1754082 696.213562,53.571426 696.383544,54.0922242 C696.553527,54.5877059 696.638517,55.0289312 696.638517,55.4159132 L697.566184,55.4159132 L697.566184,56.4575045 Z M695.987523,50.7287523 L695.488427,51.5804702 L694.267812,50.8698011 L694.739783,50.0180832 L695.987523,50.7287523 Z M694.151989,56.4575045 L692.909675,56.4575045 C692.866275,56.5551542 692.495573,56.6509941 691.797559,56.7450271 C691.218894,56.8209769 690.777669,56.8589512 690.47387,56.8589512 C690.068804,56.8589512 689.788518,56.8173603 689.633002,56.7341772 C689.419619,56.6075943 689.312929,56.3598572 689.312929,55.9909584 C689.312929,55.9186253 689.324683,55.8119356 689.348192,55.6708861 C689.3717,55.5298365 689.400633,55.3896933 689.434991,55.2504521 C689.469349,55.1112109 689.507323,54.9891506 689.548915,54.8842676 C689.590507,54.7793846 689.633002,54.7269439 689.676401,54.7269439 L689.698101,54.7323689 L689.698101,55.1338156 C689.698101,55.4086813 689.725226,55.5641951 689.779476,55.6003617 C689.953075,55.6980113 690.253253,55.7468354 690.680018,55.7468354 C690.828301,55.7468354 690.98924,55.7405064 691.162839,55.7278481 C691.336438,55.7151898 691.52631,55.6943944 691.732459,55.6654611 C692.285807,55.5895114 692.562477,55.48463 692.562477,55.3508137 C692.562477,55.169981 692.439513,54.7341807 692.19358,54.0433996 C691.940415,53.3236854 691.763201,52.9493672 691.661935,52.920434 L692.26953,51.6618445 C692.652895,52.598558 692.953073,53.8499018 693.170072,55.4159132 L694.151989,55.4159132 L694.151989,56.4575045 Z M688.296564,55.1555154 C688.296564,55.9981959 688.245932,56.4249547 688.144665,56.4358047 C688.047016,56.4466547 687.92586,56.4566003 687.781193,56.465642 C687.636527,56.4746836 687.46293,56.4792043 687.260398,56.4792043 C686.858949,56.4792043 686.500002,56.4520798 686.183544,56.39783 C685.867087,56.3435802 685.57143,56.2549735 685.296564,56.1320072 C685.104882,56.29114 684.882461,56.3869799 684.629295,56.4195298 C684.535262,56.4303798 684.283908,56.4358047 683.875226,56.4358047 C683.875226,57.238702 683.481017,57.913198 682.692586,58.4593128 C681.893305,58.9728778 681.077762,59.2296564 680.245931,59.2296564 C679.801083,59.2296564 679.415915,59.197107 679.090416,59.1320072 C678.764917,59.0669075 678.496384,58.9647385 678.28481,58.8254973 C678.073236,58.6862561 677.915914,58.5099468 677.812839,58.2965642 C677.709764,58.0831816 677.658228,57.8282112 677.658228,57.5316456 C677.658228,57.1048803 677.79385,56.5895148 678.065099,55.9855335 C678.408682,55.2441193 678.692585,54.7830027 678.916817,54.60217 C678.837251,54.7106696 678.759494,54.8526212 678.683544,55.0280289 C678.607595,55.2034367 678.539783,55.3878833 678.480108,55.5813743 C678.420434,55.7748653 678.372514,55.9647369 678.336347,56.1509946 C678.300181,56.3372523 678.282098,56.4990952 678.282098,56.636528 C678.282098,57.6889745 678.962019,58.2151899 680.321881,58.2151899 C680.564197,58.2115732 680.799276,58.1880653 681.027125,58.1446655 C681.254974,58.1012656 681.469258,58.0479208 681.669982,57.9846293 C681.870706,57.9213378 682.054249,57.8508141 682.220615,57.7730561 C682.386981,57.695298 682.531645,57.6220618 682.654611,57.5533454 C682.777577,57.484629 682.875226,57.4240509 682.947559,57.3716094 C683.019892,57.3191679 683.063291,57.2839061 683.077758,57.2658228 C683.153707,57.1681731 683.191682,56.9909597 683.191682,56.7341772 C683.184448,56.5569611 683.164557,56.3788436 683.132007,56.1998192 C683.099457,56.0207948 683.052442,55.8453896 682.990958,55.6735986 C682.929475,55.5018075 682.852623,55.3381563 682.760398,55.1826401 C682.668173,55.027124 682.558771,54.8860766 682.432188,54.7594937 L683.278481,53.7667269 C683.546113,54.2839086 683.734177,54.7902326 683.842676,55.2857143 C683.878843,55.4195305 684.101264,55.4864376 684.509946,55.4864376 C684.849911,55.4864376 685.065099,55.4358052 685.155515,55.3345389 C685.235082,55.2477392 685.274864,55.0235099 685.274864,54.6618445 C685.274864,54.5244116 685.25859,54.4267634 685.22604,54.3688969 L685.974684,53.6148282 C685.981917,53.6871613 685.986438,53.7820971 685.988246,53.8996383 C685.990054,54.0171796 685.990958,54.1555146 685.990958,54.3146474 C685.990958,54.6799295 685.936709,54.9891488 685.82821,55.2423146 C685.81736,55.2603979 685.811935,55.2784809 685.811935,55.2965642 C685.811935,55.4231471 686.054247,55.4864376 686.538879,55.4864376 C686.730562,55.4864376 686.887884,55.4810127 687.01085,55.4701627 C687.133816,55.4593128 687.231464,55.4412298 687.303797,55.4159132 C687.376131,55.3905966 687.425859,55.3544306 687.452984,55.3074141 C687.480109,55.2603976 687.493671,55.202532 687.493671,55.1338156 C687.493671,54.7432169 687.392406,54.4701635 687.189873,54.3146474 L688.090416,53.517179 C688.227849,53.6256787 688.296564,54.1717853 688.296564,55.1555154 Z" id="engineer"></path>
        </g>
    </g>
</svg>