<?xml version="1.0" encoding="UTF-8"?>
<svg width="70px" height="20px" viewBox="0 0 70 20" version="1.1" xmlns="http://www.w3.org/2000/svg" xmlns:xlink="http://www.w3.org/1999/xlink">
    <!-- Generator: Sketch 41.2 (35397) - http://www.bohemiancoding.com/sketch -->
    <title>school</title>
    <desc>Created with Sketch.</desc>
    <defs></defs>
    <g id="letters" stroke="none" stroke-width="1" fill="none" fill-rule="evenodd">
        <g id="school" fill="#000000">
            <path d="M68.8679778,12.3837124 C68.8679778,13.2238978 68.4453142,13.6439843 67.5999742,13.6439843 C67.1669952,13.6439843 66.6335113,13.5408956 65.9995063,13.3347151 C65.3139562,13.1130711 64.8526343,12.8656582 64.6155268,12.5924691 C64.4248098,13.2110105 63.976374,13.5202766 63.2702059,13.5202766 L61.352737,13.5202766 L61.352737,12.0357846 C63.1671252,12.0357846 64.1593539,11.9739314 64.3294528,11.8502231 C64.422234,11.7729054 64.576867,11.4636393 64.7933565,10.9224156 C64.9479919,10.5358272 65.0961819,10.2123864 65.237931,9.95208354 C65.37968,9.69178069 65.521427,9.48173748 65.6631761,9.32194761 C65.8049251,9.16215774 65.9531151,9.04747157 66.1077505,8.97788566 C66.2623859,8.90829974 66.429905,8.87350731 66.6103129,8.87350731 C67.1876182,8.87350731 67.7211022,9.32452034 68.2107809,10.2265599 C68.4272704,10.6286119 68.5935009,11.0087514 68.7094774,11.36699 C68.8254539,11.7252286 68.8782869,12.0641327 68.8679778,12.3837124 Z M67.9015117,11.8502231 C67.9015117,11.6852787 67.8564104,11.5074507 67.7662064,11.3167338 C67.6760025,11.1260168 67.5664707,10.9481888 67.4376079,10.7832444 C67.3087451,10.6183001 67.164421,10.4817075 67.0046311,10.3734628 C66.8448412,10.265218 66.6902082,10.2110965 66.5407273,10.2110965 C66.4427916,10.2110965 66.3242396,10.2536206 66.1850678,10.33867 C66.045896,10.4237195 65.9118807,10.5255195 65.7830179,10.6440733 C65.6541551,10.7626271 65.5433347,10.8863335 65.4505535,11.0151963 C65.3577723,11.1440591 65.3113824,11.2574567 65.3113824,11.3553924 C65.3113824,11.401783 65.3500406,11.4559046 65.4273583,11.5177587 C65.504676,11.5796129 65.6051875,11.6427547 65.7288958,11.7071861 C65.8526041,11.7716175 65.9891966,11.8347593 66.1386774,11.8966134 C66.2881583,11.9584676 66.4350596,12.0125892 66.579386,12.0589798 C66.7237123,12.1053704 66.8577276,12.1440286 66.9814359,12.1749557 C67.1051442,12.2058828 67.2056557,12.2213461 67.2829733,12.2213461 C67.6953343,12.2213461 67.9015117,12.0976396 67.9015117,11.8502231 Z M62.9504988,13.5202766 L61.1799328,13.5202766 C61.1180787,13.6594484 60.5897492,13.7960409 59.5949283,13.9300582 C58.7702064,14.038303 58.1413654,14.0924246 57.7083864,14.0924246 C57.1310811,14.0924246 56.7316124,14.0331486 56.5099684,13.9145948 C56.2058522,13.7341869 56.0537963,13.3811081 56.0537963,12.8553479 C56.0537963,12.7522576 56.0705483,12.6002018 56.1040526,12.3991759 C56.1375569,12.1981499 56.1787924,11.9984155 56.2277603,11.7999668 C56.2767281,11.6015181 56.3308497,11.427556 56.3901266,11.2780751 C56.4494035,11.1285943 56.5099681,11.053855 56.5718222,11.053855 L56.6027491,11.0615867 L56.6027491,11.6337347 C56.6027491,12.0254776 56.6414074,12.2471183 56.7187251,12.2986634 C56.9661416,12.4378352 57.3939597,12.5074201 58.0021921,12.5074201 C58.2135271,12.5074201 58.4428994,12.4983998 58.690316,12.480359 C58.9377326,12.4623182 59.2083404,12.4326802 59.5021476,12.3914441 C60.2907879,12.2831994 60.6851022,12.1337208 60.6851022,11.9430038 C60.6851022,11.6852782 60.5098514,11.0641689 60.1593446,10.0796571 C59.7985287,9.0539092 59.5459614,8.52042521 59.4016351,8.47918912 L60.2675888,6.68542793 C60.8139671,8.02044652 61.2417851,9.8038809 61.5510558,12.0357846 L62.9504988,12.0357846 L62.9504988,13.5202766 Z M54.9299895,13.1259584 C54.9299895,14.4455135 54.4093916,15.5691802 53.3681802,16.4969924 C52.4712951,17.2959417 51.6053501,17.6954104 50.7703191,17.6954104 C49.7136442,17.6954104 48.6827573,17.0021389 47.6776274,15.6155752 C47.7652541,15.6825839 47.8786517,15.754746 48.0178235,15.8320636 C48.3528668,15.9712355 48.6956367,16.0833444 49.0461435,16.1683939 C49.3966503,16.2534433 49.7548835,16.2985446 50.1208539,16.3036991 C51.7909158,16.3036991 53.1001422,15.4042503 54.0485723,13.6053256 C54.115581,13.4713083 54.1490848,13.3398702 54.1490848,13.2110074 C54.1490848,12.5099938 53.6284869,11.7935274 52.5872755,11.0615867 L53.259936,9.60028986 C53.5073525,9.76007973 53.7341477,9.96496851 53.9403281,10.2149623 C54.1465086,10.4649562 54.323048,10.7484501 54.4699516,11.0654526 C54.6168552,11.382455 54.7302527,11.7162047 54.8101477,12.0667115 C54.8900426,12.4172183 54.9299895,12.7702971 54.9299895,13.1259584 Z M49.6697075,11.3244655 C49.6697075,12.1079513 49.6233176,12.7419468 49.5305363,13.2264709 C49.0872483,13.5048145 48.7032429,13.6439843 48.3785087,13.6439843 C47.1723529,13.6439843 46.1723926,13.4378069 45.3785977,13.0254459 C44.6208845,13.3811072 43.9044181,13.5589352 43.229177,13.5589352 C42.2034291,13.5589352 41.3091347,13.401725 40.5462669,13.0872998 C40.3040049,13.3759524 39.6932044,13.5202766 38.7138471,13.5202766 L36.974208,13.5202766 L36.974208,12.0357846 C37.0102896,12.0564026 37.1443049,12.0667115 37.376258,12.0667115 C39.118483,12.0667115 40.0720534,11.9739317 40.2369978,11.7883692 C40.31947,11.695588 40.3607054,11.4791018 40.3607054,11.138904 C40.3607054,10.937878 40.3375105,10.7394323 40.2911199,10.5435608 L41.373562,9.37606971 C41.383871,9.46885093 41.3928913,9.58998014 41.400623,9.73946099 C41.4083548,9.88894183 41.4122206,10.0667698 41.4122206,10.2729503 C41.4122206,10.350268 41.3980459,10.4649542 41.3696961,10.6170123 C41.3413463,10.7690704 41.3117083,10.9275692 41.2807812,11.0925136 C41.2498542,11.257458 41.2215048,11.4082252 41.1957322,11.5448198 C41.1699596,11.6814143 41.1570736,11.7729055 41.1570736,11.8192962 C41.1725371,11.8450687 41.2240814,11.8734181 41.3117081,11.9043452 C41.7395326,12.0486715 42.3348698,12.1208336 43.0977376,12.1208336 L43.5384462,12.1208336 C44.564194,12.1208336 45.1157186,12.0615576 45.1930362,11.9430038 C45.2497359,11.8708407 45.2780853,11.6595088 45.2780853,11.309002 C45.2780853,10.9688042 45.2600447,10.7368547 45.2239631,10.6131464 L46.3527956,9.46885046 C46.3373321,9.75234862 46.3192916,10.0397084 46.2986735,10.3309383 C46.2780555,10.6221682 46.2522833,10.922414 46.2213562,11.2316847 C46.2007382,11.3966291 46.1543483,11.5950748 46.0821851,11.8270279 L46.0744534,11.8579548 C46.0744534,12.0589808 46.4842309,12.1594922 47.3037983,12.1594922 C48.1130567,12.1594922 48.5176798,11.9584693 48.5176798,11.5564174 C48.5176798,10.989421 48.401705,10.597684 48.169752,10.3811945 L49.3449748,9.32967934 C49.5614643,9.98945687 49.6697075,10.6543789 49.6697075,11.3244655 Z M37.9920902,13.5202766 L36.7782087,13.5202766 C36.2318304,13.5202766 35.8658656,13.3888385 35.6803031,13.1259584 C35.3916505,12.6981339 35.2473263,12.0564068 35.2473263,11.2007578 C35.2473263,11.0151954 35.2602124,10.8734484 35.2859849,10.7755127 L34.3195188,11.7497106 L34.2422015,11.7574423 C33.9277763,11.7574423 33.4870721,11.5718827 32.9200758,11.2007578 C32.3066889,10.8090149 32,10.4713994 32,10.1879013 C32,10.0178024 32.0979343,9.74719457 32.2938057,9.37606971 C32.7422483,8.49980268 33.4045931,7.91219713 34.2808601,7.61323544 C34.641676,7.48952715 34.9019749,7.42767394 35.0617648,7.42767394 L35.0617648,6.64676928 L35.9431819,5.4870099 L35.9431819,11.1157088 C35.9534909,11.7342502 36.1674,12.0409391 36.5849154,12.0357846 L37.9920902,12.0357846 L37.9920902,13.5202766 Z M35.170009,9.33741107 C35.170009,8.49207111 35.1416596,8.04878973 35.08496,8.00755363 C34.5695088,8.55908641 33.9148956,8.94309179 33.1211007,9.15958129 C33.1262553,9.27298056 33.1958401,9.39410977 33.3298574,9.52297257 C33.4638747,9.65183537 33.6223736,9.77425319 33.8053588,9.89022971 C33.988344,10.0062062 34.1777694,10.1041405 34.3736409,10.1840354 C34.5695123,10.2639304 34.7292998,10.3038772 34.8530081,10.3038772 C35.0643431,10.3038772 35.170009,9.98172506 35.170009,9.33741107 Z M35.9045233,4.13395728 L34.2808601,3.09790555 L34.9612523,2 L36.5926472,2.97419789 L35.9045233,4.13395728 Z M32.0077317,3.20614976 L32.6649287,2.06185383 L34.2808601,3.09790555 L33.6159314,4.17261592 L32.0077317,3.20614976 Z"></path>
        </g>
    </g>
</svg>