<?xml version="1.0" encoding="UTF-8" standalone="no"?>
<svg width="27px" height="12px" viewBox="0 0 27 12" version="1.1" xmlns="http://www.w3.org/2000/svg" xmlns:xlink="http://www.w3.org/1999/xlink">
    <!-- Generator: Sketch 41.2 (35397) - http://www.bohemiancoding.com/sketch -->
    <title>school</title>
    <desc>Created with Sketch.</desc>
    <defs></defs>
    <g id="ideas-for-vis" stroke="none" stroke-width="1" fill="none" fill-rule="evenodd">
        <g id="Artboard" transform="translate(-367.000000, -48.000000)" fill="#000000">
            <path d="M393.295118,55.6600362 C393.295118,56.2495509 392.998556,56.5443038 392.405425,56.5443038 C392.101626,56.5443038 391.727308,56.4719718 391.282459,56.3273056 C390.801444,56.1717895 390.477759,55.9981926 390.311392,55.8065099 C390.177576,56.2405085 389.862932,56.4575045 389.36745,56.4575045 L388.022062,56.4575045 L388.022062,55.4159132 C389.295124,55.4159132 389.99132,55.372514 390.110669,55.2857143 C390.175769,55.2314645 390.284267,55.0144684 390.436166,54.6347197 C390.544666,54.3634706 390.648643,54.1365289 390.748101,53.9538879 C390.847559,53.7712468 390.947016,53.6238704 391.046474,53.5117541 C391.145932,53.3996378 391.249909,53.3191684 391.358409,53.2703436 C391.466908,53.2215187 391.584448,53.1971067 391.711031,53.1971067 C392.116096,53.1971067 392.490414,53.5135592 392.833996,54.1464738 C392.985896,54.4285728 393.102531,54.6952971 393.183906,54.9466546 C393.265281,55.1980121 393.302351,55.4358036 393.295118,55.6600362 Z M392.616998,55.2857143 C392.616998,55.1699813 392.585353,55.0452086 392.522062,54.9113924 C392.45877,54.7775762 392.381917,54.6528035 392.291501,54.5370705 C392.201085,54.4213376 392.09982,54.3254977 391.987703,54.2495479 C391.875587,54.1735982 391.767089,54.1356239 391.662206,54.1356239 C391.59349,54.1356239 391.510308,54.1654608 391.412658,54.2251356 C391.315009,54.2848104 391.220977,54.3562383 391.130561,54.4394213 C391.040144,54.5226044 390.962387,54.6094028 390.897288,54.6998192 C390.832188,54.7902355 390.799638,54.8698007 390.799638,54.9385172 C390.799638,54.9710671 390.826763,55.0090414 390.881013,55.0524412 C390.935263,55.0958411 391.005786,55.1401444 391.092586,55.1853526 C391.179386,55.2305608 391.275226,55.2748642 391.380109,55.318264 C391.484992,55.3616639 391.588065,55.3996382 391.689331,55.4321881 C391.790597,55.464738 391.884629,55.4918625 391.971429,55.5135624 C392.058228,55.5352623 392.128752,55.5461121 392.183002,55.5461121 C392.472334,55.5461121 392.616998,55.4593137 392.616998,55.2857143 Z M389.143128,56.4575045 L387.900814,56.4575045 C387.857414,56.5551542 387.486712,56.6509941 386.788698,56.7450271 C386.210033,56.8209769 385.768808,56.8589512 385.465009,56.8589512 C385.059944,56.8589512 384.779657,56.8173603 384.624141,56.7341772 C384.410758,56.6075943 384.304069,56.3598572 384.304069,55.9909584 C384.304069,55.9186253 384.315823,55.8119356 384.339331,55.6708861 C384.362839,55.5298365 384.391772,55.3896933 384.42613,55.2504521 C384.460488,55.1112109 384.498463,54.9891506 384.540054,54.8842676 C384.581646,54.7793846 384.624141,54.7269439 384.667541,54.7269439 L384.689241,54.7323689 L384.689241,55.1338156 C384.689241,55.4086813 384.716365,55.5641951 384.770615,55.6003617 C384.944214,55.6980113 385.244392,55.7468354 385.671157,55.7468354 C385.81944,55.7468354 385.980379,55.7405064 386.153978,55.7278481 C386.327578,55.7151898 386.517449,55.6943944 386.723599,55.6654611 C387.276947,55.5895114 387.553617,55.48463 387.553617,55.3508137 C387.553617,55.169981 387.430652,54.7341807 387.18472,54.0433996 C386.931554,53.3236854 386.75434,52.9493672 386.653074,52.920434 L387.260669,51.6618445 C387.644034,52.598558 387.944212,53.8499018 388.161212,55.4159132 L389.143128,55.4159132 L389.143128,56.4575045 Z M383.515552,56.1808318 C383.515552,57.1066954 383.150275,57.8951143 382.419711,58.5461121 C381.790413,59.1066936 381.182824,59.3869801 380.596926,59.3869801 C379.855512,59.3869801 379.132192,58.9005474 378.426944,57.9276673 C378.488427,57.9746838 378.567992,58.0253162 378.665642,58.079566 C378.900725,58.1772157 379.141228,58.2558767 379.387161,58.3155515 C379.633093,58.3752263 379.884447,58.4068716 380.14123,58.4104882 C381.313026,58.4104882 382.231642,57.7793915 382.897107,56.517179 C382.944123,56.423146 382.967631,56.3309227 382.967631,56.2405063 C382.967631,55.7486413 382.602354,55.2459339 381.87179,54.7323689 L382.343761,53.7070524 C382.517361,53.8191687 382.676491,53.9629286 382.821157,54.1383363 C382.965824,54.3137441 383.089692,54.5126571 383.192767,54.7350814 C383.295841,54.9575056 383.375407,55.1916805 383.431465,55.437613 C383.487523,55.6835455 383.515552,55.9312827 383.515552,56.1808318 Z M379.824684,54.9168174 C379.824684,55.4665489 379.792134,55.9113907 379.727034,56.2513562 C379.416002,56.4466556 379.146565,56.5443038 378.918716,56.5443038 C378.072419,56.5443038 377.370798,56.3996398 376.813834,56.1103074 C376.282185,56.3598566 375.779478,56.4846293 375.305696,56.4846293 C374.585982,56.4846293 373.958502,56.374323 373.423237,56.1537071 C373.253254,56.3562397 372.824687,56.4575045 372.137523,56.4575045 L370.916908,56.4575045 L370.916908,55.4159132 C370.942224,55.4303798 371.036256,55.437613 371.199005,55.437613 C372.421435,55.437613 373.090506,55.3725142 373.206239,55.2423146 C373.264105,55.1772149 373.293038,55.0253176 373.293038,54.7866184 C373.293038,54.6455689 373.276763,54.5063298 373.244213,54.3688969 L374.003707,53.5497288 C374.01094,53.6148285 374.017269,53.6998186 374.022694,53.8047016 C374.028119,53.9095846 374.030832,54.0343573 374.030832,54.1790235 C374.030832,54.2332733 374.020886,54.3137427 374.000995,54.420434 C373.981103,54.5271253 373.960308,54.6383358 373.938608,54.7540687 C373.916908,54.8698017 373.897016,54.9755872 373.878933,55.0714286 C373.86085,55.1672699 373.851808,55.2314646 373.851808,55.2640145 C373.862658,55.2820977 373.898824,55.301989 373.960307,55.323689 C374.26049,55.4249553 374.678207,55.4755877 375.213472,55.4755877 L375.522694,55.4755877 C376.242409,55.4755877 376.629385,55.4339968 376.683635,55.3508137 C376.723418,55.3001806 376.743309,55.1519 376.743309,54.9059675 C376.743309,54.6672682 376.730651,54.5045212 376.705335,54.4177215 L377.497378,53.6148282 C377.486528,53.8137442 377.47387,54.0153697 377.459403,54.2197107 C377.444937,54.4240517 377.426854,54.6347186 377.405154,54.8517179 C377.390687,54.9674508 377.358138,55.10669 377.307505,55.2694394 L377.30208,55.2911392 C377.30208,55.4321888 377.589599,55.5027125 378.164647,55.5027125 C378.732462,55.5027125 379.016365,55.3616651 379.016365,55.079566 C379.016365,54.681734 378.934992,54.4068724 378.772242,54.2549729 L379.596835,53.517179 C379.748735,53.9801108 379.824684,54.4466523 379.824684,54.9168174 Z M371.631103,56.4575045 L370.779385,56.4575045 C370.39602,56.4575045 370.139241,56.3652812 370.009042,56.1808318 C369.806509,55.8806495 369.705244,55.4303827 369.705244,54.8300181 C369.705244,54.6998185 369.714286,54.600362 369.732369,54.5316456 L369.05425,55.2151899 L369,55.2206148 C368.779384,55.2206148 368.470165,55.0904172 368.072333,54.8300181 C367.641951,54.5551523 367.426763,54.318265 367.426763,54.119349 C367.426763,53.9999994 367.495479,53.8101279 367.632911,53.5497288 C367.94756,52.9348975 368.412293,52.522605 369.027125,52.3128391 C369.280291,52.2260393 369.462929,52.1826401 369.575045,52.1826401 L369.575045,51.6347197 L370.19349,50.8209765 L370.19349,54.7703436 C370.200723,55.2043421 370.350812,55.4195299 370.643761,55.4159132 L371.631103,55.4159132 L371.631103,56.4575045 Z M369.650995,53.522604 C369.650995,52.9294726 369.631103,52.618445 369.59132,52.5895118 C369.229655,52.9764938 368.770346,53.2459305 368.213382,53.39783 C368.216998,53.4773964 368.265822,53.5623865 368.359855,53.6528029 C368.453888,53.7432193 368.565099,53.8291135 368.69349,53.9104882 C368.821881,53.991863 368.954791,54.0605784 369.092224,54.1166365 C369.229657,54.1726947 369.341772,54.2007233 369.428571,54.2007233 C369.576854,54.2007233 369.650995,53.9746858 369.650995,53.522604 Z M370.166365,49.8716094 L369.027125,49.1446655 L369.504521,48.3743219 L370.649186,49.0578662 L370.166365,49.8716094 Z M367.432188,49.2206148 L367.893309,48.4177215 L369.027125,49.1446655 L368.560579,49.8987342 L367.432188,49.2206148 Z" id="school"></path>
        </g>
    </g>
</svg>