<?xml version="1.0" encoding="UTF-8"?>
<svg width="70px" height="20px" viewBox="0 0 70 20" version="1.1" xmlns="http://www.w3.org/2000/svg" xmlns:xlink="http://www.w3.org/1999/xlink">
    <!-- Generator: Sketch 41.2 (35397) - http://www.bohemiancoding.com/sketch -->
    <title>scientist</title>
    <desc>Created with Sketch.</desc>
    <defs></defs>
    <g id="letters" stroke="none" stroke-width="1" fill="none" fill-rule="evenodd">
        <g id="scientist" fill="#000000">
            <path d="M69.7252266,11.8500824 L69.1860997,13.1453871 L66.4974671,13.3624382 L62.527533,13.3624382 L62.527533,12.0181219 L64.3199547,12.0181219 C63.9045216,11.4533195 63.6968081,11.0028847 63.6968081,10.666804 C63.6968081,10.1020016 64.2219264,9.40417769 65.2721788,8.57331137 C65.5662494,8.34925753 65.9023252,8.23723229 66.280416,8.23723229 C66.5371444,8.23723229 66.7798657,8.28857719 67.0085873,8.39126853 C67.237309,8.49395988 67.4403547,8.63515835 67.6177307,8.8148682 C67.7951066,8.99457805 67.9444736,9.20812617 68.0658361,9.45551895 C68.1871986,9.70291173 68.2735514,9.96897167 68.3248971,10.2537068 C68.259548,10.1743544 68.1591921,10.0961701 68.0238262,10.0191516 C67.8884604,9.94213306 67.7379265,9.87328421 67.57222,9.81260297 C67.4065135,9.75192172 67.2373087,9.70407761 67.0646005,9.66906919 C66.8918924,9.63406078 66.7331899,9.61655684 66.5884885,9.61655684 C65.8043001,9.61655684 65.2488416,9.95263255 64.9220964,10.6247941 L64.9150948,10.666804 C64.9150948,10.7648275 64.9687735,10.888522 65.0761327,11.0378913 C65.1834918,11.1872605 65.3398603,11.3506306 65.545243,11.5280066 C65.7506257,11.7007148 65.9314998,11.829077 66.0878707,11.9130972 C66.2442416,11.9971174 66.3761047,12.0391269 66.4834638,12.0391269 L69.7252266,11.8500824 Z M63.9814251,13.3624382 L62.3780478,13.3624382 C61.9252723,13.3624382 61.5530218,13.3099264 61.261285,13.2049012 C60.9695483,13.0998759 60.7548332,12.9341719 60.6171335,12.7077842 C60.4794337,12.4813965 60.4105849,12.0811396 60.4105849,11.5070016 L60.4105849,4.31630972 L61.460832,3 L61.460832,11.5070016 C61.460832,11.8477502 61.6195344,12.0181219 61.936944,12.0181219 L63.9814251,12.0181219 L63.9814251,13.3624382 Z M58.4406713,5.13550247 L57.8665363,6.29777595 L57.8665363,13.1453871 L57.5094522,13.3624382 L54.7788097,13.3624382 L54.7788097,12.0181219 L56.8162891,12.0181219 L56.8162891,5.67462932 L56.4452018,4.23228995 L57.6774918,3 L57.7825165,4.44233937 L58.4406713,5.13550247 Z M56.2327018,13.3624382 L54.6503295,13.3624382 C54.5616415,13.3624382 54.420443,13.3601044 54.2267298,13.3554366 C54.0330166,13.3507688 53.8311378,13.3437672 53.6210873,13.3344316 C53.4110368,13.3250961 53.2079911,13.3180945 53.011944,13.3134267 C52.8158969,13.3087589 52.6711976,13.306425 52.5778418,13.306425 C50.7574044,13.306425 49.8448655,13.455792 49.8401977,13.7545305 L49.9032125,14.0135914 C49.9218837,14.0696049 49.9522238,14.1897986 49.9942339,14.3741763 C50.036244,14.5585539 50.0945905,14.8094438 50.1692751,15.1268534 C50.3139766,15.7803437 50.4271687,16.3684762 50.508855,16.8912685 C50.5905413,17.4140608 50.6267161,17.8808327 50.6173806,18.291598 C50.6173806,18.7957192 50.4353395,19.3651808 50.0712521,20 C49.9918997,19.1597981 49.8915437,18.3709537 49.7701812,17.6334432 C49.6488187,16.8959326 49.5064533,16.2027764 49.3430807,15.5539539 C49.2310538,15.110514 49.1458679,14.7347627 49.0875206,14.4266886 C49.0291732,14.1186146 49,13.8758933 49,13.6985173 C49,13.0777015 49.1890426,12.6599407 49.5671334,12.4452224 C49.7818517,12.3285277 50.2626267,12.2165025 51.0094728,12.1091433 C51.667631,12.0111198 52.1390705,11.9621087 52.4238056,11.9621087 C52.5264969,11.9621087 52.6035143,11.9714442 52.65486,11.9901153 L51.4785832,10.666804 L49.9452224,11.4649918 L49.9592257,10.9678748 C49.9638935,10.80917 50.220618,10.4824297 50.7294069,9.98764415 C51.2335281,9.49285859 51.5696038,9.24546952 51.7376442,9.24546952 C51.9897047,9.24546952 52.3747915,9.58621296 52.892916,10.26771 C53.532403,11.0939086 54.094863,11.6773734 54.580313,12.0181219 L56.2327018,12.0181219 L56.2327018,13.3624382 Z"></path>
        </g>
    </g>
</svg>