<?xml version="1.0" encoding="UTF-8" standalone="no"?>
<svg width="17px" height="14px" viewBox="0 0 17 14" version="1.1" xmlns="http://www.w3.org/2000/svg" xmlns:xlink="http://www.w3.org/1999/xlink">
    <!-- Generator: Sketch 41.2 (35397) - http://www.bohemiancoding.com/sketch -->
    <title>scientist</title>
    <desc>Created with Sketch.</desc>
    <defs></defs>
    <g id="ideas-for-vis" stroke="none" stroke-width="1" fill="none" fill-rule="evenodd">
        <g id="Artboard" transform="translate(-789.000000, -51.000000)" fill="#000000">
            <path d="M805.226311,58.2857143 L804.80859,59.2893309 L802.725407,59.4575045 L799.649458,59.4575045 L799.649458,58.4159132 L801.038246,58.4159132 C800.716364,57.978298 800.555425,57.6292961 800.555425,57.3688969 C800.555425,56.9312817 800.962293,56.3906 801.77604,55.7468354 C802.003889,55.573236 802.264284,55.4864376 802.557233,55.4864376 C802.756149,55.4864376 802.944213,55.5262202 803.121429,55.6057866 C803.298645,55.685353 803.455967,55.7947552 803.5934,55.9339964 C803.730833,56.0732376 803.846564,56.2386971 803.940597,56.4303797 C804.03463,56.6220624 804.101537,56.8282087 804.14132,57.0488246 C804.090687,56.9873415 804.01293,56.9267634 803.908047,56.8670886 C803.803164,56.8074138 803.686529,56.754069 803.558137,56.7070524 C803.429746,56.6600359 803.298644,56.6229658 803.164828,56.5958409 C803.031012,56.568716 802.908048,56.5551537 802.795931,56.5551537 C802.188333,56.5551537 801.757958,56.8155489 801.504792,57.3363472 L801.499367,57.3688969 C801.499367,57.4448467 801.540958,57.5406866 801.624141,57.6564195 C801.707324,57.7721525 801.82848,57.8987335 801.987613,58.0361664 C802.146746,58.1699826 802.286889,58.2694391 802.408047,58.3345389 C802.529205,58.3996387 802.631374,58.4321881 802.714557,58.4321881 L805.226311,58.2857143 Z M800.775949,59.4575045 L799.533635,59.4575045 C799.182819,59.4575045 798.894395,59.4168178 798.668354,59.335443 C798.442314,59.2540683 798.27595,59.125679 798.169259,58.9502712 C798.062567,58.7748635 798.009222,58.46474 798.009222,58.0198915 L798.009222,52.4484629 L798.822966,51.4285714 L798.822966,58.0198915 C798.822966,58.2839073 798.94593,58.4159132 799.191863,58.4159132 L800.775949,58.4159132 L800.775949,59.4575045 Z M796.482911,53.0831826 L796.038065,53.9837251 L796.038065,59.2893309 L795.761392,59.4575045 L793.64566,59.4575045 L793.64566,58.4159132 L795.224322,58.4159132 L795.224322,53.5009042 L794.936799,52.3833635 L795.891591,51.4285714 L795.972966,52.5461121 L796.482911,53.0831826 Z M794.772152,59.4575045 L793.546112,59.4575045 C793.477396,59.4575045 793.367994,59.4556962 793.217902,59.4520796 C793.067811,59.4484629 792.911393,59.443038 792.748644,59.4358047 C792.585894,59.4285714 792.428572,59.4231465 792.276673,59.4195298 C792.124773,59.4159132 792.012659,59.4141049 791.940325,59.4141049 C790.52983,59.4141049 789.822785,59.5298361 789.819168,59.761302 L789.867993,59.9620253 C789.882459,60.0054252 789.905967,60.0985526 789.938517,60.2414105 C789.971067,60.3842683 790.016275,60.5786606 790.074141,60.8245931 C790.186257,61.3309248 790.27396,61.7866164 790.337251,62.1916817 C790.400543,62.5967471 790.428571,62.9584071 790.421338,63.2766727 C790.421338,63.6672714 790.280291,64.1084966 789.998192,64.6003617 C789.936709,63.9493638 789.858952,63.3381584 789.764919,62.7667269 C789.670886,62.1952955 789.560579,61.6582304 789.433996,61.1555154 C789.347197,60.8119332 789.281194,60.5207969 789.235986,60.2820976 C789.190777,60.0433984 789.168174,59.8553352 789.168174,59.7179024 C789.168174,59.2368873 789.314646,58.9132016 789.607595,58.7468354 C789.773961,58.6564191 790.146471,58.5696207 790.725136,58.4864376 C791.235084,58.4104879 791.600361,58.3725136 791.820976,58.3725136 C791.900543,58.3725136 791.960217,58.3797468 792,58.3942134 L791.088608,57.3688969 L789.900542,57.9873418 L789.911392,57.60217 C789.915009,57.4792037 790.113922,57.2260417 790.508137,56.8426763 C790.898736,56.4593109 791.159131,56.2676311 791.289331,56.2676311 C791.48463,56.2676311 791.783,56.5316429 792.184448,57.0596745 C792.67993,57.6998224 793.11573,58.1518974 793.491863,58.4159132 L794.772152,58.4159132 L794.772152,59.4575045 Z" id="scientist"></path>
        </g>
    </g>
</svg>