<?xml version="1.0" encoding="UTF-8" standalone="no"?>
<svg width="21px" height="12px" viewBox="0 0 21 12" version="1.1" xmlns="http://www.w3.org/2000/svg" xmlns:xlink="http://www.w3.org/1999/xlink">
    <!-- Generator: Sketch 41.2 (35397) - http://www.bohemiancoding.com/sketch -->
    <title>student</title>
    <desc>Created with Sketch.</desc>
    <defs></defs>
    <g id="ideas-for-vis" stroke="none" stroke-width="1" fill="none" fill-rule="evenodd">
        <g id="Artboard" transform="translate(-259.000000, -48.000000)" fill="#000000">
            <path d="M279.586166,56.1103074 C279.586166,56.3417733 279.445119,56.4575045 279.16302,56.4575045 L272.311302,56.4575045 L272.311302,55.4159132 L273.255244,55.4159132 C273.37821,55.4159132 273.514737,55.4077758 273.664828,55.3915009 C273.814919,55.375226 273.956871,55.3535264 274.090687,55.3264014 C274.224503,55.2992765 274.337522,55.265823 274.429747,55.2260398 C274.521972,55.1862566 274.568083,55.1482823 274.568083,55.1121157 L274.568083,50.3761302 L274.329385,49.2368897 L275.078029,48.3146474 L275.148553,49.4213382 L275.658499,49.9475588 L275.208228,50.8481013 L275.208228,54.716094 C275.410761,54.4086784 275.779654,54.0922259 276.314919,53.7667269 C276.871883,53.4339947 277.32215,53.2676311 277.665732,53.2676311 C277.817632,53.2676311 277.964104,53.2983722 278.105154,53.3598553 C278.423419,53.4972882 278.681102,53.6193485 278.87821,53.7260398 C279.075317,53.8327311 279.210036,53.9312835 279.282369,54.0216998 C279.484902,54.2567824 279.586166,54.6781163 279.586166,55.2857143 L279.586166,56.1103074 Z M279.049096,55.2857143 C279.049096,54.9999986 278.795934,54.755878 278.289602,54.5533454 C277.89177,54.3978292 277.521069,54.3200723 277.177486,54.3200723 C276.98942,54.3200723 276.651268,54.4647363 276.16302,54.7540687 C275.660305,55.0506344 275.408951,55.2730553 275.408951,55.4213382 C275.408951,55.4936712 275.897192,55.5298373 276.873689,55.5298373 C278.323967,55.5298373 279.049096,55.4484637 279.049096,55.2857143 Z M273.437794,56.4575045 L272.195479,56.4575045 C271.844664,56.4575045 271.55624,56.4168178 271.330199,56.335443 C271.104158,56.2540683 270.937794,56.125679 270.831103,55.9502712 C270.724412,55.7748635 270.671067,55.46474 270.671067,55.0198915 L270.671067,49.4484629 L271.48481,48.4285714 L271.48481,55.0198915 C271.48481,55.2839073 271.607775,55.4159132 271.853707,55.4159132 L273.437794,55.4159132 L273.437794,56.4575045 Z M269.144756,50.0831826 L268.69991,50.9837251 L268.69991,56.2893309 L268.423237,56.4575045 L266.307505,56.4575045 L266.307505,55.4159132 L267.886166,55.4159132 L267.886166,50.5009042 L267.598644,49.3833635 L268.553436,48.4285714 L268.63481,49.5461121 L269.144756,50.0831826 Z M267.428571,56.4575045 L266.077758,56.4575045 C266.034358,56.6166373 265.46836,56.7703428 264.379747,56.9186257 C263.504516,57.030742 262.837254,57.0867993 262.377939,57.0867993 C261.85714,57.0867993 261.387886,57.0479208 260.970163,56.9701627 C260.552439,56.8924047 260.198012,56.7775776 259.906872,56.6256781 C259.615731,56.4737786 259.391502,56.2866196 259.234177,56.0641953 C259.076853,55.841771 258.998192,55.5858966 258.998192,55.2965642 C258.998192,54.7106661 259.25497,54.1609429 259.768535,53.6473779 C259.613019,54.1464763 259.535262,54.4972865 259.535262,54.6998192 C259.535262,55.2965672 259.945746,55.6907766 260.766727,55.8824593 C260.96926,55.9294758 261.230559,55.9647377 261.550633,55.9882459 C261.870707,56.0117542 262.253162,56.0235081 262.698011,56.0235081 C262.951177,56.0235081 263.225134,56.0153708 263.519892,55.9990958 C263.814649,55.9828209 264.13743,55.9566005 264.488246,55.920434 C265.450276,55.826401 265.931284,55.6871619 265.931284,55.5027125 C265.931284,55.2893299 265.752262,54.9566026 265.394213,54.5045208 L265.893309,53.4141049 C266.280291,53.8806533 266.473779,54.4593094 266.473779,55.1500904 L266.473779,55.2857143 C266.473779,55.3254975 266.470163,55.3688967 266.462929,55.4159132 L267.428571,55.4159132 L267.428571,56.4575045 Z M263.479204,58.4864376 L262.980108,59.3381555 L261.759494,58.6274864 L262.231465,57.7757685 L263.479204,58.4864376 Z" id="student"></path>
        </g>
    </g>
</svg>