<?xml version="1.0" encoding="UTF-8"?>
<svg width="70px" height="20px" viewBox="0 0 70 20" version="1.1" xmlns="http://www.w3.org/2000/svg" xmlns:xlink="http://www.w3.org/1999/xlink">
    <!-- Generator: Sketch 41.2 (35397) - http://www.bohemiancoding.com/sketch -->
    <title>teacher</title>
    <desc>Created with Sketch.</desc>
    <defs></defs>
    <g id="letters" stroke="none" stroke-width="1" fill="none" fill-rule="evenodd">
        <g id="teacher" fill="#000000">
            <path d="M68.9647365,12.6440875 C68.9647365,13.3911327 68.5889281,13.7646497 67.8372998,13.7646497 C67.4523195,13.7646497 66.9779758,13.6729891 66.4142546,13.4896651 C65.8047024,13.2925918 65.3945212,13.0726064 65.1836987,12.8297021 C65.014124,13.379674 64.6154004,13.6546559 63.9875158,13.6546559 L62.2826114,13.6546559 L62.2826114,12.3347299 C63.8958623,12.3347299 64.7780957,12.2797335 64.9293379,12.1697392 C65.0118337,12.1009927 65.1493246,11.8260108 65.3418148,11.3447854 C65.4793078,11.001053 65.6110699,10.7134678 65.7371051,10.4820213 C65.8631403,10.2505748 65.9891737,10.0638163 66.1152089,9.92174027 C66.2412441,9.7796642 66.3730063,9.67769177 66.5104992,9.61581993 C66.6479922,9.55394809 66.7969407,9.52301264 66.9573492,9.52301264 C67.4706563,9.52301264 67.9449999,9.9240278 68.3803943,10.7260701 C68.5728845,11.0835519 68.7206872,11.4215504 68.823807,11.7400758 C68.9269267,12.0586012 68.9739027,12.3599354 68.9647365,12.6440875 Z M68.1054098,12.1697392 C68.1054098,12.02308 68.0653082,11.8649654 67.985104,11.6953908 C67.9048998,11.5258161 67.8075104,11.3677016 67.6929329,11.2210424 C67.5783554,11.0743832 67.4500306,10.9529329 67.3079545,10.8566878 C67.1658784,10.7604427 67.0283875,10.7123209 66.8954776,10.7123209 C66.8083987,10.7123209 66.7029891,10.7501309 66.5792454,10.8257521 C66.4555017,10.9013732 66.3363429,10.991888 66.2217654,11.0972993 C66.107188,11.2027106 66.0086528,11.3127033 65.926157,11.4272808 C65.8436612,11.5418583 65.802414,11.642685 65.802414,11.7297638 C65.802414,11.7710117 65.8367867,11.8191336 65.9055332,11.8741307 C65.9742797,11.9291279 66.0636487,11.9852701 66.1736431,12.0425588 C66.2836375,12.0998475 66.4050878,12.1559897 66.5379977,12.2109868 C66.6709076,12.265984 66.8015239,12.3141059 66.9298507,12.3553537 C67.0581775,12.3966016 67.1773363,12.4309744 67.2873307,12.458473 C67.397325,12.4859716 67.4866941,12.4997206 67.5554406,12.4997206 C67.9220885,12.4997206 68.1054098,12.3897279 68.1054098,12.1697392 Z M63.7032505,13.6546559 L62.3352022,13.6546559 C61.3269204,13.6546559 60.586761,13.3292607 60.1147018,12.6784606 L59.2622496,13.1596836 C58.3868777,13.4896668 57.681091,13.6546559 57.1448684,13.6546559 L56.0243063,13.6546559 L56.0243063,12.3347299 C56.5101148,12.3347299 56.8435302,12.3278554 57.0245626,12.3141061 C57.2055951,12.3003568 57.6421287,12.2430689 58.3341767,12.1422407 C59.0720556,12.0093308 59.4409896,11.8260096 59.4409896,11.5922716 C59.4409896,11.4914434 59.3985965,11.3883252 59.3138092,11.2829139 C59.2290219,11.1775026 59.1259037,11.0824047 59.0044516,10.9976174 C58.8829994,10.9128301 58.7546746,10.8440846 58.6194732,10.791379 C58.4842717,10.7386733 58.3685502,10.7123209 58.2723051,10.7123209 C58.0202347,10.7123209 57.8094153,10.7673173 57.6398406,10.8773117 C57.6398406,10.6848215 57.7498333,10.3685924 57.9698221,9.92861488 C58.194394,9.48405427 58.3891728,9.18844881 58.5541643,9.04178964 C58.8291503,8.79888538 59.1935012,8.67743508 59.647228,8.67743508 C59.8947154,8.67743508 60.137616,8.7255569 60.3759371,8.82180198 C60.6142583,8.91804706 60.8296607,9.04522615 61.0221509,9.20334307 C61.214641,9.36145999 61.3693183,9.54592697 61.4861873,9.75674953 C61.6030564,9.96757209 61.66149,10.185266 61.66149,10.4098379 C61.66149,10.6435759 61.4415045,11.1568753 61.001527,11.9497515 C61.1711017,12.1789065 61.6019066,12.3095228 62.2939545,12.3416045 C62.2893714,12.3370214 62.759132,12.3347299 63.7032505,12.3347299 L63.7032505,13.6546559 Z M57.4449453,13.6546559 L52.6739629,13.6546559 L52.6739629,12.3347299 L54.7363472,12.3347299 L54.7363472,5.1370087 L55.8019125,3.48022664 L55.8019125,12.3347299 L57.4449453,12.3347299 L57.4449453,13.6546559 Z M54.1014766,13.6546559 L52.5478138,13.6546559 C52.4607349,13.6546559 52.3220982,13.6523643 52.1318996,13.6477812 C51.941701,13.6431981 51.7434849,13.6363236 51.5372455,13.6271574 C51.331006,13.6179912 51.1316442,13.6111166 50.939154,13.6065336 C50.7466638,13.6019505 50.6045899,13.5996589 50.5129279,13.5996589 C48.7255193,13.5996589 47.8295368,13.7463159 47.8249537,14.0396343 L47.8868252,14.293995 C47.9051576,14.3489922 47.9349473,14.4670052 47.9761952,14.6480376 C48.0174431,14.82907 48.074731,15.0754079 48.1480606,15.3870587 C48.2901367,16.0286925 48.4012752,16.6061544 48.4814794,17.1194615 C48.5616836,17.6327686 48.5972021,18.0910716 48.5880359,18.4943843 C48.5880359,18.989359 48.4092977,19.5484888 48.051816,20.1717902 C47.9739033,19.3468324 47.8753682,18.5723003 47.7562076,17.8481706 C47.637047,17.1240409 47.4972646,16.4434609 47.3368561,15.8064101 C47.2268617,15.3710157 47.1432214,15.0020818 47.0859327,14.6995972 C47.0286439,14.3971127 47,14.1587951 47,13.9846373 C47,13.3750852 47.1856127,12.9649039 47.5568438,12.7540814 C47.7676663,12.6395039 48.2397185,12.5295112 48.9730143,12.4240999 C49.6192313,12.3278548 50.0821174,12.279733 50.3616864,12.279733 C50.4625146,12.279733 50.5381346,12.288899 50.5885487,12.3072314 L49.4336135,11.0079293 L47.9280729,11.7916354 L47.9418222,11.3035378 C47.9464053,11.1477124 48.1984719,10.8269003 48.6980297,10.3410917 C49.1930044,9.85528324 49.5229826,9.61238263 49.6879742,9.61238263 C49.9354616,9.61238263 50.3135616,9.94694384 50.8222856,10.6160763 C51.4501701,11.4272849 52.0024253,12.0001637 52.4790676,12.3347299 L54.1014766,12.3347299 L54.1014766,13.6546559 Z"></path>
        </g>
    </g>
</svg>