<?xml version="1.0" encoding="UTF-8" standalone="no"?>
<svg width="19px" height="14px" viewBox="0 0 19 14" version="1.1" xmlns="http://www.w3.org/2000/svg" xmlns:xlink="http://www.w3.org/1999/xlink">
    <!-- Generator: Sketch 41.2 (35397) - http://www.bohemiancoding.com/sketch -->
    <title>teacher</title>
    <desc>Created with Sketch.</desc>
    <defs></defs>
    <g id="ideas-for-vis" stroke="none" stroke-width="1" fill="none" fill-rule="evenodd">
        <g id="Artboard" transform="translate(-466.000000, -48.000000)" fill="#000000">
            <path d="M484.215461,55.6600362 C484.215461,56.2495509 483.9189,56.5443038 483.325769,56.5443038 C483.02197,56.5443038 482.647651,56.4719718 482.202803,56.3273056 C481.721788,56.1717895 481.398102,55.9981926 481.231736,55.8065099 C481.09792,56.2405085 480.783276,56.4575045 480.287794,56.4575045 L478.942405,56.4575045 L478.942405,55.4159132 C480.215468,55.4159132 480.911663,55.372514 481.031013,55.2857143 C481.096112,55.2314645 481.20461,55.0144684 481.35651,54.6347197 C481.46501,54.3634706 481.568987,54.1365289 481.668445,53.9538879 C481.767903,53.7712468 481.867359,53.6238704 481.966817,53.5117541 C482.066275,53.3996378 482.170253,53.3191684 482.278752,53.2703436 C482.387252,53.2215187 482.504791,53.1971067 482.631374,53.1971067 C483.03644,53.1971067 483.410758,53.5135592 483.75434,54.1464738 C483.906239,54.4285728 484.022875,54.6952971 484.10425,54.9466546 C484.185624,55.1980121 484.222694,55.4358036 484.215461,55.6600362 Z M483.537342,55.2857143 C483.537342,55.1699813 483.505697,55.0452086 483.442405,54.9113924 C483.379114,54.7775762 483.302261,54.6528035 483.211845,54.5370705 C483.121428,54.4213376 483.020163,54.3254977 482.908047,54.2495479 C482.795931,54.1735982 482.687433,54.1356239 482.58255,54.1356239 C482.513833,54.1356239 482.430652,54.1654608 482.333002,54.2251356 C482.235352,54.2848104 482.141321,54.3562383 482.050904,54.4394213 C481.960488,54.5226044 481.882731,54.6094028 481.817631,54.6998192 C481.752531,54.7902355 481.719982,54.8698007 481.719982,54.9385172 C481.719982,54.9710671 481.747106,55.0090414 481.801356,55.0524412 C481.855606,55.0958411 481.92613,55.1401444 482.01293,55.1853526 C482.099729,55.2305608 482.195569,55.2748642 482.300452,55.318264 C482.405335,55.3616639 482.508408,55.3996382 482.609675,55.4321881 C482.710941,55.464738 482.804972,55.4918625 482.891772,55.5135624 C482.978572,55.5352623 483.049096,55.5461121 483.103345,55.5461121 C483.392678,55.5461121 483.537342,55.4593137 483.537342,55.2857143 Z M480.063472,56.4575045 L478.983906,56.4575045 C478.188242,56.4575045 477.604161,56.2007259 477.231646,55.6871609 L476.558951,56.0669078 C475.86817,56.3273069 475.311214,56.4575045 474.888065,56.4575045 L474.003797,56.4575045 L474.003797,55.4159132 C474.387163,55.4159132 474.650271,55.4104883 474.793128,55.3996383 C474.935986,55.3887884 475.280467,55.3435809 475.826582,55.2640145 C476.408864,55.1591315 476.7,55.0144675 476.7,54.8300181 C476.7,54.7504517 476.666546,54.6690782 476.599638,54.5858951 C476.53273,54.5027121 476.451357,54.4276676 476.355515,54.3607595 C476.259674,54.2938514 476.158409,54.2396024 476.051718,54.1980108 C475.945027,54.1564193 475.853707,54.1356239 475.777758,54.1356239 C475.578842,54.1356239 475.412478,54.1790231 475.278662,54.2658228 C475.278662,54.1139233 475.36546,53.8643779 475.53906,53.517179 C475.716276,53.1663635 475.869981,52.9330928 476.000181,52.8173599 C476.21718,52.6256772 476.5047,52.5298373 476.862749,52.5298373 C477.058048,52.5298373 477.249728,52.5678116 477.437794,52.6437613 C477.62586,52.719711 477.79584,52.8200717 477.94774,52.9448463 C478.099639,53.0696209 478.221699,53.215189 478.313924,53.3815552 C478.406149,53.5479213 478.45226,53.7197098 478.45226,53.8969259 C478.45226,54.0813752 478.278664,54.4864345 477.931465,55.1121157 C478.065281,55.2929485 478.405241,55.3960216 478.951356,55.4213382 C478.94774,55.4177215 479.318441,55.4159132 480.063472,55.4159132 L480.063472,56.4575045 Z M475.124864,56.4575045 L471.359946,56.4575045 L471.359946,55.4159132 L472.987432,55.4159132 L472.987432,49.7359855 L473.8283,48.4285714 L473.8283,55.4159132 L475.124864,55.4159132 L475.124864,56.4575045 Z M472.486438,56.4575045 L471.260398,56.4575045 C471.191681,56.4575045 471.082279,56.4556962 470.932188,56.4520796 C470.782097,56.4484629 470.625679,56.443038 470.462929,56.4358047 C470.30018,56.4285714 470.142858,56.4231465 469.990958,56.4195298 C469.839059,56.4159132 469.726944,56.4141049 469.654611,56.4141049 C468.244116,56.4141049 467.537071,56.5298361 467.533454,56.761302 L467.582278,56.9620253 C467.596745,57.0054252 467.620253,57.0985526 467.652803,57.2414105 C467.685353,57.3842683 467.73056,57.5786606 467.788427,57.8245931 C467.900543,58.3309248 467.988246,58.7866164 468.051537,59.1916817 C468.114829,59.5967471 468.142857,59.9584071 468.135624,60.2766727 C468.135624,60.6672714 467.994576,61.1084966 467.712477,61.6003617 C467.650994,60.9493638 467.573237,60.3381584 467.479204,59.7667269 C467.385171,59.1952955 467.274865,58.6582304 467.148282,58.1555154 C467.061482,57.8119332 466.995479,57.5207969 466.950271,57.2820976 C466.905063,57.0433984 466.882459,56.8553352 466.882459,56.7179024 C466.882459,56.2368873 467.028932,55.9132016 467.321881,55.7468354 C467.488247,55.6564191 467.860757,55.5696207 468.439421,55.4864376 C468.94937,55.4104879 469.314646,55.3725136 469.535262,55.3725136 C469.614829,55.3725136 469.674503,55.3797468 469.714286,55.3942134 L468.802893,54.3688969 L467.614828,54.9873418 L467.625678,54.60217 C467.629295,54.4792037 467.828208,54.2260417 468.222423,53.8426763 C468.613022,53.4593109 468.873417,53.2676311 469.003617,53.2676311 C469.198916,53.2676311 469.497286,53.5316429 469.898734,54.0596745 C470.394216,54.6998224 470.830016,55.1518974 471.206148,55.4159132 L472.486438,55.4159132 L472.486438,56.4575045 Z" id="teacher"></path>
        </g>
    </g>
</svg>